STARTFONT 2.1
COMMENT
COMMENT Converted from OpenType font "Times.otf" by "otf2bdf 3.0".
COMMENT
FONT -FreeType-Times New Roman-Medium-R-Normal--36-260-100-100-P-175-ISO10646-1
SIZE 26 100 100
FONTBOUNDINGBOX 61 47 -21 -11
STARTPROPERTIES 19
FOUNDRY "FreeType"
FAMILY_NAME "Times New Roman"
WEIGHT_NAME "Medium"
SLANT "R"
SETWIDTH_NAME "Normal"
ADD_STYLE_NAME ""
PIXEL_SIZE 36
POINT_SIZE 260
RESOLUTION_X 100
RESOLUTION_Y 100
SPACING "P"
AVERAGE_WIDTH 175
CHARSET_REGISTRY "ISO10646"
CHARSET_ENCODING "1"
FONT_ASCENT 32
FONT_DESCENT 7
COPYRIGHT "© 2006 The Monotype Corporation. All Rights Reserved."
_OTF_FONTFILE "Times.otf"
_OTF_PSNAME "TimesNewRomanPSMT"
ENDPROPERTIES
CHARS 1425
STARTCHAR 0020
ENCODING 32
SWIDTH 249 0
DWIDTH 9 0
BBX 0 0 0 0
BITMAP
ENDCHAR
STARTCHAR 0021
ENCODING 33
SWIDTH 332 0
DWIDTH 12 0
BBX 4 24 4 0
BITMAP
F0
F0
F0
F0
F0
F0
F0
60
60
60
60
60
60
60
60
60
40
00
00
00
00
F0
F0
F0
ENDCHAR
STARTCHAR 0022
ENCODING 34
SWIDTH 415 0
DWIDTH 15 0
BBX 10 10 2 14
BITMAP
71C0
F1C0
F1C0
71C0
61C0
61C0
60C0
6080
6080
2080
ENDCHAR
STARTCHAR 0023
ENCODING 35
SWIDTH 498 0
DWIDTH 18 0
BBX 16 24 1 0
BITMAP
0206
0206
0204
0604
0604
040C
040C
0408
FFFF
0C08
0818
0818
1810
1810
1810
FFFF
1030
3020
3020
3020
2060
2060
6040
6040
ENDCHAR
STARTCHAR 0024
ENCODING 36
SWIDTH 498 0
DWIDTH 18 0
BBX 14 29 2 -3
BITMAP
0200
0200
1FE0
3238
6218
E208
E208
E208
E208
F200
7A00
7E00
1F00
0FC0
07E0
03F0
02F8
027C
021C
021C
821C
821C
821C
C218
E230
7FE0
0200
0200
0200
ENDCHAR
STARTCHAR 0025
ENCODING 37
SWIDTH 830 0
DWIDTH 30 0
BBX 28 25 1 -1
BITMAP
1F000600
31800400
61C00C00
61C01800
E0C01000
E0C02000
E0C06000
E0C04000
60C08000
61C18000
31830000
1B020000
04060700
000C0CC0
000818E0
00183860
00303870
00203870
00603870
00C03870
00803870
01803860
030018E0
02001CC0
04000780
ENDCHAR
STARTCHAR 0026
ENCODING 38
SWIDTH 775 0
DWIDTH 28 0
BBX 26 25 1 -1
BITMAP
007E0000
00C30000
01C18000
03818000
03818000
03818000
03C30000
03C60000
01CC0000
01F83F00
00E01C00
03F01800
06781800
1C781000
383C3000
303E2000
701E4000
700FC000
F00F8000
F007C040
F807E040
7C0DF080
3FF8FF80
1FE07F00
02000800
ENDCHAR
STARTCHAR 0027
ENCODING 39
SWIDTH 193 0
DWIDTH 7 0
BBX 4 10 1 14
BITMAP
70
F0
70
70
70
60
60
60
20
20
ENDCHAR
STARTCHAR 0028
ENCODING 40
SWIDTH 332 0
DWIDTH 12 0
BBX 10 33 1 -8
BITMAP
0040
0080
0300
0600
0400
0C00
1800
1800
3800
3800
7000
7000
7000
7000
7000
7000
F000
7000
7000
7000
7000
7000
7000
3800
3800
1800
1C00
0C00
0600
0200
0100
0080
0040
ENDCHAR
STARTCHAR 0029
ENCODING 41
SWIDTH 332 0
DWIDTH 12 0
BBX 10 33 1 -8
BITMAP
8000
6000
3000
1800
0C00
0C00
0600
0600
0700
0700
0380
0380
0380
0380
03C0
03C0
03C0
03C0
0380
0380
0380
0380
0380
0700
0700
0600
0600
0C00
0800
1000
2000
4000
8000
ENDCHAR
STARTCHAR 002A
ENCODING 42
SWIDTH 498 0
DWIDTH 18 0
BBX 13 14 3 10
BITMAP
0600
0600
0600
C630
E678
F2F0
1D80
0600
7BE0
F6F0
E670
0600
0600
0600
ENDCHAR
STARTCHAR 002B
ENCODING 43
SWIDTH 553 0
DWIDTH 20 0
BBX 19 20 1 2
BITMAP
00C000
00C000
00C000
00C000
00C000
00C000
00C000
00C000
00C000
FFFFE0
FFFFE0
00C000
00C000
00C000
00C000
00C000
00C000
00C000
00C000
00C000
ENDCHAR
STARTCHAR 002C
ENCODING 44
SWIDTH 249 0
DWIDTH 9 0
BBX 5 9 2 -5
BITMAP
F0
F8
F8
08
08
18
10
60
80
ENDCHAR
STARTCHAR 002D
ENCODING 45
SWIDTH 332 0
DWIDTH 12 0
BBX 10 2 1 7
BITMAP
FFC0
FFC0
ENDCHAR
STARTCHAR 002E
ENCODING 46
SWIDTH 249 0
DWIDTH 9 0
BBX 3 3 3 0
BITMAP
E0
E0
E0
ENDCHAR
STARTCHAR 002F
ENCODING 47
SWIDTH 276 0
DWIDTH 10 0
BBX 10 25 0 0
BITMAP
00C0
00C0
0080
0180
0180
0100
0300
0300
0200
0600
0600
0400
0C00
0C00
0800
1800
1800
1000
3000
2000
2000
6000
4000
4000
C000
ENDCHAR
STARTCHAR 0030
ENCODING 48
SWIDTH 498 0
DWIDTH 18 0
BBX 16 24 1 0
BITMAP
07E0
0C30
1818
381C
380C
700E
700E
700E
700F
F00F
F00F
F00F
F00F
F00F
F00F
700F
700E
700E
700E
380C
381C
1818
0C30
07E0
ENDCHAR
STARTCHAR 0031
ENCODING 49
SWIDTH 498 0
DWIDTH 18 0
BBX 10 24 4 0
BITMAP
0E00
3E00
FE00
0E00
0E00
0E00
0E00
0E00
0E00
0E00
0E00
0E00
0E00
0E00
0E00
0E00
0E00
0E00
0E00
0E00
0E00
0E00
1E00
7FC0
ENDCHAR
STARTCHAR 0032
ENCODING 50
SWIDTH 498 0
DWIDTH 18 0
BBX 16 24 1 0
BITMAP
0FE0
1FF0
39F8
607C
403C
801C
001C
001C
001C
0018
0018
0030
0030
0060
00C0
0080
0100
0200
0400
0801
1002
3FFE
7FFC
FFFC
ENDCHAR
STARTCHAR 0033
ENCODING 51
SWIDTH 498 0
DWIDTH 18 0
BBX 14 24 1 0
BITMAP
0FE0
1FF0
30F0
6078
4038
0038
0030
0030
0060
0040
01E0
07F0
01F8
007C
003C
001C
001C
001C
001C
0018
0018
6030
F860
7F80
ENDCHAR
STARTCHAR 0034
ENCODING 52
SWIDTH 498 0
DWIDTH 18 0
BBX 16 24 1 0
BITMAP
0038
0078
0078
00F8
01B8
0138
0238
0638
0C38
0838
1838
3038
2038
4038
C038
FFFF
FFFF
FFFF
0038
0038
0038
0038
0038
0038
ENDCHAR
STARTCHAR 0035
ENCODING 53
SWIDTH 498 0
DWIDTH 18 0
BBX 13 24 2 0
BITMAP
07F8
0FF8
0FF8
1800
1000
3000
3800
7F00
7FC0
3FE0
03F0
00F0
0078
0038
0038
0018
0018
0018
0018
0010
0030
E060
FBC0
FF00
ENDCHAR
STARTCHAR 0036
ENCODING 54
SWIDTH 498 0
DWIDTH 18 0
BBX 15 24 2 0
BITMAP
007C
01C0
0300
0E00
1C00
1C00
3800
7800
7000
F3E0
FFF8
F078
E03C
E01C
E01E
E01E
E01E
E00E
E00C
701C
7018
3818
1830
0FE0
ENDCHAR
STARTCHAR 0037
ENCODING 55
SWIDTH 498 0
DWIDTH 18 0
BBX 15 24 1 0
BITMAP
3FFE
3FFE
3FFE
600E
400C
800C
001C
0018
0018
0038
0030
0030
0070
0060
0060
00C0
00C0
00C0
0180
0180
0180
0300
0300
0300
ENDCHAR
STARTCHAR 0038
ENCODING 56
SWIDTH 498 0
DWIDTH 18 0
BBX 14 24 2 0
BITMAP
1FE0
3030
6038
6018
6018
E018
7018
7830
7C70
3EC0
1F80
0FC0
0FE0
19F0
30F8
7078
603C
E01C
E01C
E01C
601C
7018
3830
1FE0
ENDCHAR
STARTCHAR 0039
ENCODING 57
SWIDTH 498 0
DWIDTH 18 0
BBX 16 24 1 0
BITMAP
0FE0
1830
3838
301C
701E
700E
700E
F00E
F00F
700F
700E
780E
381E
3E7E
0FDE
001C
001C
0038
0070
0070
00E0
01C0
0300
3E00
ENDCHAR
STARTCHAR 003A
ENCODING 58
SWIDTH 276 0
DWIDTH 10 0
BBX 4 17 3 0
BITMAP
60
F0
F0
70
00
00
00
00
00
00
00
00
00
00
F0
F0
F0
ENDCHAR
STARTCHAR 003B
ENCODING 59
SWIDTH 276 0
DWIDTH 10 0
BBX 5 23 3 -6
BITMAP
60
F0
F0
E0
00
00
00
00
00
00
00
00
00
00
F0
F8
F8
18
18
10
30
60
80
ENDCHAR
STARTCHAR 003C
ENCODING 60
SWIDTH 553 0
DWIDTH 20 0
BBX 19 18 1 3
BITMAP
000020
0000E0
000380
001E00
007800
01C000
0F0000
3C0000
E00000
F00000
3C0000
0F0000
01C000
007800
001E00
000380
0000E0
000020
ENDCHAR
STARTCHAR 003D
ENCODING 61
SWIDTH 553 0
DWIDTH 20 0
BBX 19 8 1 8
BITMAP
FFFFE0
FFFFE0
000000
000000
000000
000000
FFFFE0
FFFFE0
ENDCHAR
STARTCHAR 003E
ENCODING 62
SWIDTH 553 0
DWIDTH 20 0
BBX 19 16 1 4
BITMAP
C00000
780000
1E0000
078000
00E000
003C00
000F00
0001C0
0001E0
000700
003C00
00F000
038000
0E0000
780000
C00000
ENDCHAR
STARTCHAR 003F
ENCODING 63
SWIDTH 443 0
DWIDTH 16 0
BBX 13 24 2 0
BITMAP
3FC0
60E0
C070
C070
E078
E078
E070
0070
0070
00E0
00C0
0180
0100
0300
0200
0200
0400
0400
0000
0000
0000
0E00
0F00
0E00
ENDCHAR
STARTCHAR 0040
ENCODING 64
SWIDTH 913 0
DWIDTH 33 0
BBX 30 33 2 -8
BITMAP
000FF800
00700600
00C00180
030000C0
06000060
0C000020
18000010
30000010
3003CE18
60062C08
600C1C08
40181C08
C0301C08
C0701808
C0E03808
C0E03818
80C03010
81C07010
81C07030
81C0F020
C1C16040
C1C260C0
41FC6184
60F87E04
60000008
20000018
10000010
18000020
0C000040
06000180
01800700
00783C00
0007C000
ENDCHAR
STARTCHAR 0041
ENCODING 65
SWIDTH 720 0
DWIDTH 26 0
BBX 26 24 0 0
BITMAP
000C0000
000C0000
001C0000
001E0000
001E0000
003F0000
00270000
00678000
00478000
00C38000
00C3C000
0081C000
0181E000
0100E000
0300F000
03FFF000
06007000
06007800
04003800
0C003C00
08003C00
18001E00
38001E00
FF00FFC0
ENDCHAR
STARTCHAR 0042
ENCODING 66
SWIDTH 664 0
DWIDTH 24 0
BBX 21 24 1 0
BITMAP
FFFC00
3F1F80
1C03C0
1C01E0
1C00F0
1C00F0
1C00F0
1C00F0
1C00F0
1C01E0
1C03C0
1FFF00
1C0FC0
1C01E0
1C00F0
1C00F8
1C0078
1C0078
1C0078
1C0078
1C00F0
1C01E0
1F07C0
FFFF00
ENDCHAR
STARTCHAR 0043
ENCODING 67
SWIDTH 664 0
DWIDTH 24 0
BBX 22 25 1 -1
BITMAP
00FF88
0380F8
070038
0E0018
1C0018
3C0008
380008
780000
780000
780000
F00000
F00000
F00000
F00000
F00000
780000
780000
780000
3C0004
3C0008
1E0010
0F0030
07C0C0
01FF80
001000
ENDCHAR
STARTCHAR 0044
ENCODING 68
SWIDTH 720 0
DWIDTH 26 0
BBX 24 24 1 0
BITMAP
FFFE00
1F9FC0
1C01F0
1C00F8
1C0078
1C003C
1C001E
1C001E
1C001E
1C001F
1C000F
1C000F
1C000F
1C000F
1C000E
1C001E
1C001E
1C001E
1C003C
1C0078
1C00F0
1C01E0
1F07C0
FFFE00
ENDCHAR
STARTCHAR 0045
ENCODING 69
SWIDTH 609 0
DWIDTH 22 0
BBX 20 24 1 0
BITMAP
FFFFC0
1E03C0
1E0040
1E0040
1E0040
1E0000
1E0000
1E0000
1E0100
1E0100
1E0300
1FFF00
1E0300
1E0100
1E0100
1E0000
1E0000
1E0000
1E0010
1E0010
1E0020
1E0060
1E01E0
FFFFC0
ENDCHAR
STARTCHAR 0046
ENCODING 70
SWIDTH 553 0
DWIDTH 20 0
BBX 18 24 1 0
BITMAP
FFFF80
3C0F80
1C0080
1C00C0
1C0040
1C0000
1C0000
1C0000
1C0200
1C0600
1C0E00
1FFE00
1C0E00
1C0600
1C0200
1C0200
1C0000
1C0000
1C0000
1C0000
1C0000
1E0000
1E0000
FFC000
ENDCHAR
STARTCHAR 0047
ENCODING 71
SWIDTH 720 0
DWIDTH 26 0
BBX 25 25 1 -1
BITMAP
00FFC800
03C07800
07003800
0E001C00
1C000C00
3C000400
38000400
78000000
78000000
70000000
F0000000
F001FF80
F0003C00
F0003C00
F8003C00
78003C00
78003C00
7C003C00
3C003C00
1E003C00
1E003C00
0F003C00
03C03C00
00FFF000
00040000
ENDCHAR
STARTCHAR 0048
ENCODING 72
SWIDTH 720 0
DWIDTH 26 0
BBX 24 24 1 0
BITMAP
FFC3FF
1E0078
1E0078
1C0038
1C0038
1C0038
1C0038
1C0038
1C0038
1C0038
1C0038
1FFFF8
1C0038
1C0038
1C0038
1C0038
1C0038
1C0038
1C0038
1C0038
1C0038
1E0078
1E0078
FFC3FF
ENDCHAR
STARTCHAR 0049
ENCODING 73
SWIDTH 332 0
DWIDTH 12 0
BBX 10 24 1 0
BITMAP
FFC0
1E00
1E00
1E00
1E00
1E00
1E00
1E00
1E00
1E00
1E00
1E00
1E00
1E00
1E00
1E00
1E00
1E00
1E00
1E00
1E00
1E00
1E00
FFC0
ENDCHAR
STARTCHAR 004A
ENCODING 74
SWIDTH 387 0
DWIDTH 14 0
BBX 13 25 1 -1
BITMAP
1FF8
07C0
03C0
0380
0380
0380
0380
0380
0380
0380
0380
0380
0380
0380
0380
0380
0380
0380
0380
0380
E380
E300
F300
FE00
1000
ENDCHAR
STARTCHAR 004B
ENCODING 75
SWIDTH 720 0
DWIDTH 26 0
BBX 25 24 1 0
BITMAP
FFC7FC00
3E00F000
1E01C000
1C018000
1C030000
1C060000
1C0C0000
1C180000
1C300000
1C600000
1CC00000
1DE00000
1FF00000
1CF80000
1C7C0000
1C3E0000
1C1F0000
1C0F8000
1C07C000
1C03E000
1C01F000
1E00F800
1E00FC00
FFC3FF80
ENDCHAR
STARTCHAR 004C
ENCODING 76
SWIDTH 609 0
DWIDTH 22 0
BBX 20 24 1 0
BITMAP
FFE000
1E0000
1E0000
1E0000
1E0000
1E0000
1E0000
1E0000
1E0000
1E0000
1E0000
1E0000
1E0000
1E0000
1E0000
1E0000
1E0000
1E0000
1E0010
1E0010
1E0020
1E0060
1FFFE0
FFFFC0
ENDCHAR
STARTCHAR 004D
ENCODING 77
SWIDTH 886 0
DWIDTH 32 0
BBX 30 24 1 0
BITMAP
FE0001FC
3E0001F0
1E0003E0
1F0003E0
1F0002E0
1F8006E0
1B8004E0
1BC00CE0
19C008E0
19E018E0
18E018E0
18F030E0
18F030E0
187860E0
187860E0
183C40E0
183CC0E0
181C80E0
181F80E0
180F00E0
180F00E0
180701E0
180601E0
FF020FFC
ENDCHAR
STARTCHAR 004E
ENCODING 78
SWIDTH 720 0
DWIDTH 26 0
BBX 26 24 0 0
BITMAP
FC007FC0
3E000E00
0F000400
0F800400
0FC00400
0FC00400
0DE00400
0CF00400
0C780400
0C7C0400
0C3C0400
0C1E0400
0C0F0400
0C078400
0C07C400
0C03E400
0C01E400
0C00F400
0C007C00
0C003C00
0C003C00
0C001C00
0C000C00
7F800400
ENDCHAR
STARTCHAR 004F
ENCODING 79
SWIDTH 720 0
DWIDTH 26 0
BBX 24 25 1 -1
BITMAP
01FF80
0381E0
0E0070
1E0078
1C003C
38001C
78001E
78001E
78001E
F0001F
F0000F
F0000F
F0000F
F0000F
F0000E
78001E
78001E
78001E
38001C
3C0038
1E0038
0E0070
0781C0
01FF80
001000
ENDCHAR
STARTCHAR 0050
ENCODING 80
SWIDTH 553 0
DWIDTH 20 0
BBX 18 24 1 0
BITMAP
FFF800
3FFE00
1C0F00
1C0780
1C0780
1C03C0
1C03C0
1C03C0
1C03C0
1C0780
1C0780
1C0F00
1FFC00
1C0000
1C0000
1C0000
1C0000
1C0000
1C0000
1C0000
1C0000
1E0000
1E0000
FFC000
ENDCHAR
STARTCHAR 0051
ENCODING 81
SWIDTH 720 0
DWIDTH 26 0
BBX 24 31 1 -7
BITMAP
01FF80
0381C0
0E00F0
1E0078
1C003C
38003C
78001E
78001E
78001E
F0001F
F0000F
F0000F
F0000F
F0000F
F0000F
78000E
78001E
78001E
38001C
3C0038
1E0038
0E0070
0781E0
01FF80
007E00
003F00
001F00
000780
0001C0
000070
00000E
ENDCHAR
STARTCHAR 0052
ENCODING 82
SWIDTH 664 0
DWIDTH 24 0
BBX 23 24 1 0
BITMAP
FFF800
1FBF00
1C0780
1C07C0
1C03C0
1C03C0
1C03C0
1C03C0
1C03C0
1C0780
1C0F00
1C7E00
1FF000
1C7800
1C3C00
1C1E00
1C0E00
1C0F00
1C0780
1C03C0
1C03C0
1E01E0
1E00F0
FFC07E
ENDCHAR
STARTCHAR 0053
ENCODING 83
SWIDTH 553 0
DWIDTH 20 0
BBX 16 25 2 -1
BITMAP
0FE2
383E
701E
600E
E006
E006
F002
F802
7C00
3F00
3FC0
0FF0
07F8
01FC
007E
001F
800F
8007
C007
C007
E007
F00E
F81C
8FF8
8080
ENDCHAR
STARTCHAR 0054
ENCODING 84
SWIDTH 609 0
DWIDTH 22 0
BBX 20 24 1 0
BITMAP
FFFFF0
FFFFF0
C0F030
80F010
80F010
80F010
00F000
00F000
00F000
00F000
00F000
00F000
00F000
00F000
00F000
00F000
00F000
00F000
00F000
00F000
00F000
00F000
00F000
07FE00
ENDCHAR
STARTCHAR 0055
ENCODING 85
SWIDTH 720 0
DWIDTH 26 0
BBX 26 25 0 -1
BITMAP
FFE07FC0
1F000E00
0E000400
0E000400
0E000400
0E000400
0E000400
0E000400
0E000400
0E000400
0E000400
0E000400
0E000400
0E000400
0E000400
0E000400
0E000400
0E000C00
0E000C00
0F000C00
07001800
07803800
03C07000
00FFC000
000C0000
ENDCHAR
STARTCHAR 0056
ENCODING 86
SWIDTH 720 0
DWIDTH 26 0
BBX 26 25 0 -1
BITMAP
FFC03FC0
1F000F00
1E000600
0F000400
0F000C00
07000C00
07801800
03801800
03C01000
01C03000
01E02000
01E06000
00E06000
00F04000
0070C000
00788000
00398000
003D8000
003D0000
001F0000
001E0000
000E0000
000E0000
00040000
00040000
ENDCHAR
STARTCHAR 0057
ENCODING 87
SWIDTH 941 0
DWIDTH 34 0
BBX 34 25 0 -1
BITMAP
FF8FF81FC0
1E03E00700
1E01E00600
0E01E00600
0F00E00400
0F00E00C00
0700F00C00
0780F00800
0780F01800
0380F81800
03C1B81000
01C13C3000
01C13C3000
01E31C2000
00E21E6000
00E21E6000
00F60E4000
00740FC000
007C078000
007C078000
0038078000
0038030000
0038030000
0010030000
0010000000
ENDCHAR
STARTCHAR 0058
ENCODING 88
SWIDTH 720 0
DWIDTH 26 0
BBX 26 24 0 0
BITMAP
7FF07F80
1FC01E00
07801800
03C01000
03E03000
01E06000
00F0C000
00798000
00798000
003F0000
001E0000
001E0000
000F0000
001F8000
00378000
0063C000
00C1E000
0081E000
0180F000
03007800
06007800
0E003C00
1E003E00
FF81FFC0
ENDCHAR
STARTCHAR 0059
ENCODING 89
SWIDTH 720 0
DWIDTH 26 0
BBX 26 24 0 0
BITMAP
FFE07FC0
3F001E00
1F000C00
0F001800
07801800
07803000
03C02000
01E06000
01E0C000
00F08000
00798000
007B0000
003E0000
001E0000
001E0000
001E0000
001E0000
001E0000
001E0000
001E0000
001E0000
001E0000
001E0000
00FFC000
ENDCHAR
STARTCHAR 005A
ENCODING 90
SWIDTH 609 0
DWIDTH 22 0
BBX 21 24 0 0
BITMAP
1FFFF0
1FFFF0
1801E0
1003C0
1003C0
200780
000F00
000F00
001E00
003C00
007800
007800
00F000
01E000
01E000
03C000
078000
078000
0F0008
1E0008
3C0018
3C0030
7801F0
FFFFF0
ENDCHAR
STARTCHAR 005B
ENCODING 91
SWIDTH 332 0
DWIDTH 12 0
BBX 8 31 3 -7
BITMAP
FF
E0
E0
E0
E0
E0
E0
E0
E0
E0
E0
E0
E0
E0
E0
E0
E0
E0
E0
E0
E0
E0
E0
E0
E0
E0
E0
E0
E0
E0
FF
ENDCHAR
STARTCHAR 005C
ENCODING 92
SWIDTH 276 0
DWIDTH 10 0
BBX 10 25 0 0
BITMAP
C000
4000
4000
6000
2000
2000
3000
1000
1000
1800
0800
0800
0C00
0400
0400
0600
0200
0200
0300
0100
0100
0180
0080
0080
00C0
ENDCHAR
STARTCHAR 005D
ENCODING 93
SWIDTH 332 0
DWIDTH 12 0
BBX 8 31 1 -7
BITMAP
FF
07
07
07
07
07
07
07
07
07
07
07
07
07
07
07
07
07
07
07
07
07
07
07
07
07
07
07
07
07
FF
ENDCHAR
STARTCHAR 005E
ENCODING 94
SWIDTH 470 0
DWIDTH 17 0
BBX 15 12 1 12
BITMAP
0100
0380
02C0
06C0
0C60
0820
1830
3010
3018
600C
4004
C006
ENDCHAR
STARTCHAR 005F
ENCODING 95
SWIDTH 498 0
DWIDTH 18 0
BBX 18 2 0 -8
BITMAP
FFFFC0
FFFFC0
ENDCHAR
STARTCHAR 0060
ENCODING 96
SWIDTH 332 0
DWIDTH 12 0
BBX 6 7 2 18
BITMAP
F0
70
38
18
18
0C
04
ENDCHAR
STARTCHAR 0061
ENCODING 97
SWIDTH 443 0
DWIDTH 16 0
BBX 15 17 1 0
BITMAP
0300
1DE0
3070
7070
7070
7070
0070
03F0
0E70
3870
7070
6070
E070
E070
F0F2
7F7C
3E38
ENDCHAR
STARTCHAR 0062
ENCODING 98
SWIDTH 498 0
DWIDTH 18 0
BBX 17 25 0 0
BITMAP
1C0000
7C0000
BC0000
1C0000
1C0000
1C0000
1C0000
1C0000
1C3000
1CFC00
1DFE00
1E1F00
1C0F00
1C0780
1C0780
1C0380
1C0380
1C0380
1C0380
1C0300
1C0700
1C0600
1C0E00
1E1C00
0FF000
ENDCHAR
STARTCHAR 0063
ENCODING 99
SWIDTH 443 0
DWIDTH 16 0
BBX 14 17 1 0
BITMAP
0180
0FF0
1878
3038
7038
6010
6000
E000
E000
E000
F000
F004
7808
7808
3E30
1FF0
0FC0
ENDCHAR
STARTCHAR 0064
ENCODING 100
SWIDTH 498 0
DWIDTH 18 0
BBX 17 25 1 0
BITMAP
000C00
003C00
005C00
001C00
000C00
000C00
000C00
000C00
018C00
0FEC00
183C00
381C00
301C00
700C00
700C00
E00C00
E00C00
F00C00
F00C00
F00C00
700C00
780E00
3C1E00
3F6F80
0FCE00
ENDCHAR
STARTCHAR 0065
ENCODING 101
SWIDTH 443 0
DWIDTH 16 0
BBX 14 17 1 0
BITMAP
0180
0FF0
1078
3038
603C
603C
7FFC
E000
E000
E000
E000
7004
7804
7C08
3F38
1FF0
0FE0
ENDCHAR
STARTCHAR 0066
ENCODING 102
SWIDTH 332 0
DWIDTH 12 0
BBX 15 25 1 0
BITMAP
00F8
033C
061E
0E0E
0E00
0E00
0C00
0C00
0C00
FFE0
0C00
0C00
0C00
0C00
0C00
0C00
0C00
0C00
0C00
0C00
0C00
0C00
1E00
1E00
FFC0
ENDCHAR
STARTCHAR 0067
ENCODING 103
SWIDTH 498 0
DWIDTH 18 0
BBX 16 25 1 -8
BITMAP
0380
0C70
183F
3838
381C
701C
781C
381C
381C
3838
1E30
0BC0
1000
3000
3C00
3FFE
1FFF
101F
2001
6001
E003
F006
7E1C
3FF8
07C0
ENDCHAR
STARTCHAR 0068
ENCODING 104
SWIDTH 498 0
DWIDTH 18 0
BBX 18 25 0 0
BITMAP
0C0000
7C0000
BC0000
1C0000
1C0000
1C0000
1C0000
1C0000
1C3000
1CFC00
1DFE00
1E0E00
1C0E00
1C0E00
1C0E00
1C0E00
1C0E00
1C0E00
1C0E00
1C0E00
1C0E00
1C0E00
1C0F00
1C0F00
FF3FC0
ENDCHAR
STARTCHAR 0069
ENCODING 105
SWIDTH 276 0
DWIDTH 10 0
BBX 8 25 1 0
BITMAP
1C
3C
1C
00
00
00
00
00
04
3C
FC
1C
1C
1C
1C
1C
1C
1C
1C
1C
1C
1C
1C
3C
FF
ENDCHAR
STARTCHAR 006A
ENCODING 106
SWIDTH 276 0
DWIDTH 10 0
BBX 10 33 -3 -8
BITMAP
01C0
03C0
01C0
0000
0000
0000
0000
0000
0040
03C0
0FC0
01C0
01C0
01C0
01C0
01C0
01C0
01C0
01C0
01C0
01C0
01C0
01C0
01C0
01C0
01C0
01C0
0180
0180
0180
F300
FE00
3800
ENDCHAR
STARTCHAR 006B
ENCODING 107
SWIDTH 498 0
DWIDTH 18 0
BBX 18 25 0 0
BITMAP
0C0000
7C0000
3C0000
1C0000
1C0000
1C0000
1C0000
1C0000
1C0000
1C1F80
1C0C00
1C1800
1C3000
1C6000
1C8000
1F8000
1FC000
1DE000
1CE000
1C7000
1C7800
1C3C00
1C1E00
1C0F00
FFBFC0
ENDCHAR
STARTCHAR 006C
ENCODING 108
SWIDTH 276 0
DWIDTH 10 0
BBX 8 25 1 0
BITMAP
1C
7C
3C
1C
1C
1C
1C
1C
1C
1C
1C
1C
1C
1C
1C
1C
1C
1C
1C
1C
1C
1C
1C
3C
FF
ENDCHAR
STARTCHAR 006D
ENCODING 109
SWIDTH 775 0
DWIDTH 28 0
BBX 28 17 0 0
BITMAP
04100C00
3CFC3F00
FDFE7F80
1E0F8380
1C070380
1C0701C0
1C0701C0
1C0701C0
1C0701C0
1C0701C0
1C0701C0
1C0701C0
1C0701C0
1C0701C0
1C0701C0
1C0703C0
7FBFCFF0
ENDCHAR
STARTCHAR 006E
ENCODING 110
SWIDTH 498 0
DWIDTH 18 0
BBX 18 17 0 0
BITMAP
041000
3CFC00
FDFE00
1E0E00
1C0E00
1C0E00
1C0600
1C0600
1C0600
1C0600
1C0600
1C0600
1C0600
1C0600
1C0700
1C0F00
FF3FC0
ENDCHAR
STARTCHAR 006F
ENCODING 111
SWIDTH 498 0
DWIDTH 18 0
BBX 16 17 1 0
BITMAP
0180
0FF0
1838
301C
701E
700E
700F
E00F
F00F
F007
F007
700E
700E
780E
380C
1C18
0FF0
ENDCHAR
STARTCHAR 0070
ENCODING 112
SWIDTH 498 0
DWIDTH 18 0
BBX 17 25 0 -8
BITMAP
042000
3CFC00
FDFE00
3E1F00
1C0F00
1C0780
1C0780
1C0780
1C0380
1C0380
1C0380
1C0300
1C0700
1C0700
1C0600
1E0C00
1FF800
1C0000
1C0000
1C0000
1C0000
1C0000
1C0000
3C0000
FF0000
ENDCHAR
STARTCHAR 0071
ENCODING 113
SWIDTH 498 0
DWIDTH 18 0
BBX 17 25 1 -8
BITMAP
018000
0FFC00
183C00
301C00
301C00
600C00
600C00
E00C00
E00C00
E00C00
E00C00
F00C00
700C00
781C00
7C2C00
3FCC00
1F8C00
000C00
000C00
000C00
000C00
000C00
001E00
001E00
007F80
ENDCHAR
STARTCHAR 0072
ENCODING 114
SWIDTH 332 0
DWIDTH 12 0
BBX 12 17 0 0
BITMAP
0460
3CF0
FDF0
1E30
1C00
1C00
1C00
1C00
1C00
1C00
1C00
1C00
1C00
1C00
1C00
1C00
FF80
ENDCHAR
STARTCHAR 0073
ENCODING 115
SWIDTH 387 0
DWIDTH 14 0
BBX 11 17 2 0
BITMAP
0840
77C0
C1C0
C0C0
C040
E040
F000
FC00
3F00
1F80
07C0
01E0
80E0
80E0
C0C0
E0C0
FF80
ENDCHAR
STARTCHAR 0074
ENCODING 116
SWIDTH 276 0
DWIDTH 10 0
BBX 10 21 0 0
BITMAP
0400
0C00
0C00
1C00
3C00
FFC0
1C00
1C00
1C00
1C00
1C00
1C00
1C00
1C00
1C00
1C00
1C00
1C00
1C40
1F80
0F00
ENDCHAR
STARTCHAR 0075
ENCODING 117
SWIDTH 498 0
DWIDTH 18 0
BBX 17 16 1 0
BITMAP
F87C00
381C00
381C00
381C00
381C00
381C00
381C00
381C00
381C00
381C00
381C00
381C00
381C00
383E00
3FDF80
1F9E00
ENDCHAR
STARTCHAR 0076
ENCODING 118
SWIDTH 498 0
DWIDTH 18 0
BBX 18 16 0 0
BITMAP
FF0FC0
3C0300
1C0200
1C0200
0E0600
0E0400
070C00
070800
078800
039000
039000
01F000
01E000
00E000
00C000
00C000
ENDCHAR
STARTCHAR 0077
ENCODING 119
SWIDTH 720 0
DWIDTH 26 0
BBX 26 16 0 0
BITMAP
FE7F87C0
3C1E0300
1C0E0300
1C0E0200
1C070600
0E0F0400
0E0F0400
061B8C00
07138800
0731D800
03A1D000
03A1D000
03C0F000
01C0E000
01C06000
00804000
ENDCHAR
STARTCHAR 0078
ENCODING 120
SWIDTH 498 0
DWIDTH 18 0
BBX 18 16 0 0
BITMAP
FF3F00
1E0C00
0E1800
0F1000
07A000
03E000
03C000
01E000
01E000
037000
067800
043800
081C00
181E00
300F00
7C3FC0
ENDCHAR
STARTCHAR 0079
ENCODING 121
SWIDTH 498 0
DWIDTH 18 0
BBX 18 24 0 -8
BITMAP
FF07C0
3C0300
1C0300
1C0200
0E0600
0E0400
070C00
070C00
038800
039800
01D000
01F000
01F000
00E000
00E000
004000
00C000
00C000
008000
018000
330000
7E0000
7E0000
380000
ENDCHAR
STARTCHAR 007A
ENCODING 122
SWIDTH 443 0
DWIDTH 16 0
BBX 14 16 1 0
BITMAP
7FFC
603C
4078
4070
00E0
01E0
03C0
0380
0700
0F00
1E00
1C00
3804
7804
F00C
FFFC
ENDCHAR
STARTCHAR 007B
ENCODING 123
SWIDTH 470 0
DWIDTH 17 0
BBX 10 33 5 -8
BITMAP
00C0
0300
0600
0C00
0C00
1C00
1C00
1C00
1E00
0E00
0E00
0C00
0C00
0800
1800
2000
C000
3000
1800
0C00
0C00
0E00
0E00
0E00
1C00
1C00
1C00
1C00
0C00
0C00
0600
0300
00C0
ENDCHAR
STARTCHAR 007C
ENCODING 124
SWIDTH 193 0
DWIDTH 7 0
BBX 1 33 3 -8
BITMAP
80
80
80
80
80
80
80
80
80
80
80
80
80
80
80
80
80
80
80
80
80
80
80
80
80
80
80
80
80
80
80
80
80
ENDCHAR
STARTCHAR 007D
ENCODING 125
SWIDTH 470 0
DWIDTH 17 0
BBX 10 33 3 -8
BITMAP
C000
3000
1800
0C00
0C00
0E00
0E00
0E00
1E00
1C00
1C00
1C00
0C00
0C00
0600
0100
00C0
0300
0600
0C00
0C00
1C00
1C00
1C00
0E00
0E00
0E00
0E00
0C00
0C00
1800
3000
C000
ENDCHAR
STARTCHAR 007E
ENCODING 126
SWIDTH 553 0
DWIDTH 20 0
BBX 19 5 0 7
BITMAP
1E0020
3F8020
41F060
403FC0
800F80
ENDCHAR
STARTCHAR 00A0
ENCODING 160
SWIDTH 249 0
DWIDTH 9 0
BBX 0 0 0 0
BITMAP
ENDCHAR
STARTCHAR 00A1
ENCODING 161
SWIDTH 332 0
DWIDTH 12 0
BBX 4 25 4 -8
BITMAP
70
F0
F0
60
00
00
00
40
60
60
60
60
60
60
60
60
60
F0
F0
F0
F0
F0
F0
F0
60
ENDCHAR
STARTCHAR 00A2
ENCODING 162
SWIDTH 498 0
DWIDTH 18 0
BBX 14 30 2 -7
BITMAP
0010
0010
0030
0020
0020
0060
01C0
0FF0
18F8
30B8
71B8
6118
6100
E300
E200
E200
F600
7404
7408
7808
3E70
1FF0
1FC0
1000
3000
2000
2000
6000
4000
4000
ENDCHAR
STARTCHAR 00A3
ENCODING 163
SWIDTH 498 0
DWIDTH 18 0
BBX 16 24 1 0
BITMAP
01FC
030C
060E
060E
0E04
0E00
0E00
0E00
0E00
0E00
0E00
7FF0
0E00
0E00
0E00
0E00
0E00
0E00
0600
3C01
7F03
8FFE
89FE
F0FC
ENDCHAR
STARTCHAR 00A4
ENCODING 164
SWIDTH 498 0
DWIDTH 18 0
BBX 18 17 0 3
BITMAP
C1E0C0
67F980
3C0F00
180600
300300
200100
600180
600180
600180
600180
200100
300300
180200
3C0F00
37FB80
C1E1C0
000080
ENDCHAR
STARTCHAR 00A5
ENCODING 165
SWIDTH 498 0
DWIDTH 18 0
BBX 18 24 0 0
BITMAP
FF0FC0
3C0300
1C0200
1C0600
1E0600
0E0400
0F0C00
070800
071800
039000
03B000
03E000
FFFFC0
01E000
01E000
01E000
01E000
FFFFC0
01E000
01E000
01E000
01E000
01E000
0FFC00
ENDCHAR
STARTCHAR 00A6
ENCODING 166
SWIDTH 193 0
DWIDTH 7 0
BBX 1 33 3 -8
BITMAP
80
80
80
80
80
80
80
80
80
80
80
80
80
00
00
00
00
00
00
00
80
80
80
80
80
80
80
80
80
80
80
80
80
ENDCHAR
STARTCHAR 00A7
ENCODING 167
SWIDTH 498 0
DWIDTH 18 0
BBX 12 31 3 -7
BITMAP
0F80
10C0
30E0
20E0
70E0
3000
3800
3C00
1E00
1F80
27C0
43E0
C0E0
C070
C030
C030
E030
F010
7820
3C20
1E40
0F80
0780
03C0
01C0
00E0
7060
7040
7040
3080
1F00
ENDCHAR
STARTCHAR 00A8
ENCODING 168
SWIDTH 332 0
DWIDTH 12 0
BBX 10 4 1 20
BITMAP
0080
F3C0
F3C0
E1C0
ENDCHAR
STARTCHAR 00A9
ENCODING 169
SWIDTH 747 0
DWIDTH 27 0
BBX 25 25 1 -1
BITMAP
00FFC000
03007000
04001800
08000C00
103F2600
20C0E200
21806100
43802100
43002080
C7000080
87000080
87000080
87000080
87000080
C7000080
47000080
43801100
61C02100
20E0C200
103F0600
18000400
0C001800
03007000
00FFC000
00080000
ENDCHAR
STARTCHAR 00AA
ENCODING 170
SWIDTH 276 0
DWIDTH 10 0
BBX 10 10 0 14
BITMAP
7F00
4300
4300
0700
1B00
6300
C300
C300
F7C0
7B80
ENDCHAR
STARTCHAR 00AB
ENCODING 171
SWIDTH 498 0
DWIDTH 18 0
BBX 16 16 1 0
BITMAP
0202
0606
040C
0C0C
1818
3838
7070
F0F0
7070
7878
3838
1C1C
0C0C
0606
0202
0303
ENDCHAR
STARTCHAR 00AC
ENCODING 172
SWIDTH 553 0
DWIDTH 20 0
BBX 19 7 1 8
BITMAP
FFFFE0
000060
000060
000060
000060
000060
000060
ENDCHAR
STARTCHAR 00AD
ENCODING 173
SWIDTH 332 0
DWIDTH 12 0
BBX 10 2 1 7
BITMAP
FFC0
FFC0
ENDCHAR
STARTCHAR 00AE
ENCODING 174
SWIDTH 747 0
DWIDTH 27 0
BBX 25 25 1 -1
BITMAP
00FFC000
03007000
04001800
08000C00
13FC0600
21C78200
21C38100
41C1C100
41C1C080
C1C1C080
81C38080
81CF0080
81FC0080
81CE0080
C1C70080
41C30080
41C38100
61C1C100
21C0E200
13F0F600
18000400
0C001800
03007000
00FFC000
00080000
ENDCHAR
STARTCHAR 00AF
ENCODING 175
SWIDTH 498 0
DWIDTH 18 0
BBX 18 1 0 26
BITMAP
FFFFC0
ENDCHAR
STARTCHAR 00B0
ENCODING 176
SWIDTH 387 0
DWIDTH 14 0
BBX 11 10 2 14
BITMAP
3F00
6180
C0C0
8040
8060
8060
C040
C0C0
6180
3F00
ENDCHAR
STARTCHAR 00B1
ENCODING 177
SWIDTH 553 0
DWIDTH 20 0
BBX 19 20 0 2
BITMAP
004000
004000
004000
004000
004000
004000
004000
004000
004000
FFFFE0
FFFFE0
004000
004000
004000
004000
004000
004000
004000
FFFFE0
FFFFE0
ENDCHAR
STARTCHAR 00B2
ENCODING 178
SWIDTH 304 0
DWIDTH 11 0
BBX 9 12 1 12
BITMAP
7E00
C700
8300
0300
0300
0200
0600
0C00
1800
3000
4380
FF00
ENDCHAR
STARTCHAR 00B3
ENCODING 179
SWIDTH 304 0
DWIDTH 11 0
BBX 8 13 1 11
BITMAP
7E
C6
86
06
04
1E
0F
03
03
03
02
FC
20
ENDCHAR
STARTCHAR 00B4
ENCODING 180
SWIDTH 332 0
DWIDTH 12 0
BBX 6 7 4 18
BITMAP
3C
38
70
60
60
C0
80
ENDCHAR
STARTCHAR 00B5
ENCODING 181
SWIDTH 581 0
DWIDTH 21 0
BBX 17 24 2 -8
BITMAP
701C00
701C00
701C00
701C00
701C00
701C00
701C00
701C00
701C00
701C00
701C00
701C00
781C00
787C80
7FDF80
7F0F00
600000
600000
600000
600000
600000
F00000
E00000
600000
ENDCHAR
STARTCHAR 00B6
ENCODING 182
SWIDTH 443 0
DWIDTH 16 0
BBX 16 32 0 -8
BITMAP
07FF
3FC4
7FC4
7FC4
FFC4
FFC4
FFC4
FFC4
FFC4
FFC4
7FC4
3FC4
1FC4
00C4
00C4
00C4
00C4
00C4
00C4
00C4
00C4
00C4
00C4
00C4
00C4
00C4
00C4
00C4
00C4
00C4
00C4
00C4
ENDCHAR
STARTCHAR 00B7
ENCODING 183
SWIDTH 249 0
DWIDTH 9 0
BBX 3 4 3 10
BITMAP
E0
E0
E0
E0
ENDCHAR
STARTCHAR 00B8
ENCODING 184
SWIDTH 332 0
DWIDTH 12 0
BBX 6 7 3 -7
BITMAP
10
38
3C
1C
1C
18
F0
ENDCHAR
STARTCHAR 00B9
ENCODING 185
SWIDTH 304 0
DWIDTH 11 0
BBX 5 12 3 12
BITMAP
70
F0
70
70
70
70
70
70
70
70
70
F8
ENDCHAR
STARTCHAR 00BA
ENCODING 186
SWIDTH 304 0
DWIDTH 11 0
BBX 10 10 1 14
BITMAP
3F00
4380
C180
C1C0
C1C0
C1C0
C180
E180
6100
3E00
ENDCHAR
STARTCHAR 00BB
ENCODING 187
SWIDTH 498 0
DWIDTH 18 0
BBX 16 16 1 0
BITMAP
4040
6060
3030
3030
1818
1C1C
0E0E
0F0F
0F0E
0E0E
1C1C
1818
3030
6060
6040
C0C0
ENDCHAR
STARTCHAR 00BC
ENCODING 188
SWIDTH 747 0
DWIDTH 27 0
BBX 23 25 3 -1
BITMAP
700020
F00060
7000C0
700080
700180
700300
700200
700600
700C00
700800
701800
703000
88200C
00601C
00403C
00807C
0180DC
01009C
03011C
06021C
0407FE
0C001C
18001C
10001C
30001C
ENDCHAR
STARTCHAR 00BD
ENCODING 189
SWIDTH 747 0
DWIDTH 27 0
BBX 23 25 3 -1
BITMAP
700060
F00040
700080
700180
700100
700300
700600
700400
700C00
701800
701000
703000
8860F8
0041FC
00C20C
01820C
01000C
03000C
060018
040010
0C0020
080040
100082
3003FE
2003FC
ENDCHAR
STARTCHAR 00BE
ENCODING 190
SWIDTH 747 0
DWIDTH 27 0
BBX 25 25 1 -1
BITMAP
7E001800
C6001000
86003000
06006000
04004000
1E00C000
0F008000
03010000
03030000
03020000
02040000
FC0C0000
20080300
00180700
00300F00
00201B00
00603300
00C02300
00804300
01808300
0301FF80
02000300
06000300
0C000300
08000300
ENDCHAR
STARTCHAR 00BF
ENCODING 191
SWIDTH 443 0
DWIDTH 16 0
BBX 13 25 2 -8
BITMAP
0E00
0F00
0F00
0600
0000
0000
0400
0400
0400
0400
0C00
0800
1800
3000
7000
7000
E000
E030
E070
E078
E030
E030
7030
3C60
0F00
ENDCHAR
STARTCHAR 00C0
ENCODING 192
SWIDTH 720 0
DWIDTH 26 0
BBX 26 32 0 0
BITMAP
00780000
00380000
001C0000
000C0000
00040000
00060000
00000000
00000000
000C0000
000C0000
001C0000
001E0000
001E0000
003F0000
00270000
00678000
00478000
00C38000
00C3C000
0081C000
0181E000
0100E000
0300F000
03FFF000
06007000
06007800
04003800
0C003C00
08003C00
18001E00
38001E00
FF00FFC0
ENDCHAR
STARTCHAR 00C1
ENCODING 193
SWIDTH 720 0
DWIDTH 26 0
BBX 26 32 0 0
BITMAP
00078000
00070000
000E0000
000C0000
00080000
00100000
00000000
00000000
000C0000
000C0000
001C0000
001E0000
001E0000
003F0000
00270000
00678000
00478000
00C38000
00C3C000
0081C000
0181E000
0100E000
0300F000
03FFF000
06007000
06007800
04003800
0C003C00
08003C00
18001E00
38001E00
FF00FFC0
ENDCHAR
STARTCHAR 00C2
ENCODING 194
SWIDTH 720 0
DWIDTH 26 0
BBX 26 32 0 0
BITMAP
001E0000
001E0000
003F0000
00230000
00418000
0080C000
00000000
00000000
000C0000
000C0000
001C0000
001E0000
001E0000
003F0000
00270000
00678000
00478000
00C38000
00C3C000
0081C000
0181E000
0100E000
0300F000
03FFF000
06007000
06007800
04003800
0C003C00
08003C00
18001E00
38001E00
FF00FFC0
ENDCHAR
STARTCHAR 00C3
ENCODING 195
SWIDTH 720 0
DWIDTH 26 0
BBX 26 30 0 0
BITMAP
00782000
00FE4000
011FC000
01078000
00000000
00000000
000C0000
000C0000
001C0000
001E0000
001E0000
003F0000
00270000
00678000
00478000
00C38000
00C3C000
0081C000
0181E000
0100E000
0300F000
03FFF000
06007000
06007800
04003800
0C003C00
08003C00
18001E00
38001E00
FF00FFC0
ENDCHAR
STARTCHAR 00C4
ENCODING 196
SWIDTH 720 0
DWIDTH 26 0
BBX 26 30 0 0
BITMAP
00E18000
00F3C000
00F3C000
00618000
00000000
00000000
000C0000
000C0000
001C0000
001E0000
001E0000
003F0000
00270000
00678000
00478000
00C38000
00C3C000
0081C000
0181E000
0100E000
0300F000
03FFF000
06007000
06007800
04003800
0C003C00
08003C00
18001E00
38001E00
FF00FFC0
ENDCHAR
STARTCHAR 00C5
ENCODING 197
SWIDTH 720 0
DWIDTH 26 0
BBX 26 30 0 0
BITMAP
001E0000
00330000
00210000
00210000
00210000
003F0000
000C0000
000C0000
001C0000
001E0000
001E0000
003F0000
00270000
00678000
00478000
00C38000
00C3C000
0081C000
0181E000
0100E000
0300F000
03FFF000
06007000
06007800
04003800
0C003C00
08003C00
18001E00
38001E00
FF00FFC0
ENDCHAR
STARTCHAR 00C6
ENCODING 198
SWIDTH 886 0
DWIDTH 32 0
BBX 31 24 0 0
BITMAP
007FFFF8
000FC078
000DC008
000DC008
0009C008
0019C000
0011C000
0031C020
0061C020
0041C020
00C1C060
0081FFE0
0181C060
01FFC020
03FFC020
0201C020
0601C000
0401C000
0C01C002
0801C002
1801C004
3001C00C
3803E07C
FE1FFFF8
ENDCHAR
STARTCHAR 00C7
ENCODING 199
SWIDTH 664 0
DWIDTH 24 0
BBX 22 31 1 -7
BITMAP
00FF88
0380F8
070038
0E0018
1C0018
3C0008
380008
780000
780000
780000
F00000
F00000
F00000
F00000
F00000
780000
780000
780000
3C0004
3C0008
1E0010
0F0030
07C0C0
01FF80
001000
003000
003800
001C00
001C00
001800
00F000
ENDCHAR
STARTCHAR 00C8
ENCODING 200
SWIDTH 609 0
DWIDTH 22 0
BBX 20 32 1 0
BITMAP
03C000
01C000
00E000
006000
002000
001000
000000
000000
FFFFC0
1E03C0
1E0040
1E0040
1E0040
1E0000
1E0000
1E0000
1E0100
1E0100
1E0300
1FFF00
1E0300
1E0100
1E0100
1E0000
1E0000
1E0000
1E0010
1E0010
1E0020
1E0060
1E01E0
FFFFC0
ENDCHAR
STARTCHAR 00C9
ENCODING 201
SWIDTH 609 0
DWIDTH 22 0
BBX 20 32 1 0
BITMAP
003C00
003800
007000
006000
004000
004000
000000
000000
FFFFC0
1E03C0
1E0040
1E0040
1E0040
1E0000
1E0000
1E0000
1E0100
1E0100
1E0300
1FFF00
1E0300
1E0100
1E0100
1E0000
1E0000
1E0000
1E0010
1E0010
1E0020
1E0060
1E01E0
FFFFC0
ENDCHAR
STARTCHAR 00CA
ENCODING 202
SWIDTH 609 0
DWIDTH 22 0
BBX 20 32 1 0
BITMAP
00F000
00F000
01F800
019C00
030C00
040200
000000
000000
FFFFC0
1E03C0
1E0040
1E0040
1E0040
1E0000
1E0000
1E0000
1E0100
1E0100
1E0300
1FFF00
1E0300
1E0100
1E0100
1E0000
1E0000
1E0000
1E0010
1E0010
1E0020
1E0060
1E01E0
FFFFC0
ENDCHAR
STARTCHAR 00CB
ENCODING 203
SWIDTH 609 0
DWIDTH 22 0
BBX 20 30 1 0
BITMAP
030E00
079E00
079E00
030C00
000000
000000
FFFFC0
1E03C0
1E0040
1E0040
1E0040
1E0000
1E0000
1E0000
1E0100
1E0100
1E0300
1FFF00
1E0300
1E0100
1E0100
1E0000
1E0000
1E0000
1E0010
1E0010
1E0020
1E0060
1E01E0
FFFFC0
ENDCHAR
STARTCHAR 00CC
ENCODING 204
SWIDTH 332 0
DWIDTH 12 0
BBX 10 32 1 0
BITMAP
7800
3800
1C00
0C00
0400
0200
0000
0000
FFC0
1E00
1E00
1E00
1E00
1E00
1E00
1E00
1E00
1E00
1E00
1E00
1E00
1E00
1E00
1E00
1E00
1E00
1E00
1E00
1E00
1E00
1E00
FFC0
ENDCHAR
STARTCHAR 00CD
ENCODING 205
SWIDTH 332 0
DWIDTH 12 0
BBX 10 32 1 0
BITMAP
0780
0700
0E00
0C00
0800
1800
0000
0000
FFC0
1E00
1E00
1E00
1E00
1E00
1E00
1E00
1E00
1E00
1E00
1E00
1E00
1E00
1E00
1E00
1E00
1E00
1E00
1E00
1E00
1E00
1E00
FFC0
ENDCHAR
STARTCHAR 00CE
ENCODING 206
SWIDTH 332 0
DWIDTH 12 0
BBX 10 32 1 0
BITMAP
1E00
1E00
3F00
3300
4180
8040
0000
0000
FFC0
1E00
1E00
1E00
1E00
1E00
1E00
1E00
1E00
1E00
1E00
1E00
1E00
1E00
1E00
1E00
1E00
1E00
1E00
1E00
1E00
1E00
1E00
FFC0
ENDCHAR
STARTCHAR 00CF
ENCODING 207
SWIDTH 332 0
DWIDTH 12 0
BBX 10 30 1 0
BITMAP
E1C0
F3C0
F3C0
6180
0000
0000
FFC0
1E00
1E00
1E00
1E00
1E00
1E00
1E00
1E00
1E00
1E00
1E00
1E00
1E00
1E00
1E00
1E00
1E00
1E00
1E00
1E00
1E00
1E00
FFC0
ENDCHAR
STARTCHAR 00D0
ENCODING 208
SWIDTH 720 0
DWIDTH 26 0
BBX 24 24 1 0
BITMAP
FFFE00
1F1FC0
1C01E0
1C00F8
1C0078
1C003C
1C001E
1C001E
1C001E
1C001F
1C000F
FFF80F
1C000F
1C000F
1C000E
1C001E
1C001E
1C001C
1C003C
1C0078
1C00F0
1C01E0
1F07C0
FFFE00
ENDCHAR
STARTCHAR 00D1
ENCODING 209
SWIDTH 720 0
DWIDTH 26 0
BBX 26 30 0 0
BITMAP
00782000
00FE4000
011FC000
01078000
00000000
00000000
FC007FC0
3E000E00
0F000400
0F800400
0FC00400
0FC00400
0DE00400
0CF00400
0C780400
0C7C0400
0C3C0400
0C1E0400
0C0F0400
0C078400
0C07C400
0C03E400
0C01E400
0C00F400
0C007C00
0C003C00
0C003C00
0C001C00
0C000C00
7F800400
ENDCHAR
STARTCHAR 00D2
ENCODING 210
SWIDTH 720 0
DWIDTH 26 0
BBX 24 33 1 -1
BITMAP
00F000
007000
003800
001800
000800
000C00
000000
000000
01FF80
0381E0
0E0070
1E0078
1C003C
38001C
78001E
78001E
78001E
F0001F
F0000F
F0000F
F0000F
F0000F
F0000E
78001E
78001E
78001E
38001C
3C0038
1E0038
0E0070
0781C0
01FF80
001000
ENDCHAR
STARTCHAR 00D3
ENCODING 211
SWIDTH 720 0
DWIDTH 26 0
BBX 24 33 1 -1
BITMAP
000F00
000E00
001C00
001800
001000
002000
000000
000000
01FF80
0381E0
0E0070
1E0078
1C003C
38001C
78001E
78001E
78001E
F0001F
F0000F
F0000F
F0000F
F0000F
F0000E
78001E
78001E
78001E
38001C
3C0038
1E0038
0E0070
0781C0
01FF80
001000
ENDCHAR
STARTCHAR 00D4
ENCODING 212
SWIDTH 720 0
DWIDTH 26 0
BBX 24 33 1 -1
BITMAP
003C00
003C00
006E00
004600
008300
010100
000000
000000
01FF80
0381E0
0E0070
1E0078
1C003C
38001C
78001E
78001E
78001E
F0001F
F0000F
F0000F
F0000F
F0000F
F0000E
78001E
78001E
78001E
38001C
3C0038
1E0038
0E0070
0781C0
01FF80
001000
ENDCHAR
STARTCHAR 00D5
ENCODING 213
SWIDTH 720 0
DWIDTH 26 0
BBX 24 31 1 -1
BITMAP
01F040
01FC80
023F80
020F00
000000
000000
01FF80
0381E0
0E0070
1E0078
1C003C
38001C
78001E
78001E
78001E
F0001F
F0000F
F0000F
F0000F
F0000F
F0000E
78001E
78001E
78001E
38001C
3C0038
1E0038
0E0070
0781C0
01FF80
001000
ENDCHAR
STARTCHAR 00D6
ENCODING 214
SWIDTH 720 0
DWIDTH 26 0
BBX 24 31 1 -1
BITMAP
01C300
01E780
01E780
00C300
000000
000000
01FF80
0381E0
0E0070
1E0078
1C003C
38001C
78001E
78001E
78001E
F0001F
F0000F
F0000F
F0000F
F0000F
F0000E
78001E
78001E
78001E
38001C
3C0038
1E0038
0E0070
0781C0
01FF80
001000
ENDCHAR
STARTCHAR 00D7
ENCODING 215
SWIDTH 553 0
DWIDTH 20 0
BBX 14 14 3 5
BITMAP
C004
600C
3018
1830
0C60
06C0
0380
0380
06C0
0C60
1830
3018
600C
C004
ENDCHAR
STARTCHAR 00D8
ENCODING 216
SWIDTH 720 0
DWIDTH 26 0
BBX 24 26 1 -1
BITMAP
000004
01FF84
0381C8
0E00F8
1E0078
1C0078
38007C
78009E
78019E
78031E
F0061F
F00C0F
F0080F
F0180F
F0300F
F8600F
78C01E
78801E
79801E
3B001C
3E0038
1E0038
0E0070
1781C0
31FF80
200800
ENDCHAR
STARTCHAR 00D9
ENCODING 217
SWIDTH 720 0
DWIDTH 26 0
BBX 26 33 0 -1
BITMAP
003C0000
001C0000
000E0000
00060000
00060000
00020000
00000000
00000000
FFE07FC0
1F000E00
0E000400
0E000400
0E000400
0E000400
0E000400
0E000400
0E000400
0E000400
0E000400
0E000400
0E000400
0E000400
0E000400
0E000400
0E000400
0E000C00
0E000C00
0F000C00
07001800
07803800
03C07000
00FFC000
000C0000
ENDCHAR
STARTCHAR 00DA
ENCODING 218
SWIDTH 720 0
DWIDTH 26 0
BBX 26 33 0 -1
BITMAP
00078000
00070000
000E0000
000C0000
00080000
00100000
00000000
00000000
FFE07FC0
1F000E00
0E000400
0E000400
0E000400
0E000400
0E000400
0E000400
0E000400
0E000400
0E000400
0E000400
0E000400
0E000400
0E000400
0E000400
0E000400
0E000C00
0E000C00
0F000C00
07001800
07803800
03C07000
00FFC000
000C0000
ENDCHAR
STARTCHAR 00DB
ENCODING 219
SWIDTH 720 0
DWIDTH 26 0
BBX 26 33 0 -1
BITMAP
000F0000
000F0000
001F8000
00318000
0020C000
00404000
00000000
00000000
FFE07FC0
1F000E00
0E000400
0E000400
0E000400
0E000400
0E000400
0E000400
0E000400
0E000400
0E000400
0E000400
0E000400
0E000400
0E000400
0E000400
0E000400
0E000C00
0E000C00
0F000C00
07001800
07803800
03C07000
00FFC000
000C0000
ENDCHAR
STARTCHAR 00DC
ENCODING 220
SWIDTH 720 0
DWIDTH 26 0
BBX 26 31 0 -1
BITMAP
0070C000
0079E000
0071E000
0030C000
00000000
00000000
FFE07FC0
1F000E00
0E000400
0E000400
0E000400
0E000400
0E000400
0E000400
0E000400
0E000400
0E000400
0E000400
0E000400
0E000400
0E000400
0E000400
0E000400
0E000C00
0E000C00
0F000C00
07001800
07803800
03C07000
00FFC000
000C0000
ENDCHAR
STARTCHAR 00DD
ENCODING 221
SWIDTH 720 0
DWIDTH 26 0
BBX 26 32 0 0
BITMAP
00038000
00078000
00070000
00060000
000C0000
00080000
00000000
00000000
FFE07FC0
3F001E00
1F000C00
0F001800
07801800
07803000
03C02000
01E06000
01E0C000
00F08000
00798000
007B0000
003E0000
001E0000
001E0000
001E0000
001E0000
001E0000
001E0000
001E0000
001E0000
001E0000
001E0000
00FFC000
ENDCHAR
STARTCHAR 00DE
ENCODING 222
SWIDTH 553 0
DWIDTH 20 0
BBX 18 24 1 0
BITMAP
FFC000
3E0000
1E0000
1C0000
1C0000
1C0000
1FFC00
1C1F00
1C0F80
1C0780
1C07C0
1C03C0
1C03C0
1C07C0
1C0780
1C0780
1C1F00
1FFC00
1FE000
1C0000
1C0000
1E0000
1E0000
FFC000
ENDCHAR
STARTCHAR 00DF
ENCODING 223
SWIDTH 498 0
DWIDTH 18 0
BBX 16 25 1 0
BITMAP
07E0
0E38
1C1C
181C
381C
381C
381C
381C
381C
3838
38E0
38F8
381C
381E
380E
380F
3807
3807
3807
3807
3806
3986
398E
398C
F8F8
ENDCHAR
STARTCHAR 00E0
ENCODING 224
SWIDTH 443 0
DWIDTH 16 0
BBX 15 25 1 0
BITMAP
0F00
0F00
0700
0300
0180
0080
0000
0000
0300
1DE0
3070
7070
7070
7070
0070
03F0
0E70
3870
7070
6070
E070
E070
F0F2
7F7C
3E38
ENDCHAR
STARTCHAR 00E1
ENCODING 225
SWIDTH 443 0
DWIDTH 16 0
BBX 15 25 1 0
BITMAP
01E0
01C0
0380
0300
0300
0200
0400
0000
0300
1DE0
3070
7070
7070
7070
0070
03F0
0E70
3870
7070
6070
E070
E070
F0F2
7F7C
3E38
ENDCHAR
STARTCHAR 00E2
ENCODING 226
SWIDTH 443 0
DWIDTH 16 0
BBX 15 24 1 0
BITMAP
0780
0FC0
0CC0
1860
1030
0000
0000
0300
1DE0
3070
7070
7070
7070
0070
03F0
0E70
3870
7070
6070
E070
E070
F0F2
7F7C
3E38
ENDCHAR
STARTCHAR 00E3
ENCODING 227
SWIDTH 443 0
DWIDTH 16 0
BBX 15 24 1 0
BITMAP
1C08
3F08
27D0
43F0
40C0
0000
0000
0300
1DE0
3070
7070
7070
7070
0070
03F0
0E70
3870
7070
6070
E070
E070
F0F2
7F7C
3E38
ENDCHAR
STARTCHAR 00E4
ENCODING 228
SWIDTH 443 0
DWIDTH 16 0
BBX 15 24 1 0
BITMAP
0020
3CF0
3CF0
3870
0000
0000
0000
0300
1DE0
3070
7070
7070
7070
0070
03F0
0E70
3870
7070
6070
E070
E070
F0F2
7F7C
3E38
ENDCHAR
STARTCHAR 00E5
ENCODING 229
SWIDTH 443 0
DWIDTH 16 0
BBX 15 25 1 0
BITMAP
0780
0CC0
0840
0840
0840
07C0
0300
0000
0300
1DE0
3070
7070
7070
7070
0070
03F0
0E70
3870
7070
6070
E070
E070
F0F2
7F7C
3E38
ENDCHAR
STARTCHAR 00E6
ENCODING 230
SWIDTH 664 0
DWIDTH 24 0
BBX 22 17 1 0
BITMAP
078180
19E7F0
30F838
707038
70703C
70701C
007FFC
03F000
0E7000
187000
707000
607004
E07804
E03808
F07E38
7D9FF0
3F0FE0
ENDCHAR
STARTCHAR 00E7
ENCODING 231
SWIDTH 443 0
DWIDTH 16 0
BBX 14 24 1 -7
BITMAP
0180
0FF0
1878
3038
7038
6010
6000
E000
E000
E000
F000
F004
7808
7808
3E30
1FF0
0FC0
0100
0300
0380
01C0
01C0
0180
0F00
ENDCHAR
STARTCHAR 00E8
ENCODING 232
SWIDTH 443 0
DWIDTH 16 0
BBX 14 25 1 0
BITMAP
0F00
0700
0380
0180
0180
00C0
0040
0000
0180
0FF0
1078
3038
603C
603C
7FFC
E000
E000
E000
E000
7004
7804
7C08
3F38
1FF0
0FE0
ENDCHAR
STARTCHAR 00E9
ENCODING 233
SWIDTH 443 0
DWIDTH 16 0
BBX 14 25 1 0
BITMAP
01E0
01C0
01C0
0380
0300
0200
0400
0000
0180
0FF0
1078
3038
603C
603C
7FFC
E000
E000
E000
E000
7004
7804
7C08
3F38
1FF0
0FE0
ENDCHAR
STARTCHAR 00EA
ENCODING 234
SWIDTH 443 0
DWIDTH 16 0
BBX 14 24 1 0
BITMAP
03C0
07C0
0CE0
0830
1010
0000
0000
0180
0FF0
1078
3038
603C
603C
7FFC
E000
E000
E000
E000
7004
7804
7C08
3F38
1FF0
0FE0
ENDCHAR
STARTCHAR 00EB
ENCODING 235
SWIDTH 443 0
DWIDTH 16 0
BBX 14 24 1 0
BITMAP
0800
1C78
1E78
1C70
0000
0000
0000
0180
0FF0
1078
3038
603C
603C
7FFC
E000
E000
E000
E000
7004
7804
7C08
3F38
1FF0
0FE0
ENDCHAR
STARTCHAR 00EC
ENCODING 236
SWIDTH 276 0
DWIDTH 10 0
BBX 8 25 1 0
BITMAP
F0
78
38
18
0C
04
04
00
04
3C
FC
1C
1C
1C
1C
1C
1C
1C
1C
1C
1C
1C
1C
3C
FF
ENDCHAR
STARTCHAR 00ED
ENCODING 237
SWIDTH 276 0
DWIDTH 10 0
BBX 8 25 1 0
BITMAP
0F
0E
1C
18
10
20
20
00
04
3C
FC
1C
1C
1C
1C
1C
1C
1C
1C
1C
1C
1C
1C
3C
FF
ENDCHAR
STARTCHAR 00EE
ENCODING 238
SWIDTH 276 0
DWIDTH 10 0
BBX 9 24 1 0
BITMAP
3C00
7E00
6600
C300
8180
0000
0000
0400
3C00
FC00
1C00
1C00
1C00
1C00
1C00
1C00
1C00
1C00
1C00
1C00
1C00
1C00
3C00
FF00
ENDCHAR
STARTCHAR 00EF
ENCODING 239
SWIDTH 276 0
DWIDTH 10 0
BBX 10 24 0 0
BITMAP
0080
F3C0
F3C0
E1C0
0000
0000
0000
0200
1E00
7E00
0E00
0E00
0E00
0E00
0E00
0E00
0E00
0E00
0E00
0E00
0E00
0E00
1E00
7F80
ENDCHAR
STARTCHAR 00F0
ENCODING 240
SWIDTH 498 0
DWIDTH 18 0
BBX 16 25 1 0
BITMAP
1808
0C30
03E0
0380
07C0
18E0
0070
0078
0038
0FFC
183C
301E
701E
700E
700F
E00F
F00F
F00F
F00F
F00E
700E
780E
380C
1C18
0FF0
ENDCHAR
STARTCHAR 00F1
ENCODING 241
SWIDTH 498 0
DWIDTH 18 0
BBX 18 24 0 0
BITMAP
070200
0FC200
09F400
10FC00
103000
000000
000000
041000
3CFC00
FDFE00
1E0E00
1C0E00
1C0E00
1C0600
1C0600
1C0600
1C0600
1C0600
1C0600
1C0600
1C0600
1C0700
1C0F00
FF3FC0
ENDCHAR
STARTCHAR 00F2
ENCODING 242
SWIDTH 498 0
DWIDTH 18 0
BBX 16 25 1 0
BITMAP
0F00
0780
0380
0180
0080
0040
0040
0000
0180
0FF0
1838
301C
701E
700E
700F
E00F
F00F
F007
F007
700E
700E
780E
380C
1C18
0FF0
ENDCHAR
STARTCHAR 00F3
ENCODING 243
SWIDTH 498 0
DWIDTH 18 0
BBX 16 25 1 0
BITMAP
00F0
01E0
01C0
0180
0100
0200
0200
0000
0180
0FF0
1838
301C
701E
700E
700F
E00F
F00F
F007
F007
700E
700E
780E
380C
1C18
0FF0
ENDCHAR
STARTCHAR 00F4
ENCODING 244
SWIDTH 498 0
DWIDTH 18 0
BBX 16 24 1 0
BITMAP
03C0
07E0
0670
0C30
0818
0000
0000
0180
0FF0
1838
301C
701E
700E
700F
E00F
F00F
F007
F007
700E
700E
780E
380C
1C18
0FF0
ENDCHAR
STARTCHAR 00F5
ENCODING 245
SWIDTH 498 0
DWIDTH 18 0
BBX 16 24 1 0
BITMAP
0E04
1F84
17E8
21F8
2060
0000
0000
0180
0FF0
1838
301C
701E
700E
700F
E00F
F00F
F007
F007
700E
700E
780E
380C
1C18
0FF0
ENDCHAR
STARTCHAR 00F6
ENCODING 246
SWIDTH 498 0
DWIDTH 18 0
BBX 16 23 1 1
BITMAP
1E78
1E78
1C38
0000
0000
0000
0180
0FF0
1838
301C
701E
700E
700F
E00F
F00F
F007
F007
700E
700E
780E
380C
1C18
0FF0
ENDCHAR
STARTCHAR 00F7
ENCODING 247
SWIDTH 553 0
DWIDTH 20 0
BBX 19 14 0 5
BITMAP
006000
00E000
006000
000000
000000
000000
FFFFE0
FFFFE0
000000
000000
000000
006000
00E000
006000
ENDCHAR
STARTCHAR 00F8
ENCODING 248
SWIDTH 498 0
DWIDTH 18 0
BBX 16 18 1 -1
BITMAP
0181
0FF2
183E
301C
301E
703E
706F
F04F
F087
F107
F207
7606
7C0E
780E
3C0C
7C18
4FF0
8000
ENDCHAR
STARTCHAR 00F9
ENCODING 249
SWIDTH 498 0
DWIDTH 18 0
BBX 17 25 1 0
BITMAP
0F0000
078000
038000
018000
00C000
004000
000000
000000
000000
F87C00
381C00
381C00
381C00
381C00
381C00
381C00
381C00
381C00
381C00
381C00
381C00
381C00
383E00
3FDF80
1F9E00
ENDCHAR
STARTCHAR 00FA
ENCODING 250
SWIDTH 498 0
DWIDTH 18 0
BBX 17 25 1 0
BITMAP
01E000
01C000
01C000
038000
030000
020000
000000
000000
000000
F87C00
381C00
381C00
381C00
381C00
381C00
381C00
381C00
381C00
381C00
381C00
381C00
381C00
383E00
3FDF80
1F9E00
ENDCHAR
STARTCHAR 00FB
ENCODING 251
SWIDTH 498 0
DWIDTH 18 0
BBX 17 24 1 0
BITMAP
03C000
07E000
066000
0C3000
081800
000000
000000
000000
F87C00
381C00
381C00
381C00
381C00
381C00
381C00
381C00
381C00
381C00
381C00
381C00
381C00
383E00
3FDF80
1F9E00
ENDCHAR
STARTCHAR 00FC
ENCODING 252
SWIDTH 498 0
DWIDTH 18 0
BBX 17 23 1 1
BITMAP
1E7800
1E7800
1C3800
000000
000000
000000
000000
F87C00
381C00
381C00
381C00
381C00
381C00
381C00
381C00
381C00
381C00
381C00
381C00
381C00
383E00
3FDF80
1F9E00
ENDCHAR
STARTCHAR 00FD
ENCODING 253
SWIDTH 498 0
DWIDTH 18 0
BBX 18 33 0 -8
BITMAP
007800
007000
00E000
00C000
008000
018000
010000
000000
000000
FF07C0
3C0300
1C0300
1C0200
0E0600
0E0400
070C00
070C00
038800
039800
01D000
01F000
01F000
00E000
00E000
004000
00C000
00C000
008000
018000
330000
7E0000
7E0000
380000
ENDCHAR
STARTCHAR 00FE
ENCODING 254
SWIDTH 498 0
DWIDTH 18 0
BBX 17 33 0 -8
BITMAP
0C0000
7C0000
BC0000
1C0000
1C0000
1C0000
1C0000
1C0000
1C2000
1CFC00
1DFE00
1E1F00
1C0F00
1C0780
1C0780
1C0780
1C0380
1C0380
1C0380
1C0300
1C0700
1C0700
1C0600
1E0C00
1FF800
1C0000
1C0000
1C0000
1C0000
1C0000
1C0000
3C0000
FF0000
ENDCHAR
STARTCHAR 00FF
ENCODING 255
SWIDTH 498 0
DWIDTH 18 0
BBX 18 32 0 -8
BITMAP
020800
071E00
071E00
071C00
000000
000000
000000
000000
FF07C0
3C0300
1C0300
1C0200
0E0600
0E0400
070C00
070C00
038800
039800
01D000
01F000
01F000
00E000
00E000
004000
00C000
00C000
008000
018000
330000
7E0000
7E0000
380000
ENDCHAR
STARTCHAR 0100
ENCODING 256
SWIDTH 720 0
DWIDTH 26 0
BBX 26 29 0 0
BITMAP
01FFE000
01FFE000
00000000
00000000
00000000
000C0000
000C0000
001C0000
001E0000
001E0000
003F0000
00270000
00678000
00478000
00C38000
00C3C000
0081C000
0181E000
0100E000
0300F000
03FFF000
06007000
06007800
04003800
0C003C00
08003C00
18001E00
38001E00
FF00FFC0
ENDCHAR
STARTCHAR 0101
ENCODING 257
SWIDTH 443 0
DWIDTH 16 0
BBX 15 22 1 0
BITMAP
7FF8
7FF8
0000
0000
0000
0300
1DE0
3070
7070
7070
7070
0070
03F0
0E70
3870
7070
6070
E070
E070
F0F2
7F7C
3E38
ENDCHAR
STARTCHAR 0102
ENCODING 258
SWIDTH 720 0
DWIDTH 26 0
BBX 26 31 0 0
BITMAP
00804000
00C0C000
007F8000
003F0000
001E0000
00000000
00000000
000C0000
000C0000
001C0000
001E0000
001E0000
003F0000
00270000
00678000
00478000
00C38000
00C3C000
0081C000
0181E000
0100E000
0300F000
03FFF000
06007000
06007800
04003800
0C003C00
08003C00
18001E00
38001E00
FF00FFC0
ENDCHAR
STARTCHAR 0103
ENCODING 259
SWIDTH 443 0
DWIDTH 16 0
BBX 15 24 1 0
BITMAP
2010
3030
1FE0
1FE0
0780
0000
0000
0300
1DE0
3070
7070
7070
7070
0070
03F0
0E70
3870
7070
6070
E070
E070
F0F2
7F7C
3E38
ENDCHAR
STARTCHAR 0104
ENCODING 260
SWIDTH 720 0
DWIDTH 26 0
BBX 26 30 0 -6
BITMAP
000C0000
000C0000
001C0000
001E0000
001E0000
003F0000
00270000
00678000
00478000
00C38000
00C3C000
0081C000
0181E000
0100E000
0300F000
03FFF000
06007000
06007800
04003800
0C003C00
08003C00
18001E00
38001E00
FF00FFC0
00001000
00003000
00003000
00003800
00003C00
00001FC0
ENDCHAR
STARTCHAR 0105
ENCODING 261
SWIDTH 443 0
DWIDTH 16 0
BBX 17 23 1 -6
BITMAP
030000
1DE000
307000
707000
707000
707000
007000
03F000
0E7000
387000
707000
607000
E07000
E07000
F0F200
7F7C00
3E3800
002000
006000
006000
007000
007800
003F80
ENDCHAR
STARTCHAR 0106
ENCODING 262
SWIDTH 664 0
DWIDTH 24 0
BBX 22 33 1 -1
BITMAP
000F00
000E00
000C00
001800
001800
001000
000000
000000
00FF88
0380F8
070038
0E0018
1C0018
3C0008
380008
780000
780000
780000
F00000
F00000
F00000
F00000
F00000
780000
780000
780000
3C0004
3C0008
1E0010
0F0030
07C0C0
01FF80
001000
ENDCHAR
STARTCHAR 0107
ENCODING 263
SWIDTH 443 0
DWIDTH 16 0
BBX 14 25 1 0
BITMAP
00F0
01E0
01C0
0180
0300
0200
0000
0000
0180
0FF0
1878
3038
7038
6010
6000
E000
E000
E000
F000
F004
7808
7808
3E30
1FF0
0FC0
ENDCHAR
STARTCHAR 0108
ENCODING 264
SWIDTH 664 0
DWIDTH 24 0
BBX 22 33 1 -1
BITMAP
003C00
007C00
00EE00
00C600
010300
000000
000000
000000
00FF88
0380F8
070038
0E0018
1C0018
3C0008
380008
780000
780000
780000
F00000
F00000
F00000
F00000
F00000
780000
780000
780000
3C0004
3C0008
1E0010
0F0030
07C0C0
01FF80
001000
ENDCHAR
STARTCHAR 0109
ENCODING 265
SWIDTH 443 0
DWIDTH 16 0
BBX 14 24 1 0
BITMAP
0780
0FC0
0CC0
1860
1020
0010
0000
0180
0FF0
1878
3038
7038
6010
6000
E000
E000
E000
F000
F004
7808
7808
3E30
1FF0
0FC0
ENDCHAR
STARTCHAR 010A
ENCODING 266
SWIDTH 664 0
DWIDTH 24 0
BBX 22 31 1 -1
BITMAP
003800
003C00
003C00
001800
000000
000000
00FF88
0380F8
070038
0E0018
1C0018
3C0008
380008
780000
780000
780000
F00000
F00000
F00000
F00000
F00000
780000
780000
780000
3C0004
3C0008
1E0010
0F0030
07C0C0
01FF80
001000
ENDCHAR
STARTCHAR 010B
ENCODING 267
SWIDTH 443 0
DWIDTH 16 0
BBX 14 23 1 1
BITMAP
0780
0780
0780
0000
0000
0000
0180
0FF0
1878
3038
7038
6010
6000
E000
E000
E000
F000
F004
7808
7808
3E30
1FF0
0FC0
ENDCHAR
STARTCHAR 010C
ENCODING 268
SWIDTH 664 0
DWIDTH 24 0
BBX 22 33 1 -1
BITMAP
010000
008080
006300
007700
003E00
003C00
000000
000000
00FF88
0380F8
070038
0E0018
1C0018
3C0008
380008
780000
780000
780000
F00000
F00000
F00000
F00000
F00000
780000
780000
780000
3C0004
3C0008
1E0010
0F0030
07C0C0
01FF80
001000
ENDCHAR
STARTCHAR 010D
ENCODING 269
SWIDTH 443 0
DWIDTH 16 0
BBX 14 24 1 0
BITMAP
1010
0C30
0E60
07C0
03C0
0000
0000
0180
0FF0
1878
3038
7038
6010
6000
E000
E000
E000
F000
F004
7808
7808
3E30
1FF0
0FC0
ENDCHAR
STARTCHAR 010E
ENCODING 270
SWIDTH 720 0
DWIDTH 26 0
BBX 24 32 1 0
BITMAP
020100
010200
018600
00EC00
00FC00
007800
000000
000000
FFFE00
1F9FC0
1C01F0
1C00F8
1C0078
1C003C
1C001E
1C001E
1C001E
1C001F
1C000F
1C000F
1C000F
1C000F
1C000E
1C001E
1C001E
1C001E
1C003C
1C0078
1C00F0
1C01E0
1F07C0
FFFE00
ENDCHAR
STARTCHAR 010F
ENCODING 271
SWIDTH 636 0
DWIDTH 23 0
BBX 22 25 1 0
BITMAP
000C78
003C7C
005C7C
001C7C
000C0C
000C0C
000C08
000C10
018C60
0FEC00
183C00
381C00
301C00
700C00
700C00
E00C00
E00C00
F00C00
F00C00
F00C00
700C00
780E00
3C1E00
3F6F80
0FCE00
ENDCHAR
STARTCHAR 0110
ENCODING 272
SWIDTH 720 0
DWIDTH 26 0
BBX 24 24 1 0
BITMAP
FFFE00
1F1FC0
1C01E0
1C00F8
1C0078
1C003C
1C001E
1C001E
1C001E
1C001F
1C000F
FFF80F
1C000F
1C000F
1C000E
1C001E
1C001E
1C001C
1C003C
1C0078
1C00F0
1C01E0
1F07C0
FFFE00
ENDCHAR
STARTCHAR 0111
ENCODING 273
SWIDTH 498 0
DWIDTH 18 0
BBX 17 25 1 0
BITMAP
000C00
007C00
003C00
001C00
001C00
03FF80
001C00
001C00
031C00
0EFC00
183C00
303C00
701C00
601C00
E01C00
E01C00
E01C00
E01C00
E01C00
E01C00
F01C00
F01C00
783C00
3FFF80
1F9C00
ENDCHAR
STARTCHAR 0112
ENCODING 274
SWIDTH 609 0
DWIDTH 22 0
BBX 20 29 1 0
BITMAP
0FFF00
0FFF00
000000
000000
000000
FFFFC0
1E03C0
1E0040
1E0040
1E0040
1E0000
1E0000
1E0000
1E0100
1E0100
1E0300
1FFF00
1E0300
1E0100
1E0100
1E0000
1E0000
1E0000
1E0010
1E0010
1E0020
1E0060
1E01E0
FFFFC0
ENDCHAR
STARTCHAR 0113
ENCODING 275
SWIDTH 443 0
DWIDTH 16 0
BBX 14 22 1 0
BITMAP
7FF8
7FF8
0000
0000
0000
0180
0FF0
1078
3038
603C
603C
7FFC
E000
E000
E000
E000
7004
7804
7C08
3F38
1FF0
0FE0
ENDCHAR
STARTCHAR 0114
ENCODING 276
SWIDTH 609 0
DWIDTH 22 0
BBX 20 31 1 0
BITMAP
040200
060600
03FC00
01F800
006000
000000
000000
FFFFC0
1E03C0
1E0040
1E0040
1E0040
1E0000
1E0000
1E0000
1E0100
1E0100
1E0300
1FFF00
1E0300
1E0100
1E0100
1E0000
1E0000
1E0000
1E0010
1E0010
1E0020
1E0060
1E01E0
FFFFC0
ENDCHAR
STARTCHAR 0115
ENCODING 277
SWIDTH 443 0
DWIDTH 16 0
BBX 14 24 1 0
BITMAP
2010
3010
1FE0
0FE0
0780
0000
0000
0180
0FF0
1078
3038
603C
603C
7FFC
E000
E000
E000
E000
7004
7804
7C08
3F38
1FF0
0FE0
ENDCHAR
STARTCHAR 0116
ENCODING 278
SWIDTH 609 0
DWIDTH 22 0
BBX 20 30 1 0
BITMAP
006000
00F000
00F000
006000
000000
000000
FFFFC0
1E03C0
1E0040
1E0040
1E0040
1E0000
1E0000
1E0000
1E0100
1E0100
1E0300
1FFF00
1E0300
1E0100
1E0100
1E0000
1E0000
1E0000
1E0010
1E0010
1E0020
1E0060
1E01E0
FFFFC0
ENDCHAR
STARTCHAR 0117
ENCODING 279
SWIDTH 443 0
DWIDTH 16 0
BBX 14 23 1 1
BITMAP
0780
0780
0780
0000
0000
0000
0180
0FF0
1078
3038
603C
603C
7FFC
E000
E000
E000
E000
7004
7804
7C08
3F38
1FF0
0FE0
ENDCHAR
STARTCHAR 0118
ENCODING 280
SWIDTH 609 0
DWIDTH 22 0
BBX 20 30 1 -6
BITMAP
FFFFC0
1E03C0
1E0040
1E0040
1E0040
1E0000
1E0000
1E0000
1E0100
1E0100
1E0300
1FFF00
1E0300
1E0100
1E0100
1E0000
1E0000
1E0000
1E0010
1E0010
1E0020
1E0060
1E01E0
FFFFC0
000400
000C00
000C00
000C00
000F00
0007F0
ENDCHAR
STARTCHAR 0119
ENCODING 281
SWIDTH 443 0
DWIDTH 16 0
BBX 15 23 1 -6
BITMAP
0180
0FF0
1078
3038
603C
603C
7FFC
E000
E000
E000
E000
7004
7804
7C08
3F38
1FF0
0FE0
00C0
0080
00C0
00C0
00F0
007E
ENDCHAR
STARTCHAR 011A
ENCODING 282
SWIDTH 609 0
DWIDTH 22 0
BBX 20 32 1 0
BITMAP
040200
020400
030C00
01D800
01F800
00F000
000000
000000
FFFFC0
1E03C0
1E0040
1E0040
1E0040
1E0000
1E0000
1E0000
1E0100
1E0100
1E0300
1FFF00
1E0300
1E0100
1E0100
1E0000
1E0000
1E0000
1E0010
1E0010
1E0020
1E0060
1E01E0
FFFFC0
ENDCHAR
STARTCHAR 011B
ENCODING 283
SWIDTH 443 0
DWIDTH 16 0
BBX 14 24 1 0
BITMAP
1010
0C20
0E60
07C0
07C0
0000
0000
0180
0FF0
1078
3038
603C
603C
7FFC
E000
E000
E000
E000
7004
7804
7C08
3F38
1FF0
0FE0
ENDCHAR
STARTCHAR 011C
ENCODING 284
SWIDTH 720 0
DWIDTH 26 0
BBX 25 33 1 -1
BITMAP
001E0000
003E0000
00770000
00630000
00818000
00000000
00000000
00000000
00FFC800
03C07800
07003800
0E001C00
1C000C00
3C000400
38000400
78000000
78000000
70000000
F0000000
F001FF80
F0003C00
F0003C00
F8003C00
78003C00
78003C00
7C003C00
3C003C00
1E003C00
1E003C00
0F003C00
03C03C00
00FFF000
00040000
ENDCHAR
STARTCHAR 011D
ENCODING 285
SWIDTH 498 0
DWIDTH 18 0
BBX 16 32 1 -8
BITMAP
03C0
07E0
0660
0C30
0810
0008
0000
0380
0C70
183F
3838
381C
701C
781C
381C
381C
3838
1E30
0BC0
1000
3000
3C00
3FFE
1FFF
101F
2001
6001
E003
F006
7E1C
3FF8
07C0
ENDCHAR
STARTCHAR 011E
ENCODING 286
SWIDTH 720 0
DWIDTH 26 0
BBX 25 32 1 -1
BITMAP
00800000
00404000
007FC000
003F8000
001E0000
00000000
00000000
00FFC800
03C07800
07003800
0E001C00
1C000C00
3C000400
38000400
78000000
78000000
70000000
F0000000
F001FF80
F0003C00
F0003C00
F8003C00
78003C00
78003C00
7C003C00
3C003C00
1E003C00
1E003C00
0F003C00
03C03C00
00FFF000
00040000
ENDCHAR
STARTCHAR 011F
ENCODING 287
SWIDTH 498 0
DWIDTH 18 0
BBX 16 32 1 -8
BITMAP
1000
1808
0FF8
07F0
03C0
0000
0000
0380
0C70
183F
3838
381C
701C
781C
381C
381C
3838
1E30
0BC0
1000
3000
3C00
3FFE
1FFF
101F
2001
6001
E003
F006
7E1C
3FF8
07C0
ENDCHAR
STARTCHAR 0120
ENCODING 288
SWIDTH 720 0
DWIDTH 26 0
BBX 25 31 1 -1
BITMAP
001C0000
003C0000
001C0000
00080000
00000000
00000000
00FFC800
03C07800
07003800
0E001C00
1C000C00
3C000400
38000400
78000000
78000000
70000000
F0000000
F001FF80
F0003C00
F0003C00
F8003C00
78003C00
78003C00
7C003C00
3C003C00
1E003C00
1E003C00
0F003C00
03C03C00
00FFF000
00040000
ENDCHAR
STARTCHAR 0121
ENCODING 289
SWIDTH 498 0
DWIDTH 18 0
BBX 16 31 1 -7
BITMAP
03C0
03C0
01C0
0000
0000
0000
0380
0C70
183F
3838
381C
701C
781C
381C
381C
3838
1E30
0BC0
1000
3000
3C00
3FFE
1FFF
101F
2001
6001
E003
F006
7E1C
3FF8
07C0
ENDCHAR
STARTCHAR 0122
ENCODING 290
SWIDTH 720 0
DWIDTH 26 0
BBX 25 31 1 -7
BITMAP
00FFC800
03C07800
07003800
0E001C00
1C000C00
3C000400
38000400
78000000
78000000
70000000
F0000000
F001FF80
F0003C00
F0003C00
F8003C00
78003C00
78003C00
7C003C00
3C003C00
1E003C00
1E003C00
0F003C00
03C03C00
00FFF000
000C0000
001C0000
001E0000
000E0000
000E0000
000C0000
00780000
ENDCHAR
STARTCHAR 0123
ENCODING 291
SWIDTH 498 0
DWIDTH 18 0
BBX 16 34 1 -8
BITMAP
01C0
0300
0200
03C0
03C0
01C0
0000
0000
0000
0380
0C70
183F
3838
381C
701C
781C
381C
381C
3838
1E30
0BC0
1000
3000
3C00
3FFE
1FFF
101F
2001
6001
E003
F006
7E1C
3FF8
07C0
ENDCHAR
STARTCHAR 0124
ENCODING 292
SWIDTH 720 0
DWIDTH 26 0
BBX 24 32 1 0
BITMAP
003C00
007E00
006E00
00C300
008100
010080
000000
000000
FFC3FF
1E0078
1E0078
1C0038
1C0038
1C0038
1C0038
1C0038
1C0038
1C0038
1C0038
1FFFF8
1C0038
1C0038
1C0038
1C0038
1C0038
1C0038
1C0038
1C0038
1C0038
1E0078
1E0078
FFC3FF
ENDCHAR
STARTCHAR 0125
ENCODING 293
SWIDTH 498 0
DWIDTH 18 0
BBX 18 32 0 0
BITMAP
01E000
03F000
037000
061800
040800
080400
000000
0C0000
7C0000
BC0000
1C0000
1C0000
1C0000
1C0000
1C0000
1C3000
1CFC00
1DFE00
1E0E00
1C0E00
1C0E00
1C0E00
1C0E00
1C0E00
1C0E00
1C0E00
1C0E00
1C0E00
1C0E00
1C0F00
1C0F00
FF3FC0
ENDCHAR
STARTCHAR 0126
ENCODING 294
SWIDTH 720 0
DWIDTH 26 0
BBX 24 24 1 0
BITMAP
FFC3FF
3E0078
1E0078
1C0038
FFFFFF
1C0038
1C0038
1C0038
1C0038
1C0038
1C0038
1FFFF8
1C0038
1C0038
1C0038
1C0038
1C0038
1C0038
1C0038
1C0038
1C0038
1E0078
1E0078
FFC3FF
ENDCHAR
STARTCHAR 0127
ENCODING 295
SWIDTH 498 0
DWIDTH 18 0
BBX 18 25 0 0
BITMAP
0C0000
7C0000
BC0000
1C0000
1C0000
FFE000
1C0000
1C0000
1C3000
1CFC00
1DFE00
1E0E00
1C0E00
1C0E00
1C0E00
1C0600
1C0600
1C0600
1C0600
1C0600
1C0600
1C0600
1C0700
1C0F00
FFBFC0
ENDCHAR
STARTCHAR 0128
ENCODING 296
SWIDTH 332 0
DWIDTH 12 0
BBX 12 31 0 0
BITMAP
3810
7E10
5FA0
87E0
8180
0000
0000
7FE0
0F00
0F00
0F00
0F00
0F00
0F00
0F00
0F00
0F00
0F00
0F00
0F00
0F00
0F00
0F00
0F00
0F00
0F00
0F00
0F00
0F00
0F00
7FE0
ENDCHAR
STARTCHAR 0129
ENCODING 297
SWIDTH 276 0
DWIDTH 10 0
BBX 12 24 -1 0
BITMAP
3810
7E10
4FA0
87E0
8180
0000
0000
0100
0F00
3F00
0700
0700
0700
0700
0700
0700
0700
0700
0700
0700
0700
0700
0F00
3FC0
ENDCHAR
STARTCHAR 012A
ENCODING 298
SWIDTH 332 0
DWIDTH 12 0
BBX 12 29 0 0
BITMAP
FFF0
FFF0
0000
0000
0000
7FE0
0F00
0F00
0F00
0F00
0F00
0F00
0F00
0F00
0F00
0F00
0F00
0F00
0F00
0F00
0F00
0F00
0F00
0F00
0F00
0F00
0F00
0F00
7FE0
ENDCHAR
STARTCHAR 012B
ENCODING 299
SWIDTH 276 0
DWIDTH 10 0
BBX 11 22 -1 0
BITMAP
FFE0
FFE0
0000
0000
0000
0100
0F00
3F00
0700
0700
0700
0700
0700
0700
0700
0700
0700
0700
0700
0700
0F00
3FC0
ENDCHAR
STARTCHAR 012C
ENCODING 300
SWIDTH 332 0
DWIDTH 12 0
BBX 10 31 1 0
BITMAP
8040
C0C0
7F80
3F00
0C00
0000
0000
FFC0
1E00
1E00
1E00
1E00
1E00
1E00
1E00
1E00
1E00
1E00
1E00
1E00
1E00
1E00
1E00
1E00
1E00
1E00
1E00
1E00
1E00
1E00
FFC0
ENDCHAR
STARTCHAR 012D
ENCODING 301
SWIDTH 276 0
DWIDTH 10 0
BBX 10 24 0 0
BITMAP
8040
C0C0
7F80
7F80
1E00
0000
0000
0200
1E00
7E00
0E00
0E00
0E00
0E00
0E00
0E00
0E00
0E00
0E00
0E00
0E00
0E00
1E00
7F80
ENDCHAR
STARTCHAR 012E
ENCODING 302
SWIDTH 332 0
DWIDTH 12 0
BBX 11 30 1 -6
BITMAP
FFC0
1E00
1E00
1E00
1E00
1E00
1E00
1E00
1E00
1E00
1E00
1E00
1E00
1E00
1E00
1E00
1E00
1E00
1E00
1E00
1E00
1E00
1E00
FFC0
0800
1800
1800
1800
1E00
0FE0
ENDCHAR
STARTCHAR 012F
ENCODING 303
SWIDTH 276 0
DWIDTH 10 0
BBX 10 31 1 -6
BITMAP
1C00
3C00
1C00
0000
0000
0000
0000
0000
0400
3C00
FC00
1C00
1C00
1C00
1C00
1C00
1C00
1C00
1C00
1C00
1C00
1C00
1C00
3C00
FF00
1000
1000
3000
3800
1C00
1FC0
ENDCHAR
STARTCHAR 0130
ENCODING 304
SWIDTH 332 0
DWIDTH 12 0
BBX 10 30 1 0
BITMAP
0C00
1E00
1E00
0C00
0000
0000
FFC0
1E00
1E00
1E00
1E00
1E00
1E00
1E00
1E00
1E00
1E00
1E00
1E00
1E00
1E00
1E00
1E00
1E00
1E00
1E00
1E00
1E00
1E00
FFC0
ENDCHAR
STARTCHAR 0131
ENCODING 305
SWIDTH 276 0
DWIDTH 10 0
BBX 8 17 1 0
BITMAP
04
3C
FC
1C
1C
1C
1C
1C
1C
1C
1C
1C
1C
1C
1C
3C
FF
ENDCHAR
STARTCHAR 0132
ENCODING 306
SWIDTH 720 0
DWIDTH 26 0
BBX 24 24 1 -1
BITMAP
FFC3FF
1E007C
1E0038
1E0038
1E0038
1E0038
1E0038
1E0038
1E0038
1E0038
1E0038
1E0038
1E0038
1E0038
1E0038
1E0038
1E0038
1E0038
1E0038
1E0038
1E0C30
1E1E30
1E1E60
FFCFC0
ENDCHAR
STARTCHAR 0133
ENCODING 307
SWIDTH 553 0
DWIDTH 20 0
BBX 16 33 1 -8
BITMAP
1C07
3C0F
1C07
0000
0000
0000
0000
0000
0401
3C0F
FC3F
1C07
1C07
1C07
1C07
1C07
1C07
1C07
1C07
1C07
1C07
1C07
1C07
3C07
FF07
0007
0007
0007
0006
0006
03CC
03F8
00E0
ENDCHAR
STARTCHAR 0134
ENCODING 308
SWIDTH 387 0
DWIDTH 14 0
BBX 13 33 1 -1
BITMAP
03C0
07C0
0EE0
0860
1030
0000
0000
0000
1FF8
07C0
03C0
0380
0380
0380
0380
0380
0380
0380
0380
0380
0380
0380
0380
0380
0380
0380
0380
0380
E380
E300
F300
FE00
1000
ENDCHAR
STARTCHAR 0135
ENCODING 309
SWIDTH 276 0
DWIDTH 10 0
BBX 12 32 -3 -8
BITMAP
03C0
07E0
0660
0C30
0810
0000
0000
0040
03C0
0FC0
01C0
01C0
01C0
01C0
01C0
01C0
01C0
01C0
01C0
01C0
01C0
01C0
01C0
01C0
01C0
01C0
0180
0180
0180
F300
FE00
3800
ENDCHAR
STARTCHAR 0136
ENCODING 310
SWIDTH 720 0
DWIDTH 26 0
BBX 25 31 1 -7
BITMAP
FFC7FC00
3E00F000
1E01C000
1C018000
1C030000
1C060000
1C0C0000
1C180000
1C300000
1C600000
1CC00000
1DE00000
1FF00000
1CF80000
1C7C0000
1C3E0000
1C1F0000
1C0F8000
1C07C000
1C03E000
1C01F000
1E00F800
1E00FC00
FFC3FF80
00000000
003C0000
003E0000
000E0000
000E0000
000C0000
00780000
ENDCHAR
STARTCHAR 0137
ENCODING 311
SWIDTH 498 0
DWIDTH 18 0
BBX 18 32 0 -7
BITMAP
0C0000
7C0000
3C0000
1C0000
1C0000
1C0000
1C0000
1C0000
1C0000
1C1F80
1C0C00
1C1800
1C3000
1C6000
1C8000
1F8000
1FC000
1DE000
1CE000
1C7000
1C7800
1C3C00
1C1E00
1C0F00
FFBFC0
000000
01E000
01E000
007000
007000
006000
03C000
ENDCHAR
STARTCHAR 0138
ENCODING 312
SWIDTH 498 0
DWIDTH 18 0
BBX 18 16 0 0
BITMAP
FFBF80
1C0C00
1C1800
1C3000
1C6000
1C8000
1F8000
1FC000
1DE000
1CE000
1C7000
1C7800
1C3C00
1C1E00
1C0F00
FFBFC0
ENDCHAR
STARTCHAR 0139
ENCODING 313
SWIDTH 609 0
DWIDTH 22 0
BBX 20 32 1 0
BITMAP
00F000
00E000
00E000
01C000
018000
010000
000000
000000
FFE000
1E0000
1E0000
1E0000
1E0000
1E0000
1E0000
1E0000
1E0000
1E0000
1E0000
1E0000
1E0000
1E0000
1E0000
1E0000
1E0000
1E0000
1E0010
1E0010
1E0020
1E0060
1FFFE0
FFFFC0
ENDCHAR
STARTCHAR 013A
ENCODING 314
SWIDTH 276 0
DWIDTH 10 0
BBX 8 32 1 0
BITMAP
0F
0E
1C
18
10
10
00
1C
7C
3C
1C
1C
1C
1C
1C
1C
1C
1C
1C
1C
1C
1C
1C
1C
1C
1C
1C
1C
1C
1C
3C
FF
ENDCHAR
STARTCHAR 013B
ENCODING 315
SWIDTH 609 0
DWIDTH 22 0
BBX 20 31 1 -7
BITMAP
FFE000
1E0000
1E0000
1E0000
1E0000
1E0000
1E0000
1E0000
1E0000
1E0000
1E0000
1E0000
1E0000
1E0000
1E0000
1E0000
1E0000
1E0000
1E0010
1E0010
1E0020
1E0060
1FFFE0
FFFFC0
000000
00F000
00F800
003800
003800
003000
01E000
ENDCHAR
STARTCHAR 013C
ENCODING 316
SWIDTH 276 0
DWIDTH 10 0
BBX 8 32 1 -7
BITMAP
1C
7C
3C
1C
1C
1C
1C
1C
1C
1C
1C
1C
1C
1C
1C
1C
1C
1C
1C
1C
1C
1C
1C
3C
FF
00
3C
3C
0E
0E
0C
78
ENDCHAR
STARTCHAR 013D
ENCODING 317
SWIDTH 609 0
DWIDTH 22 0
BBX 20 24 1 0
BITMAP
FFE3C0
1E07C0
1E03E0
1E0160
1E0060
1E0040
1E00C0
1E0180
1E0600
1E0000
1E0000
1E0000
1E0000
1E0000
1E0000
1E0000
1E0000
1E0000
1E0010
1E0010
1E0020
1E0060
1FFFE0
FFFFC0
ENDCHAR
STARTCHAR 013E
ENCODING 318
SWIDTH 415 0
DWIDTH 15 0
BBX 13 25 1 0
BITMAP
1C70
7CF8
3CF8
1C78
1C08
1C08
1C10
1C20
1C40
1C00
1C00
1C00
1C00
1C00
1C00
1C00
1C00
1C00
1C00
1C00
1C00
1C00
1C00
3C00
FF00
ENDCHAR
STARTCHAR 013F
ENCODING 319
SWIDTH 609 0
DWIDTH 22 0
BBX 20 24 1 0
BITMAP
FFE000
1E0000
1E0000
1E0000
1E0000
1E0000
1E0000
1E0000
1E0000
1E0000
1E0E00
1E0E00
1E0E00
1E0000
1E0000
1E0000
1E0000
1E0000
1E0010
1E0010
1E0020
1E0060
1FFFE0
FFFFC0
ENDCHAR
STARTCHAR 0140
ENCODING 320
SWIDTH 332 0
DWIDTH 12 0
BBX 12 25 1 0
BITMAP
1C00
7C00
3C00
1C00
1C00
1C00
1C00
1C00
1C00
1C00
1C00
1CE0
1CF0
1CE0
1C00
1C00
1C00
1C00
1C00
1C00
1C00
1C00
1C00
3C00
FF00
ENDCHAR
STARTCHAR 0141
ENCODING 321
SWIDTH 609 0
DWIDTH 22 0
BBX 21 24 0 0
BITMAP
7FE000
0F0000
0F0000
0E0000
0E0000
0E0000
0E0000
0E2000
0E6000
0EC000
0F8000
0F0000
0E0000
1E0000
3E0000
6E0000
8E0000
0E0000
0E0008
0E0008
0E0010
0F0030
0FFFF0
7FFFE0
ENDCHAR
STARTCHAR 0142
ENCODING 322
SWIDTH 276 0
DWIDTH 10 0
BBX 9 25 1 0
BITMAP
0C00
7C00
BC00
1C00
1C00
1C00
1C00
1C00
1C80
1D80
1F00
1E00
1C00
3C00
7C00
DC00
9C00
1C00
1C00
1C00
1C00
1C00
1C00
1C00
FF00
ENDCHAR
STARTCHAR 0143
ENCODING 323
SWIDTH 720 0
DWIDTH 26 0
BBX 26 32 0 0
BITMAP
000F0000
000E0000
000E0000
001C0000
00180000
00100000
00000000
00000000
FC007FC0
3E000E00
0F000400
0F800400
0FC00400
0FC00400
0DE00400
0CF00400
0C780400
0C7C0400
0C3C0400
0C1E0400
0C0F0400
0C078400
0C07C400
0C03E400
0C01E400
0C00F400
0C007C00
0C003C00
0C003C00
0C001C00
0C000C00
7F800400
ENDCHAR
STARTCHAR 0144
ENCODING 324
SWIDTH 498 0
DWIDTH 18 0
BBX 18 25 0 0
BITMAP
007800
00F000
00E000
00C000
018000
010000
000000
000000
041000
3CFC00
FDFE00
1E0E00
1C0E00
1C0E00
1C0600
1C0600
1C0600
1C0600
1C0600
1C0600
1C0600
1C0600
1C0700
1C0F00
FF3FC0
ENDCHAR
STARTCHAR 0145
ENCODING 325
SWIDTH 720 0
DWIDTH 26 0
BBX 26 31 0 -7
BITMAP
FC007FC0
3E000E00
0F000400
0F800400
0FC00400
0FC00400
0DE00400
0CF00400
0C780400
0C7C0400
0C3C0400
0C1E0400
0C0F0400
0C078400
0C07C400
0C03E400
0C01E400
0C00F400
0C007C00
0C003C00
0C003C00
0C001C00
0C000C00
7F800400
00000000
001E0000
001F0000
00070000
00070000
00060000
003C0000
ENDCHAR
STARTCHAR 0146
ENCODING 326
SWIDTH 498 0
DWIDTH 18 0
BBX 18 24 0 -7
BITMAP
041000
3CFC00
FDFE00
1E0E00
1C0E00
1C0E00
1C0600
1C0600
1C0600
1C0600
1C0600
1C0600
1C0600
1C0600
1C0700
1C0F00
FF3FC0
000000
01E000
01E000
007000
007000
006000
03C000
ENDCHAR
STARTCHAR 0147
ENCODING 327
SWIDTH 720 0
DWIDTH 26 0
BBX 26 32 0 0
BITMAP
00804000
00408000
00718000
003B0000
001F0000
001E0000
00000000
00000000
FC007FC0
3E000E00
0F000400
0F800400
0FC00400
0FC00400
0DE00400
0CF00400
0C780400
0C7C0400
0C3C0400
0C1E0400
0C0F0400
0C078400
0C07C400
0C03E400
0C01E400
0C00F400
0C007C00
0C003C00
0C003C00
0C001C00
0C000C00
7F800400
ENDCHAR
STARTCHAR 0148
ENCODING 328
SWIDTH 498 0
DWIDTH 18 0
BBX 18 24 0 0
BITMAP
080800
061800
073000
03E000
03E000
000000
000000
041000
3CFC00
FDFE00
1E0E00
1C0E00
1C0E00
1C0600
1C0600
1C0600
1C0600
1C0600
1C0600
1C0600
1C0600
1C0700
1C0F00
FF3FC0
ENDCHAR
STARTCHAR 0149
ENCODING 329
SWIDTH 609 0
DWIDTH 22 0
BBX 22 24 0 0
BITMAP
F00000
F80000
F80000
080000
080000
080000
100000
604300
03CFC0
0FDFE0
03E0E0
01C0E0
01C0E0
01C0E0
01C0E0
01C0E0
01C0E0
01C0E0
01C0E0
01C0E0
01C0E0
01C0E0
03C0F0
0FF3FC
ENDCHAR
STARTCHAR 014A
ENCODING 330
SWIDTH 692 0
DWIDTH 25 0
BBX 23 25 1 -1
BITMAP
FC3FC0
1C71E0
1CC070
1D8078
1D003C
1E003C
1E003C
1C001C
1C001E
1C001E
1C001E
1C001E
1C001E
1C001E
1C001C
1C001C
1C001C
1C001C
1C001C
1C0C18
1E1C38
1E1E30
1E1E20
FFCFC0
000200
ENDCHAR
STARTCHAR 014B
ENCODING 331
SWIDTH 498 0
DWIDTH 18 0
BBX 15 25 0 -8
BITMAP
0410
3CFC
FDFE
1E0E
1C0E
1C0E
1C06
1C06
1C06
1C06
1C06
1C06
1C06
1C06
1C06
1C06
FF06
0006
0006
0006
000E
000E
038C
03F8
01E0
ENDCHAR
STARTCHAR 014C
ENCODING 332
SWIDTH 720 0
DWIDTH 26 0
BBX 24 30 1 -1
BITMAP
03FFC0
03FFC0
000000
000000
000000
01FF80
0381E0
0E0070
1E0078
1C003C
38001C
78001E
78001E
78001E
F0001F
F0000F
F0000F
F0000F
F0000F
F0000E
78001E
78001E
78001E
38001C
3C0038
1E0038
0E0070
0781C0
01FF80
001000
ENDCHAR
STARTCHAR 014D
ENCODING 333
SWIDTH 498 0
DWIDTH 18 0
BBX 16 22 1 0
BITMAP
3FFC
3FFC
0000
0000
0000
0180
0FF0
1838
301C
701E
700E
700F
E00F
F00F
F007
F007
700E
700E
780E
380C
1C18
0FF0
ENDCHAR
STARTCHAR 014E
ENCODING 334
SWIDTH 720 0
DWIDTH 26 0
BBX 24 32 1 -1
BITMAP
010080
018180
00FF00
007E00
001800
000000
000000
01FF80
0381E0
0E0070
1E0078
1C003C
38001C
78001E
78001E
78001E
F0001F
F0000F
F0000F
F0000F
F0000F
F0000E
78001E
78001E
78001E
38001C
3C0038
1E0038
0E0070
0781C0
01FF80
001000
ENDCHAR
STARTCHAR 014F
ENCODING 335
SWIDTH 498 0
DWIDTH 18 0
BBX 16 24 1 0
BITMAP
0008
1010
1FF0
0FE0
03C0
0000
0000
0180
0FF0
1838
301C
701E
700E
700F
E00F
F00F
F007
F007
700E
700E
780E
380C
1C18
0FF0
ENDCHAR
STARTCHAR 0150
ENCODING 336
SWIDTH 720 0
DWIDTH 26 0
BBX 24 33 1 -1
BITMAP
0079C0
007180
006380
006300
004300
008200
000000
000000
01FF80
0381E0
0E0070
1E0078
1C003C
38001C
78001E
78001E
78001E
F0001F
F0000F
F0000F
F0000F
F0000F
F0000E
78001E
78001E
78001E
38001C
3C0038
1E0038
0E0070
0781C0
01FF80
001000
ENDCHAR
STARTCHAR 0151
ENCODING 337
SWIDTH 498 0
DWIDTH 18 0
BBX 16 25 1 0
BITMAP
071C
0718
0638
0630
0C20
0820
0800
0000
0180
0FF0
1838
301C
701E
700E
700F
E00F
F00F
F007
F007
700E
700E
780E
380C
1C18
0FF0
ENDCHAR
STARTCHAR 0152
ENCODING 338
SWIDTH 886 0
DWIDTH 32 0
BBX 30 24 1 0
BITMAP
00FFFFF0
0383C0F0
0E01C010
1E01C010
1C01C010
3801C000
7801C000
7801C040
7801C040
7801C040
F001C0C0
F001FFC0
F001C0C0
F001C040
7801C040
7801C040
7801C000
7801C000
3C01C004
3C01C004
1E01E008
0E01E018
0783E078
01FFFFF0
ENDCHAR
STARTCHAR 0153
ENCODING 339
SWIDTH 720 0
DWIDTH 26 0
BBX 24 17 1 0
BITMAP
038060
0CF1FC
183A1E
303E0E
701C0F
701C0F
F01FFF
E01C00
F00C00
F00C00
F00E00
F00E01
701E01
781F02
381FEE
1C33FC
0FE1F8
ENDCHAR
STARTCHAR 0154
ENCODING 340
SWIDTH 664 0
DWIDTH 24 0
BBX 23 32 1 0
BITMAP
007800
007000
006000
00E000
00C000
008000
000000
000000
FFF800
1FBF00
1C0780
1C07C0
1C03C0
1C03C0
1C03C0
1C03C0
1C03C0
1C0780
1C0F00
1C7E00
1FF000
1C7800
1C3C00
1C1E00
1C0E00
1C0F00
1C0780
1C03C0
1C03C0
1E01E0
1E00F0
FFC07E
ENDCHAR
STARTCHAR 0155
ENCODING 341
SWIDTH 332 0
DWIDTH 12 0
BBX 12 25 0 0
BITMAP
03C0
0380
0300
0700
0600
0400
0800
0000
0460
3CF0
FDF0
1E30
1C00
1C00
1C00
1C00
1C00
1C00
1C00
1C00
1C00
1C00
1C00
1C00
FF80
ENDCHAR
STARTCHAR 0156
ENCODING 342
SWIDTH 664 0
DWIDTH 24 0
BBX 23 31 1 -7
BITMAP
FFF800
1FBF00
1C0780
1C07C0
1C03C0
1C03C0
1C03C0
1C03C0
1C03C0
1C0780
1C0F00
1C7E00
1FF000
1C7800
1C3C00
1C1E00
1C0E00
1C0F00
1C0780
1C03C0
1C03C0
1E01E0
1E00F0
FFC07E
000000
003800
003C00
001C00
001C00
001800
007000
ENDCHAR
STARTCHAR 0157
ENCODING 343
SWIDTH 332 0
DWIDTH 12 0
BBX 12 24 0 -7
BITMAP
0460
3CF0
FDF0
1E30
1C00
1C00
1C00
1C00
1C00
1C00
1C00
1C00
1C00
1C00
1C00
1C00
FF80
0000
0E00
0F00
0700
0300
0600
1C00
ENDCHAR
STARTCHAR 0158
ENCODING 344
SWIDTH 664 0
DWIDTH 24 0
BBX 23 32 1 0
BITMAP
000200
060400
030800
039800
01F000
00F000
000000
000000
FFF800
1FBF00
1C0780
1C07C0
1C03C0
1C03C0
1C03C0
1C03C0
1C03C0
1C0780
1C0F00
1C7E00
1FF000
1C7800
1C3C00
1C1E00
1C0E00
1C0F00
1C0780
1C03C0
1C03C0
1E01E0
1E00F0
FFC07E
ENDCHAR
STARTCHAR 0159
ENCODING 345
SWIDTH 332 0
DWIDTH 12 0
BBX 12 24 0 0
BITMAP
2020
3040
1CC0
0F80
0F00
0000
0000
0460
3CF0
FDF0
1E30
1C00
1C00
1C00
1C00
1C00
1C00
1C00
1C00
1C00
1C00
1C00
1C00
FF80
ENDCHAR
STARTCHAR 015A
ENCODING 346
SWIDTH 553 0
DWIDTH 20 0
BBX 16 33 2 -1
BITMAP
01E0
01C0
01C0
0180
0300
0200
0000
0000
0FE2
383E
701E
600E
E006
E006
F002
F802
7C00
3F00
3FC0
0FF0
07F8
01FC
007E
001F
800F
8007
C007
C007
E007
F00E
F81C
8FF8
8080
ENDCHAR
STARTCHAR 015B
ENCODING 347
SWIDTH 387 0
DWIDTH 14 0
BBX 11 25 2 0
BITMAP
0780
0700
0600
0E00
0C00
0800
1000
0000
0840
77C0
C1C0
C0C0
C040
E040
F000
FC00
3F00
1F80
07C0
01E0
80E0
80E0
C0C0
E0C0
FF80
ENDCHAR
STARTCHAR 015C
ENCODING 348
SWIDTH 553 0
DWIDTH 20 0
BBX 16 33 2 -1
BITMAP
03C0
07E0
06E0
0C30
0810
1008
0000
0000
0FE2
383E
701E
600E
E006
E006
F002
F802
7C00
3F00
3FC0
0FF0
07F8
01FC
007E
001F
800F
8007
C007
C007
E007
F00E
F81C
8FF8
8080
ENDCHAR
STARTCHAR 015D
ENCODING 349
SWIDTH 387 0
DWIDTH 14 0
BBX 11 24 2 0
BITMAP
1E00
3F00
3300
6180
4080
0040
0000
0840
77C0
C1C0
C0C0
C040
E040
F000
FC00
3F00
1F80
07C0
01E0
80E0
80E0
C0C0
E0C0
FF80
ENDCHAR
STARTCHAR 015E
ENCODING 350
SWIDTH 553 0
DWIDTH 20 0
BBX 16 31 2 -7
BITMAP
0FE2
383E
701E
600E
E006
E006
F002
F802
7C00
3F00
3FC0
0FF0
07F8
01FC
007E
001F
800F
8007
C007
C007
E007
F00E
F81C
8FF8
8180
0180
03C0
01C0
00C0
01C0
0700
ENDCHAR
STARTCHAR 015F
ENCODING 351
SWIDTH 387 0
DWIDTH 14 0
BBX 11 24 2 -7
BITMAP
0840
77C0
C1C0
C0C0
C040
E040
F000
FC00
3F00
1F80
07C0
01E0
80E0
80E0
C0C0
E0C0
FF80
0400
0C00
1E00
0600
0600
0E00
3800
ENDCHAR
STARTCHAR 0160
ENCODING 352
SWIDTH 553 0
DWIDTH 20 0
BBX 16 33 2 -1
BITMAP
1008
0810
0C30
0760
07E0
03C0
0000
0000
0FE2
383E
701E
600E
E006
E006
F002
F802
7C00
3F00
3FC0
0FF0
07F8
01FC
007E
001F
800F
8007
C007
C007
E007
F00E
F81C
8FF8
8080
ENDCHAR
STARTCHAR 0161
ENCODING 353
SWIDTH 387 0
DWIDTH 14 0
BBX 11 24 2 0
BITMAP
4080
6180
3300
3F00
1E00
0000
0000
0840
77C0
C1C0
C0C0
C040
E040
F000
FC00
3F00
1F80
07C0
01E0
80E0
80E0
C0C0
E0C0
FF80
ENDCHAR
STARTCHAR 0162
ENCODING 354
SWIDTH 609 0
DWIDTH 22 0
BBX 20 32 1 -8
BITMAP
FFFFF0
FFFFF0
C0F030
80F010
80F010
80F010
00F000
00F000
00F000
00F000
00F000
00F000
00F000
00F000
00F000
00F000
00F000
00F000
00F000
00F000
00F000
00F000
00F000
07FE00
000000
000000
00F000
00F000
005000
001000
003000
00E000
ENDCHAR
STARTCHAR 0163
ENCODING 355
SWIDTH 276 0
DWIDTH 10 0
BBX 10 29 0 -8
BITMAP
0400
0C00
0C00
1C00
3C00
FFC0
1C00
1C00
1C00
1C00
1C00
1C00
1C00
1C00
1C00
1C00
1C00
1C00
1C40
1F80
0F00
0000
0000
1E00
1E00
0E00
0200
0200
1C00
ENDCHAR
STARTCHAR 0164
ENCODING 356
SWIDTH 609 0
DWIDTH 22 0
BBX 20 32 1 0
BITMAP
040200
020400
030C00
01D800
00F800
00F000
000000
000000
FFFFF0
FFFFF0
C0F030
80F010
80F010
80F010
00F000
00F000
00F000
00F000
00F000
00F000
00F000
00F000
00F000
00F000
00F000
00F000
00F000
00F000
00F000
00F000
00F000
07FE00
ENDCHAR
STARTCHAR 0165
ENCODING 357
SWIDTH 415 0
DWIDTH 15 0
BBX 15 25 0 0
BITMAP
003C
003E
003E
001E
0406
0C06
0C04
1C08
3C10
FFC0
1C00
1C00
1C00
1C00
1C00
1C00
1C00
1C00
1C00
1C00
1C00
1C00
1C40
1F80
0F00
ENDCHAR
STARTCHAR 0166
ENCODING 358
SWIDTH 609 0
DWIDTH 22 0
BBX 20 24 1 0
BITMAP
FFFFF0
FFFFF0
C0F030
80F010
80F010
80F010
00F000
00F000
00F000
00F000
00F000
3FFFC0
00F000
00F000
00F000
00F000
00F000
00F000
00F000
00F000
00F000
00F000
00F000
07FE00
ENDCHAR
STARTCHAR 0167
ENCODING 359
SWIDTH 276 0
DWIDTH 10 0
BBX 10 21 0 0
BITMAP
0400
0C00
0C00
1C00
3C00
FFC0
1C00
1C00
1C00
1C00
1C00
FFC0
1C00
1C00
1C00
1C00
1C00
1C00
1C40
1F80
0F00
ENDCHAR
STARTCHAR 0168
ENCODING 360
SWIDTH 720 0
DWIDTH 26 0
BBX 26 32 0 -1
BITMAP
00380000
007E2000
009FE000
0087C000
00818000
00000000
00000000
FFE07FC0
1F000E00
0E000400
0E000400
0E000400
0E000400
0E000400
0E000400
0E000400
0E000400
0E000400
0E000400
0E000400
0E000400
0E000400
0E000400
0E000400
0E000C00
0E000C00
0F000C00
07001800
07803800
03C07000
00FFC000
000C0000
ENDCHAR
STARTCHAR 0169
ENCODING 361
SWIDTH 498 0
DWIDTH 18 0
BBX 17 24 1 0
BITMAP
0E0400
1F8400
13E800
21F800
206000
000000
000000
000000
F87C00
381C00
381C00
381C00
381C00
381C00
381C00
381C00
381C00
381C00
381C00
381C00
381C00
383E00
1FDF80
1F9E00
ENDCHAR
STARTCHAR 016A
ENCODING 362
SWIDTH 720 0
DWIDTH 26 0
BBX 26 30 0 -1
BITMAP
00FFF000
00FFF000
00000000
00000000
00000000
FFE07FC0
1F000E00
0E000400
0E000400
0E000400
0E000400
0E000400
0E000400
0E000400
0E000400
0E000400
0E000400
0E000400
0E000400
0E000400
0E000400
0E000400
0E000400
0E000C00
0F000C00
07001800
07803800
03C07000
00FFC000
000C0000
ENDCHAR
STARTCHAR 016B
ENCODING 363
SWIDTH 498 0
DWIDTH 18 0
BBX 17 22 1 0
BITMAP
3FFC00
3FFC00
000000
000000
000000
000000
F87C00
381C00
381C00
381C00
381C00
381C00
381C00
381C00
381C00
381C00
381C00
381C00
381C00
383E00
1FDF80
1F9E00
ENDCHAR
STARTCHAR 016C
ENCODING 364
SWIDTH 720 0
DWIDTH 26 0
BBX 26 32 0 -1
BITMAP
00804000
00C0C000
007F8000
003F0000
000C0000
00000000
00000000
FFE07FC0
1F000E00
0E000400
0E000400
0E000400
0E000400
0E000400
0E000400
0E000400
0E000400
0E000400
0E000400
0E000400
0E000400
0E000400
0E000400
0E000400
0E000400
0E000C00
0F000C00
07001800
07803800
03C07000
00FFC000
000C0000
ENDCHAR
STARTCHAR 016D
ENCODING 365
SWIDTH 498 0
DWIDTH 18 0
BBX 17 24 1 0
BITMAP
100800
181800
0FF000
0FF000
03C000
000000
000000
000000
F87C00
381C00
381C00
381C00
381C00
381C00
381C00
381C00
381C00
381C00
381C00
381C00
381C00
383E00
1FDF80
1F9E00
ENDCHAR
STARTCHAR 016E
ENCODING 366
SWIDTH 720 0
DWIDTH 26 0
BBX 26 33 0 -1
BITMAP
000F0000
00198000
00108000
00308000
00108000
001F0000
000E0000
00000000
FFE07FC0
1F000E00
0E000400
0E000400
0E000400
0E000400
0E000400
0E000400
0E000400
0E000400
0E000400
0E000400
0E000400
0E000400
0E000400
0E000400
0E000400
0E000C00
0E000C00
0F000C00
07001800
07803800
03C07000
00FFC000
000C0000
ENDCHAR
STARTCHAR 016F
ENCODING 367
SWIDTH 498 0
DWIDTH 18 0
BBX 17 25 1 0
BITMAP
03C000
046000
0C2000
0C2000
0C6000
07C000
010000
000000
000000
F87C00
381C00
381C00
381C00
381C00
381C00
381C00
381C00
381C00
381C00
381C00
381C00
381C00
383E00
3FDF80
1F9E00
ENDCHAR
STARTCHAR 0170
ENCODING 368
SWIDTH 720 0
DWIDTH 26 0
BBX 26 33 0 -1
BITMAP
001CE000
0018E000
0038C000
0030C000
00218000
00210000
00000000
00000000
FFE07FC0
1F000E00
0E000400
0E000400
0E000400
0E000400
0E000400
0E000400
0E000400
0E000400
0E000400
0E000400
0E000400
0E000400
0E000400
0E000400
0E000400
0E000C00
0E000C00
0F000C00
07001800
07803800
03C07000
00FFC000
000C0000
ENDCHAR
STARTCHAR 0171
ENCODING 369
SWIDTH 498 0
DWIDTH 18 0
BBX 17 25 1 0
BITMAP
073800
0E3800
0E3000
0C6000
086000
084000
104000
000000
000000
F87C00
381C00
381C00
381C00
381C00
381C00
381C00
381C00
381C00
381C00
381C00
381C00
381C00
383E00
3FDF80
1F9E00
ENDCHAR
STARTCHAR 0172
ENCODING 370
SWIDTH 720 0
DWIDTH 26 0
BBX 26 30 0 -6
BITMAP
FFE07FC0
1F000E00
0E000400
0E000400
0E000400
0E000400
0E000400
0E000400
0E000400
0E000400
0E000400
0E000400
0E000400
0E000400
0E000400
0E000400
0E000400
0E000C00
0E000C00
0F000C00
07001800
07803800
03C07000
00FFC000
000E0000
000C0000
000C0000
000E0000
000F0000
0007F000
ENDCHAR
STARTCHAR 0173
ENCODING 371
SWIDTH 498 0
DWIDTH 18 0
BBX 18 22 1 -6
BITMAP
F87C00
381C00
381C00
381C00
381C00
381C00
381C00
381C00
381C00
381C00
381C00
381C00
381C00
383E00
3FDF80
1F9E00
001800
001000
001800
001800
001C00
000FC0
ENDCHAR
STARTCHAR 0174
ENCODING 372
SWIDTH 941 0
DWIDTH 34 0
BBX 34 33 0 -1
BITMAP
0001E00000
0003F00000
0003700000
0006180000
0004080000
0008040000
0000000000
0000000000
FF8FF81FC0
1E03E00700
1E01E00600
0E01E00600
0F00E00400
0F00E00C00
0700F00C00
0780F00800
0780F01800
0380F81800
03C1B81000
01C13C3000
01C13C3000
01E31C2000
00E21E6000
00E21E6000
00F60E4000
00740FC000
007C078000
007C078000
0038078000
0038030000
0038030000
0010030000
0010000000
ENDCHAR
STARTCHAR 0175
ENCODING 373
SWIDTH 720 0
DWIDTH 26 0
BBX 26 24 0 0
BITMAP
001E0000
003F0000
00330000
00618000
00408000
00004000
00000000
00000000
FE7F87C0
3C1E0300
1C0E0300
1C0E0200
1C070600
0E0F0400
0E0F0400
061B8C00
07138800
0731D800
03A1D000
03A1D000
03C0F000
01C0E000
01C06000
00804000
ENDCHAR
STARTCHAR 0176
ENCODING 374
SWIDTH 720 0
DWIDTH 26 0
BBX 26 32 0 0
BITMAP
001E0000
003F0000
00370000
00618000
00408000
00804000
00000000
00000000
FFE07FC0
3F001E00
1F000C00
0F001800
07801800
07803000
03C02000
01E06000
01E0C000
00F08000
00798000
007B0000
003E0000
001E0000
001E0000
001E0000
001E0000
001E0000
001E0000
001E0000
001E0000
001E0000
001E0000
00FFC000
ENDCHAR
STARTCHAR 0177
ENCODING 375
SWIDTH 498 0
DWIDTH 18 0
BBX 18 32 0 -8
BITMAP
01F000
01F000
033800
061800
040400
000000
000000
000000
FF07C0
3C0300
1C0300
1C0200
0E0600
0E0400
070C00
070C00
038800
039800
01D000
01F000
01F000
00E000
00E000
004000
00C000
00C000
008000
018000
330000
7E0000
7E0000
380000
ENDCHAR
STARTCHAR 0178
ENCODING 376
SWIDTH 720 0
DWIDTH 26 0
BBX 26 30 0 0
BITMAP
0071C000
00F1C000
00F1C000
00608000
00000000
00000000
FFE07FC0
3F001E00
1F000C00
0F001800
07801800
07803000
03C02000
01E06000
01E0C000
00F08000
00798000
007B0000
003E0000
001E0000
001E0000
001E0000
001E0000
001E0000
001E0000
001E0000
001E0000
001E0000
001E0000
00FFC000
ENDCHAR
STARTCHAR 0179
ENCODING 377
SWIDTH 609 0
DWIDTH 22 0
BBX 21 32 0 0
BITMAP
001E00
001C00
003800
003000
002000
002000
000000
000000
1FFFF0
1FFFF0
1801E0
1003C0
1003C0
200780
000F00
000F00
001E00
003C00
007800
007800
00F000
01E000
01E000
03C000
078000
078000
0F0008
1E0008
3C0018
3C0030
7801F0
FFFFF0
ENDCHAR
STARTCHAR 017A
ENCODING 378
SWIDTH 443 0
DWIDTH 16 0
BBX 14 25 1 0
BITMAP
01E0
01C0
0380
0300
0300
0600
0400
0000
0000
7FFC
603C
4078
4070
00E0
01E0
03C0
0380
0700
0F00
1E00
1C00
3804
7804
F00C
FFFC
ENDCHAR
STARTCHAR 017B
ENCODING 379
SWIDTH 609 0
DWIDTH 22 0
BBX 21 30 0 0
BITMAP
003800
003800
003800
001000
000000
000000
1FFFF0
1FFFF0
1801E0
1003C0
1003C0
200780
000F00
000F00
001E00
003C00
007800
007800
00F000
01E000
01E000
03C000
078000
078000
0F0008
1E0008
3C0018
3C0030
7801F0
FFFFF0
ENDCHAR
STARTCHAR 017C
ENCODING 380
SWIDTH 443 0
DWIDTH 16 0
BBX 14 24 1 0
BITMAP
0100
0380
0380
0380
0000
0000
0000
0000
7FFC
603C
4078
4070
00E0
01E0
03C0
0380
0700
0F00
1E00
1C00
3804
7804
F00C
FFFC
ENDCHAR
STARTCHAR 017D
ENCODING 381
SWIDTH 609 0
DWIDTH 22 0
BBX 21 32 0 0
BITMAP
020000
010100
00C600
00EC00
007C00
007800
000000
000000
1FFFF0
1FFFF0
1801E0
1003C0
1003C0
200780
000F00
000F00
001E00
003C00
007800
007800
00F000
01E000
01E000
03C000
078000
078000
0F0008
1E0008
3C0018
3C0030
7801F0
FFFFF0
ENDCHAR
STARTCHAR 017E
ENCODING 382
SWIDTH 443 0
DWIDTH 16 0
BBX 14 24 1 0
BITMAP
1010
1820
0E60
07C0
0780
0000
0000
0000
7FFC
603C
4078
4070
00E0
01E0
03C0
0380
0700
0F00
1E00
1C00
3804
7804
F00C
FFFC
ENDCHAR
STARTCHAR 017F
ENCODING 383
SWIDTH 276 0
DWIDTH 10 0
BBX 15 25 0 0
BITMAP
00F8
033C
061E
0C0C
0C00
0C00
0C00
1C00
1C00
1C00
1C00
1C00
1C00
1C00
1C00
1C00
1C00
1C00
1C00
1C00
1C00
1C00
1C00
1E00
FF80
ENDCHAR
STARTCHAR 018F
ENCODING 399
SWIDTH 720 0
DWIDTH 26 0
BBX 24 25 1 -1
BITMAP
09FF00
0F01C0
1E00F0
1C0078
180038
10003C
10001E
10001E
00001E
00001F
00000F
FFFFFF
F0000F
F0000F
F0001F
F0001E
F0001E
78001E
78003C
3C003C
1E0078
0E00F0
0781E0
01FF80
001000
ENDCHAR
STARTCHAR 0192
ENCODING 402
SWIDTH 498 0
DWIDTH 18 0
BBX 18 32 0 -8
BITMAP
000780
000DC0
001880
001800
003800
003800
003000
007000
01F000
03FE00
007000
007000
00E000
00E000
00E000
00E000
01C000
01C000
01C000
01C000
038000
038000
038000
030000
030000
070000
060000
060000
440000
CC0000
D80000
600000
ENDCHAR
STARTCHAR 01A0
ENCODING 416
SWIDTH 720 0
DWIDTH 26 0
BBX 24 28 1 -1
BITMAP
00000C
00001E
00000E
01FF8C
0381F0
0E0070
1E0078
1C003C
38001C
78001E
78001E
78001E
F0000F
F0000F
F0000F
F0000F
F0000F
F0000E
78001E
78001E
78001E
38001C
3C0038
1E0038
0E0070
0781E0
01FF80
001000
ENDCHAR
STARTCHAR 01A1
ENCODING 417
SWIDTH 526 0
DWIDTH 19 0
BBX 18 17 1 0
BITMAP
0181C0
0FF1C0
1839C0
301CC0
701F00
700E00
700F00
E00F00
F00F00
F00700
F00700
700E00
700E00
780E00
3C0C00
1C1800
0FF000
ENDCHAR
STARTCHAR 01AF
ENCODING 431
SWIDTH 775 0
DWIDTH 28 0
BBX 29 29 0 -1
BITMAP
00000038
00000038
00000038
00000018
FFE07FE0
1F000E00
1E000400
0E000400
0E000400
0E000400
0E000400
0E000400
0E000400
0E000400
0E000400
0E000400
0E000400
0E000400
0E000400
0E000400
0E000400
0E000C00
0E000C00
0F000C00
07001800
07803800
03C0F000
00FFC000
000C0000
ENDCHAR
STARTCHAR 01B0
ENCODING 432
SWIDTH 553 0
DWIDTH 20 0
BBX 18 17 1 0
BITMAP
0001C0
F87DC0
781CC0
381CC0
381F00
381C00
381C00
381C00
381C00
381C00
381C00
381C00
381C00
381C00
383E00
3FDF80
1F9E00
ENDCHAR
STARTCHAR 01CD
ENCODING 461
SWIDTH 720 0
DWIDTH 26 0
BBX 26 32 0 0
BITMAP
00804000
00408000
00618000
003B0000
003F0000
001E0000
00000000
00000000
000C0000
000C0000
001C0000
001E0000
001E0000
003F0000
00270000
00678000
00478000
00C38000
00C3C000
0081C000
0181E000
0100E000
0300F000
03FFF000
06007000
06007800
04003800
0C003C00
08003C00
18001E00
38001E00
FF00FFC0
ENDCHAR
STARTCHAR 01CE
ENCODING 462
SWIDTH 443 0
DWIDTH 16 0
BBX 15 24 1 0
BITMAP
1020
1860
0CC0
0FC0
0780
0000
0000
0300
1DE0
3070
7070
7070
7070
0070
03F0
0E70
3870
7070
6070
E070
E070
F0F2
7F7C
3E38
ENDCHAR
STARTCHAR 01CF
ENCODING 463
SWIDTH 332 0
DWIDTH 12 0
BBX 10 32 1 0
BITMAP
8040
4080
6180
3B00
3F00
1E00
0000
0000
FFC0
1E00
1E00
1E00
1E00
1E00
1E00
1E00
1E00
1E00
1E00
1E00
1E00
1E00
1E00
1E00
1E00
1E00
1E00
1E00
1E00
1E00
1E00
FFC0
ENDCHAR
STARTCHAR 01D0
ENCODING 464
SWIDTH 276 0
DWIDTH 10 0
BBX 9 24 1 0
BITMAP
8180
C300
6600
7E00
3C00
0000
0000
0400
3C00
FC00
1C00
1C00
1C00
1C00
1C00
1C00
1C00
1C00
1C00
1C00
1C00
1C00
3C00
FF00
ENDCHAR
STARTCHAR 01D1
ENCODING 465
SWIDTH 720 0
DWIDTH 26 0
BBX 24 33 1 -1
BITMAP
010080
008180
00E300
007600
003E00
003C00
000000
000000
01FF80
0381E0
0E0070
1E0078
1C003C
38001C
78001E
78001E
78001E
F0001F
F0000F
F0000F
F0000F
F0000F
F0000E
78001E
78001E
78001E
38001C
3C0038
1E0038
0E0070
0781C0
01FF80
001000
ENDCHAR
STARTCHAR 01D2
ENCODING 466
SWIDTH 498 0
DWIDTH 18 0
BBX 16 24 1 0
BITMAP
0810
0C30
0660
07E0
03C0
0000
0000
0180
0FF0
1838
301C
701E
700E
700F
E00F
F00F
F007
F007
700E
700E
780E
380C
1C18
0FF0
ENDCHAR
STARTCHAR 01D3
ENCODING 467
SWIDTH 720 0
DWIDTH 26 0
BBX 26 33 0 -1
BITMAP
00804000
00408000
00618000
003B0000
003F0000
001E0000
00000000
00000000
FFE07FC0
1F000E00
0E000400
0E000400
0E000400
0E000400
0E000400
0E000400
0E000400
0E000400
0E000400
0E000400
0E000400
0E000400
0E000400
0E000400
0E000400
0E000C00
0E000C00
0F000C00
07001800
07803800
03C07000
00FFC000
000C0000
ENDCHAR
STARTCHAR 01D4
ENCODING 468
SWIDTH 498 0
DWIDTH 18 0
BBX 17 24 1 0
BITMAP
081800
0C3000
066000
07E000
03C000
000000
000000
000000
F87C00
381C00
381C00
381C00
381C00
381C00
381C00
381C00
381C00
381C00
381C00
381C00
381C00
383E00
3FDF80
1F9E00
ENDCHAR
STARTCHAR 01D5
ENCODING 469
SWIDTH 720 0
DWIDTH 26 0
BBX 26 33 0 -1
BITMAP
007F8000
007F8000
00000000
00000000
00738000
00738000
00000000
00000000
FFE07FC0
1F000E00
0E000400
0E000400
0E000400
0E000400
0E000400
0E000400
0E000400
0E000400
0E000400
0E000400
0E000400
0E000400
0E000400
0E000400
0E000400
0E000C00
0E000C00
0F000C00
07001800
07803800
03C07000
00FFC000
000C0000
ENDCHAR
STARTCHAR 01D6
ENCODING 470
SWIDTH 498 0
DWIDTH 18 0
BBX 17 27 1 0
BITMAP
3FFC00
3FFC00
000000
000000
000000
1E7800
1E7800
1E7800
000000
000000
000000
F87C00
381C00
381C00
381C00
381C00
381C00
381C00
381C00
381C00
381C00
381C00
381C00
381C00
383E00
3FDF80
1F9E00
ENDCHAR
STARTCHAR 01D7
ENCODING 471
SWIDTH 720 0
DWIDTH 26 0
BBX 26 33 0 -1
BITMAP
00060000
000C0000
00080000
00000000
00738000
00738000
00000000
00000000
FFE07FC0
1F000E00
0E000400
0E000400
0E000400
0E000400
0E000400
0E000400
0E000400
0E000400
0E000400
0E000400
0E000400
0E000400
0E000400
0E000400
0E000400
0E000C00
0E000C00
0F000C00
07001800
07803800
03C07000
00FFC000
000C0000
ENDCHAR
STARTCHAR 01D8
ENCODING 472
SWIDTH 498 0
DWIDTH 18 0
BBX 17 30 1 0
BITMAP
00F000
00E000
01C000
018000
010000
020000
000000
000000
1E7800
1E7800
1E7800
000000
000000
000000
F87C00
381C00
381C00
381C00
381C00
381C00
381C00
381C00
381C00
381C00
381C00
381C00
381C00
383E00
3FDF80
1F9E00
ENDCHAR
STARTCHAR 01D9
ENCODING 473
SWIDTH 720 0
DWIDTH 26 0
BBX 26 33 0 -1
BITMAP
00210000
003F0000
001E0000
00000000
00738000
00738000
00000000
00000000
FFE07FC0
1F000E00
0E000400
0E000400
0E000400
0E000400
0E000400
0E000400
0E000400
0E000400
0E000400
0E000400
0E000400
0E000400
0E000400
0E000400
0E000400
0E000C00
0E000C00
0F000C00
07001800
07803800
03C07000
00FFC000
000C0000
ENDCHAR
STARTCHAR 01DA
ENCODING 474
SWIDTH 498 0
DWIDTH 18 0
BBX 17 29 1 0
BITMAP
081000
0C3000
066000
07E000
03C000
000000
000000
1E7800
1E7800
1E7800
000000
000000
000000
F87C00
381C00
381C00
381C00
381C00
381C00
381C00
381C00
381C00
381C00
381C00
381C00
381C00
383E00
3FDF80
1F9E00
ENDCHAR
STARTCHAR 01DB
ENCODING 475
SWIDTH 720 0
DWIDTH 26 0
BBX 26 33 0 -1
BITMAP
00180000
000C0000
00040000
00000000
00738000
00738000
00000000
00000000
FFE07FC0
1F000E00
0E000400
0E000400
0E000400
0E000400
0E000400
0E000400
0E000400
0E000400
0E000400
0E000400
0E000400
0E000400
0E000400
0E000400
0E000400
0E000C00
0E000C00
0F000C00
07001800
07803800
03C07000
00FFC000
000C0000
ENDCHAR
STARTCHAR 01DC
ENCODING 476
SWIDTH 498 0
DWIDTH 18 0
BBX 17 30 1 0
BITMAP
0F0000
070000
038000
018000
008000
00C000
000000
000000
1E7800
1E7800
1E7800
000000
000000
000000
F87C00
381C00
381C00
381C00
381C00
381C00
381C00
381C00
381C00
381C00
381C00
381C00
381C00
383E00
3FDF80
1F9E00
ENDCHAR
STARTCHAR 01FA
ENCODING 506
SWIDTH 720 0
DWIDTH 26 0
BBX 26 36 0 0
BITMAP
00070000
000E0000
000E0000
000C0000
00080000
00100000
001E0000
00330000
00210000
00210000
00210000
003F0000
000C0000
000C0000
001C0000
001E0000
001E0000
003F0000
00270000
00678000
00478000
00C38000
00C3C000
0081C000
0181E000
0100E000
0300F000
03FFF000
06007000
06007800
04003800
0C003C00
08003C00
18001E00
38001E00
FF00FFC0
ENDCHAR
STARTCHAR 01FB
ENCODING 507
SWIDTH 443 0
DWIDTH 16 0
BBX 15 32 1 0
BITMAP
01E0
01C0
0380
0300
0200
0400
0000
0780
0CC0
0840
0840
0840
07C0
0300
0000
0300
1DE0
3070
7070
7070
7070
0070
03F0
0E70
3870
7070
6070
E070
E070
F0F2
7F7C
3E38
ENDCHAR
STARTCHAR 01FC
ENCODING 508
SWIDTH 886 0
DWIDTH 32 0
BBX 31 32 0 0
BITMAP
0000F000
0001C000
0001C000
00018000
00010000
00020000
00000000
00000000
007FFFF8
000FC078
000DC008
000DC008
0009C008
0019C000
0011C000
0031C020
0061C020
0041C020
00C1C060
0081FFE0
0181C060
01FFC020
03FFC020
0201C020
0601C000
0401C000
0C01C002
0801C002
1801C004
3001C00C
3803E07C
FE1FFFF8
ENDCHAR
STARTCHAR 01FD
ENCODING 509
SWIDTH 664 0
DWIDTH 24 0
BBX 22 25 1 0
BITMAP
001E00
001C00
003800
003000
003000
002000
004000
000000
078180
19E7F0
30F838
707038
70703C
70701C
007FFC
03F000
0E7000
187000
707000
607004
E07804
E03808
F07E38
7D9FF0
3F0FE0
ENDCHAR
STARTCHAR 01FE
ENCODING 510
SWIDTH 720 0
DWIDTH 26 0
BBX 24 33 1 -1
BITMAP
000F00
001C00
001C00
001800
001000
002000
000000
000004
01FF84
0381C8
0E00F8
1E0078
1C0078
38007C
78009E
78019E
78031E
F0061F
F00C0F
F0080F
F0180F
F0300F
F8600F
78C01E
78801E
79801E
3B001C
3E0038
1E0038
0E0070
1781C0
31FF80
200800
ENDCHAR
STARTCHAR 01FF
ENCODING 511
SWIDTH 498 0
DWIDTH 18 0
BBX 16 26 1 -1
BITMAP
00F0
00E0
01C0
0180
0180
0100
0200
0000
0181
0FF2
183E
301C
301E
703E
706F
F04F
F087
F107
F207
7606
7C0E
780E
3C0C
7C18
4FF0
8000
ENDCHAR
STARTCHAR 0218
ENCODING 536
SWIDTH 553 0
DWIDTH 20 0
BBX 16 32 2 -8
BITMAP
0FE2
383E
701E
600E
E006
E006
F002
F802
7C00
3F00
3FC0
0FF0
07F8
01FC
007E
001F
800F
8007
C007
C007
E007
F00E
F81C
8FF8
8080
0000
01C0
03E0
01E0
0040
0040
0380
ENDCHAR
STARTCHAR 0219
ENCODING 537
SWIDTH 387 0
DWIDTH 14 0
BBX 11 25 2 -8
BITMAP
0840
77C0
C1C0
C0C0
C040
E040
F000
FC00
3F00
1F80
07C0
01E0
80E0
80E0
C0C0
E0C0
FF80
0000
0000
1E00
1E00
0E00
0200
0200
1C00
ENDCHAR
STARTCHAR 021A
ENCODING 538
SWIDTH 609 0
DWIDTH 22 0
BBX 20 32 1 -8
BITMAP
FFFFF0
FFFFF0
C0F030
80F010
80F010
80F010
00F000
00F000
00F000
00F000
00F000
00F000
00F000
00F000
00F000
00F000
00F000
00F000
00F000
00F000
00F000
00F000
00F000
07FE00
000000
000000
00F000
00F000
005000
001000
003000
00E000
ENDCHAR
STARTCHAR 021B
ENCODING 539
SWIDTH 276 0
DWIDTH 10 0
BBX 10 29 0 -8
BITMAP
0400
0C00
0C00
1C00
3C00
FFC0
1C00
1C00
1C00
1C00
1C00
1C00
1C00
1C00
1C00
1C00
1C00
1C00
1C40
1F80
0F00
0000
0000
1E00
1E00
0E00
0200
0200
1C00
ENDCHAR
STARTCHAR 0259
ENCODING 601
SWIDTH 443 0
DWIDTH 16 0
BBX 14 17 1 0
BITMAP
0380
1FE0
3FF0
31F8
4078
403C
801C
001C
001C
001C
000C
FFFC
F018
7018
7810
3830
1FC0
ENDCHAR
STARTCHAR 02C6
ENCODING 710
SWIDTH 332 0
DWIDTH 12 0
BBX 8 5 2 19
BITMAP
3C
7E
66
C3
81
ENDCHAR
STARTCHAR 02C7
ENCODING 711
SWIDTH 332 0
DWIDTH 12 0
BBX 8 5 2 19
BITMAP
81
C3
66
7E
3C
ENDCHAR
STARTCHAR 02C9
ENCODING 713
SWIDTH 332 0
DWIDTH 12 0
BBX 12 2 0 22
BITMAP
FFF0
FFF0
ENDCHAR
STARTCHAR 02D8
ENCODING 728
SWIDTH 332 0
DWIDTH 12 0
BBX 10 5 1 19
BITMAP
8040
C0C0
7F80
7F80
1E00
ENDCHAR
STARTCHAR 02D9
ENCODING 729
SWIDTH 332 0
DWIDTH 12 0
BBX 4 3 4 21
BITMAP
F0
F0
F0
ENDCHAR
STARTCHAR 02DA
ENCODING 730
SWIDTH 332 0
DWIDTH 12 0
BBX 6 7 3 18
BITMAP
78
CC
84
84
84
FC
30
ENDCHAR
STARTCHAR 02DB
ENCODING 731
SWIDTH 332 0
DWIDTH 12 0
BBX 7 6 3 -6
BITMAP
C0
80
C0
C0
F0
7E
ENDCHAR
STARTCHAR 02DC
ENCODING 732
SWIDTH 332 0
DWIDTH 12 0
BBX 12 5 0 19
BITMAP
3810
7E10
4FA0
87E0
8180
ENDCHAR
STARTCHAR 02DD
ENCODING 733
SWIDTH 332 0
DWIDTH 12 0
BBX 10 7 1 18
BITMAP
39C0
71C0
7180
6300
4300
4200
8200
ENDCHAR
STARTCHAR 0300
ENCODING 768
SWIDTH 0 0
DWIDTH 0 0
BBX 5 6 -8 26
BITMAP
E0
70
30
10
18
08
ENDCHAR
STARTCHAR 0301
ENCODING 769
SWIDTH 0 0
DWIDTH 0 0
BBX 5 6 -7 26
BITMAP
38
70
60
40
C0
80
ENDCHAR
STARTCHAR 0303
ENCODING 771
SWIDTH 0 0
DWIDTH 0 0
BBX 12 5 -14 26
BITMAP
3810
7E10
5FA0
87E0
8180
ENDCHAR
STARTCHAR 0309
ENCODING 777
SWIDTH 0 0
DWIDTH 0 0
BBX 5 5 -7 26
BITMAP
F0
98
10
30
20
ENDCHAR
STARTCHAR 0323
ENCODING 803
SWIDTH 0 0
DWIDTH 0 0
BBX 4 4 -16 -6
BITMAP
60
F0
F0
60
ENDCHAR
STARTCHAR 037E
ENCODING 894
SWIDTH 276 0
DWIDTH 10 0
BBX 5 23 3 -6
BITMAP
60
F0
F0
E0
00
00
00
00
00
00
00
00
00
00
F0
F8
F8
18
18
10
30
60
80
ENDCHAR
STARTCHAR 0384
ENCODING 900
SWIDTH 332 0
DWIDTH 12 0
BBX 6 7 4 18
BITMAP
3C
38
70
60
60
C0
80
ENDCHAR
STARTCHAR 0385
ENCODING 901
SWIDTH 332 0
DWIDTH 12 0
BBX 12 7 0 18
BITMAP
03C0
0380
0700
E670
E470
EC70
4820
ENDCHAR
STARTCHAR 0386
ENCODING 902
SWIDTH 720 0
DWIDTH 26 0
BBX 26 25 0 0
BITMAP
07800000
0F0C0000
0E0C0000
0C1C0000
081E0000
101E0000
103F0000
00270000
00678000
00478000
00C38000
00C3C000
0081C000
0181E000
0100E000
0300F000
03FFF000
06007000
06007800
04003800
0C003C00
08003C00
18001E00
38001E00
FF00FFC0
ENDCHAR
STARTCHAR 0387
ENCODING 903
SWIDTH 276 0
DWIDTH 10 0
BBX 4 4 3 13
BITMAP
60
F0
F0
70
ENDCHAR
STARTCHAR 0388
ENCODING 904
SWIDTH 692 0
DWIDTH 25 0
BBX 27 25 -3 0
BITMAP
3C000000
39FFFF80
703C0780
603C0080
403C0080
C03C0080
803C0000
003C0000
003C0000
003C0200
003C0200
003C0600
003FFE00
003C0600
003C0200
003C0200
003C0000
003C0000
003C0000
003C0020
003C0020
003C0040
003C00C0
003E03C0
01FFFF80
ENDCHAR
STARTCHAR 0389
ENCODING 905
SWIDTH 803 0
DWIDTH 29 0
BBX 31 25 -3 0
BITMAP
3C000000
39FF87FE
703C00F8
603C0070
403C0070
C03C0070
803C0070
003C0070
003C0070
003C0070
003C0070
003C0070
003FFFF0
003C0070
003C0070
003C0070
003C0070
003C0070
003C0070
003C0070
003C0070
003C0070
003C0070
003C00F8
01FF87FE
ENDCHAR
STARTCHAR 038A
ENCODING 906
SWIDTH 415 0
DWIDTH 15 0
BBX 17 25 -3 0
BITMAP
3C0000
39FF80
703C00
603C00
403C00
C03C00
803C00
003C00
003C00
003C00
003C00
003C00
003C00
003C00
003C00
003C00
003C00
003C00
003C00
003C00
003C00
003C00
003C00
003C00
01FF80
ENDCHAR
STARTCHAR 038C
ENCODING 908
SWIDTH 720 0
DWIDTH 26 0
BBX 26 26 -1 -1
BITMAP
38000000
787FE000
70E07800
63801C00
C7801E00
87000F00
0E000700
1E000780
1E000780
1E000780
3C0007C0
3C0003C0
3C0003C0
3C0003C0
3C0003C0
3C000380
1E000780
1E000780
1E000780
0E000700
0F000E00
07800E00
03801C00
01E07000
007FE000
00040000
ENDCHAR
STARTCHAR 038E
ENCODING 910
SWIDTH 803 0
DWIDTH 29 0
BBX 32 25 -3 0
BITMAP
3C000000
39FF80FF
707C003C
603C0030
401E0030
C01E0060
800F0040
000780C0
00078180
0003C100
0001C300
0001E600
0000F600
0000FC00
00007800
00003800
00003800
00003800
00003800
00003800
00003800
00003800
00003800
00007800
0003FF00
ENDCHAR
STARTCHAR 038F
ENCODING 911
SWIDTH 747 0
DWIDTH 27 0
BBX 27 25 -1 0
BITMAP
78000000
787FF000
70E07C00
63C01E00
C7800F00
87000780
0F000780
0F0007C0
1E0003C0
1E0003C0
1E0003C0
1E0003C0
1E0003C0
1E0003C0
0F000380
0F000780
07000700
07800F00
03C00E00
20E03820
20306020
30304060
3FF07FE0
3FF07FE0
3FF07FE0
ENDCHAR
STARTCHAR 0390
ENCODING 912
SWIDTH 276 0
DWIDTH 10 0
BBX 12 25 -1 0
BITMAP
03C0
0380
0700
E670
E470
EC70
4820
0000
0200
0E00
3E00
0E00
0E00
0E00
0E00
0E00
0E00
0E00
0E00
0E00
0E00
0E20
0E20
0740
07C0
ENDCHAR
STARTCHAR 0391
ENCODING 913
SWIDTH 720 0
DWIDTH 26 0
BBX 26 24 0 0
BITMAP
000C0000
000C0000
001C0000
001E0000
001E0000
003F0000
00270000
00678000
00478000
00C38000
00C3C000
0081C000
0181E000
0100E000
0300F000
03FFF000
06007000
06007800
04003800
0C003C00
08003C00
18001E00
38001E00
FF00FFC0
ENDCHAR
STARTCHAR 0392
ENCODING 914
SWIDTH 664 0
DWIDTH 24 0
BBX 21 24 1 0
BITMAP
FFFC00
3F1F80
1C03C0
1C01E0
1C00F0
1C00F0
1C00F0
1C00F0
1C00F0
1C01E0
1C03C0
1FFF00
1C0FC0
1C01E0
1C00F0
1C00F8
1C0078
1C0078
1C0078
1C0078
1C00F0
1C01E0
1F07C0
FFFF00
ENDCHAR
STARTCHAR 0393
ENCODING 915
SWIDTH 581 0
DWIDTH 21 0
BBX 19 24 1 0
BITMAP
FFFFE0
3C03E0
1C0060
1C0020
1C0020
1C0020
1C0000
1C0000
1C0000
1C0000
1C0000
1C0000
1C0000
1C0000
1C0000
1C0000
1C0000
1C0000
1C0000
1C0000
1E0000
1E0000
1E0000
FFC000
ENDCHAR
STARTCHAR 0394
ENCODING 916
SWIDTH 636 0
DWIDTH 23 0
BBX 21 24 1 0
BITMAP
003000
003000
007000
007800
00F800
00FC00
009C00
019E00
011E00
030E00
030F00
060700
060780
0C0780
0C0380
0803C0
1801C0
1001E0
3001E0
3000E0
6000F0
600070
400078
FFFFF8
ENDCHAR
STARTCHAR 0395
ENCODING 917
SWIDTH 609 0
DWIDTH 22 0
BBX 20 24 1 0
BITMAP
FFFFC0
1E03C0
1E0040
1E0040
1E0040
1E0000
1E0000
1E0000
1E0100
1E0100
1E0300
1FFF00
1E0300
1E0100
1E0100
1E0000
1E0000
1E0000
1E0010
1E0010
1E0020
1E0060
1E01E0
FFFFC0
ENDCHAR
STARTCHAR 0396
ENCODING 918
SWIDTH 609 0
DWIDTH 22 0
BBX 21 24 0 0
BITMAP
1FFFF0
1FFFF0
1801E0
1003C0
1003C0
200780
000F00
000F00
001E00
003C00
007800
007800
00F000
01E000
01E000
03C000
078000
078000
0F0008
1E0008
3C0018
3C0030
7801F0
FFFFF0
ENDCHAR
STARTCHAR 0397
ENCODING 919
SWIDTH 720 0
DWIDTH 26 0
BBX 24 24 1 0
BITMAP
FFC3FF
1E0078
1E0078
1C0038
1C0038
1C0038
1C0038
1C0038
1C0038
1C0038
1C0038
1FFFF8
1C0038
1C0038
1C0038
1C0038
1C0038
1C0038
1C0038
1C0038
1C0038
1E0078
1E0078
FFC3FF
ENDCHAR
STARTCHAR 0398
ENCODING 920
SWIDTH 720 0
DWIDTH 26 0
BBX 24 25 1 -1
BITMAP
00FF80
0381C0
0E0070
1E0078
1C003C
38001C
78001E
78001E
78811E
78810F
F0C30F
F0FF0F
F0FF0F
F0E70F
78810F
78810E
78001E
78001E
3C001C
1C003C
1E0038
0E0070
0781E0
01FF80
001000
ENDCHAR
STARTCHAR 0399
ENCODING 921
SWIDTH 332 0
DWIDTH 12 0
BBX 10 24 1 0
BITMAP
FFC0
1E00
1E00
1E00
1E00
1E00
1E00
1E00
1E00
1E00
1E00
1E00
1E00
1E00
1E00
1E00
1E00
1E00
1E00
1E00
1E00
1E00
1E00
FFC0
ENDCHAR
STARTCHAR 039A
ENCODING 922
SWIDTH 720 0
DWIDTH 26 0
BBX 25 24 1 0
BITMAP
FFC7FC00
3E00F000
1E01C000
1C018000
1C030000
1C060000
1C0C0000
1C180000
1C300000
1C600000
1CC00000
1DE00000
1FF00000
1CF80000
1C7C0000
1C3E0000
1C1F0000
1C0F8000
1C07C000
1C03E000
1C01F000
1E00F800
1E00FC00
FFC3FF80
ENDCHAR
STARTCHAR 039B
ENCODING 923
SWIDTH 720 0
DWIDTH 26 0
BBX 26 24 0 0
BITMAP
000C0000
000C0000
001C0000
001E0000
003E0000
003F0000
002F0000
00678000
00478000
00C38000
00C3C000
0081C000
0181E000
0101E000
0300F000
0300F000
06007000
06007800
04003800
0C003C00
0C003C00
18001E00
1C003E00
FF00FFC0
ENDCHAR
STARTCHAR 039C
ENCODING 924
SWIDTH 886 0
DWIDTH 32 0
BBX 30 24 1 0
BITMAP
FE0001FC
3E0001F0
1E0003E0
1F0003E0
1F0002E0
1F8006E0
1B8004E0
1BC00CE0
19C008E0
19E018E0
18E018E0
18F030E0
18F030E0
187860E0
187860E0
183C40E0
183CC0E0
181C80E0
181F80E0
180F00E0
180F00E0
180701E0
180601E0
FF020FFC
ENDCHAR
STARTCHAR 039D
ENCODING 925
SWIDTH 720 0
DWIDTH 26 0
BBX 26 24 0 0
BITMAP
FC007FC0
3E000E00
0F000400
0F800400
0FC00400
0FC00400
0DE00400
0CF00400
0C780400
0C7C0400
0C3C0400
0C1E0400
0C0F0400
0C078400
0C07C400
0C03E400
0C01E400
0C00F400
0C007C00
0C003C00
0C003C00
0C001C00
0C000C00
7F800400
ENDCHAR
STARTCHAR 039E
ENCODING 926
SWIDTH 636 0
DWIDTH 23 0
BBX 21 24 1 0
BITMAP
7FFFF0
7FFFF0
7FFFF0
600030
400010
400010
000000
000000
080080
080080
0E0380
0FFF80
0FFF80
0F0780
080080
080080
000000
800008
800008
800008
C00018
FFFFF8
FFFFF8
FFFFF8
ENDCHAR
STARTCHAR 039F
ENCODING 927
SWIDTH 720 0
DWIDTH 26 0
BBX 24 25 1 -1
BITMAP
01FF80
0381E0
0E0070
1E0078
1C003C
38001C
78001E
78001E
78001E
F0001F
F0000F
F0000F
F0000F
F0000F
F0000E
78001E
78001E
78001E
38001C
3C0038
1E0038
0E0070
0781C0
01FF80
001000
ENDCHAR
STARTCHAR 03A0
ENCODING 928
SWIDTH 720 0
DWIDTH 26 0
BBX 24 24 1 0
BITMAP
FFFFFF
3C003C
1C0038
1C0038
1C0038
1C0038
1C0038
1C0038
1C0038
1C0038
1C0038
1C0038
1C0038
1C0038
1C0038
1C0038
1C0038
1C0038
1C0038
1C0038
1E0038
1E0078
1E007C
FFC3FF
ENDCHAR
STARTCHAR 03A1
ENCODING 929
SWIDTH 553 0
DWIDTH 20 0
BBX 18 24 1 0
BITMAP
FFF800
3FFE00
1C0F00
1C0780
1C0780
1C03C0
1C03C0
1C03C0
1C03C0
1C0780
1C0780
1C0F00
1FFC00
1C0000
1C0000
1C0000
1C0000
1C0000
1C0000
1C0000
1C0000
1E0000
1E0000
FFC000
ENDCHAR
STARTCHAR 03A3
ENCODING 931
SWIDTH 581 0
DWIDTH 21 0
BBX 19 24 1 0
BITMAP
FFFFC0
FFFFC0
7800C0
3C0040
3E0040
1F0040
0F0000
078000
03C000
03E000
01F000
00E000
006000
00C000
018000
030000
060000
040020
080020
180060
3001E0
7FFFC0
FFFFC0
FFFFC0
ENDCHAR
STARTCHAR 03A4
ENCODING 932
SWIDTH 609 0
DWIDTH 22 0
BBX 20 24 1 0
BITMAP
FFFFF0
FFFFF0
C0F030
80F010
80F010
80F010
00F000
00F000
00F000
00F000
00F000
00F000
00F000
00F000
00F000
00F000
00F000
00F000
00F000
00F000
00F000
00F000
00F000
07FE00
ENDCHAR
STARTCHAR 03A5
ENCODING 933
SWIDTH 720 0
DWIDTH 26 0
BBX 26 24 0 0
BITMAP
FFE07FC0
3F001E00
1F000C00
0F001800
07801800
07803000
03C02000
01E06000
01E0C000
00F08000
00798000
007B0000
003E0000
001E0000
001E0000
001E0000
001E0000
001E0000
001E0000
001E0000
001E0000
001E0000
001E0000
00FFC000
ENDCHAR
STARTCHAR 03A6
ENCODING 934
SWIDTH 720 0
DWIDTH 26 0
BBX 24 24 1 0
BITMAP
01FF80
003E00
003C00
003C00
03FFE0
0E3C38
3C3C1C
383C1E
783C0E
703C0F
F03C0F
F03C0F
F03C0F
F03C0F
703C0F
783C0E
383C0E
3C3C1C
1E3C38
07BDE0
00FF00
003C00
003E00
01FF80
ENDCHAR
STARTCHAR 03A7
ENCODING 935
SWIDTH 720 0
DWIDTH 26 0
BBX 26 24 0 0
BITMAP
7FF07F80
1FC01E00
07801800
03C01000
03E03000
01E06000
00F0C000
00798000
00798000
003F0000
001E0000
001E0000
000F0000
001F8000
00378000
0063C000
00C1E000
0081E000
0180F000
03007800
06007800
0E003C00
1E003E00
FF81FFC0
ENDCHAR
STARTCHAR 03A8
ENCODING 936
SWIDTH 747 0
DWIDTH 27 0
BBX 26 24 0 0
BITMAP
F0FFE1C0
381F0380
381E0380
3C0E0780
3C0E0780
3C0E0780
3C0E0700
3C0E0700
1C0E0700
1C0E0F00
1E0E0E00
0F0E1C00
03FFF800
007F8000
000E0000
000E0000
000E0000
000E0000
000E0000
000E0000
000E0000
000E0000
001F0000
00FFE000
ENDCHAR
STARTCHAR 03A9
ENCODING 937
SWIDTH 747 0
DWIDTH 27 0
BBX 25 24 1 0
BITMAP
01FFC000
0381F000
0F007800
1E003C00
1C001E00
3C001E00
3C001F00
78000F00
78000F00
78000F00
78000F00
78000F00
78000F00
3C000E00
3C001E00
1C001C00
1E003C00
0F003800
8380E080
80C18080
C0C10180
FFC1FF80
FFC1FF80
FFC1FF80
ENDCHAR
STARTCHAR 03AA
ENCODING 938
SWIDTH 332 0
DWIDTH 12 0
BBX 10 30 1 0
BITMAP
E1C0
F3C0
F3C0
6180
0000
0000
FFC0
1E00
1E00
1E00
1E00
1E00
1E00
1E00
1E00
1E00
1E00
1E00
1E00
1E00
1E00
1E00
1E00
1E00
1E00
1E00
1E00
1E00
1E00
FFC0
ENDCHAR
STARTCHAR 03AB
ENCODING 939
SWIDTH 720 0
DWIDTH 26 0
BBX 26 30 0 0
BITMAP
0071C000
00F1C000
00F1C000
00608000
00000000
00000000
FFE07FC0
3F001E00
1F000C00
0F001800
07801800
07803000
03C02000
01E06000
01E0C000
00F08000
00798000
007B0000
003E0000
001E0000
001E0000
001E0000
001E0000
001E0000
001E0000
001E0000
001E0000
001E0000
001E0000
00FFC000
ENDCHAR
STARTCHAR 03AC
ENCODING 940
SWIDTH 526 0
DWIDTH 19 0
BBX 17 25 2 0
BITMAP
01E000
01C000
018000
038000
030000
020000
040000
000000
040000
1F8E00
708E00
705C00
E05C00
E03C00
E03C00
E03800
E03800
E03800
E03800
E03000
E07800
E07880
70E880
70EF00
3F8700
ENDCHAR
STARTCHAR 03AD
ENCODING 941
SWIDTH 415 0
DWIDTH 15 0
BBX 14 25 1 0
BITMAP
01E0
01E0
01C0
0180
0300
0200
0000
0000
0180
1CF0
3878
7038
7010
7000
3000
1800
0FC0
3800
7000
F000
F018
F03C
7038
3878
1FF0
ENDCHAR
STARTCHAR 03AE
ENCODING 942
SWIDTH 526 0
DWIDTH 19 0
BBX 17 33 0 -8
BITMAP
007800
007800
007000
006000
00C000
008000
000000
000000
101800
7C7E00
9EFF00
8F0700
0E0700
0E0700
0E0700
0E0700
0E0700
0E0700
0E0700
0E0700
0E0700
0E0700
0E0700
0E0700
0E0700
000700
000700
000700
000700
000700
000300
000380
000380
ENDCHAR
STARTCHAR 03AF
ENCODING 943
SWIDTH 276 0
DWIDTH 10 0
BBX 9 25 1 0
BITMAP
0F00
0E00
1C00
1800
1800
3000
2000
0000
0800
3800
F800
3800
3800
3800
3800
3800
3800
3800
3800
3800
3800
3880
3880
1D00
1F00
ENDCHAR
STARTCHAR 03B0
ENCODING 944
SWIDTH 498 0
DWIDTH 18 0
BBX 17 25 0 0
BITMAP
007800
007000
00E000
1CCE00
1C8E00
1D0E00
090400
000000
102000
7C1C00
9C0E00
9C0600
1C0700
1C0700
1C0700
1C0700
1C0780
1C0700
1C0700
0C0700
0C0700
0E0600
0E0E00
070C00
03F000
ENDCHAR
STARTCHAR 03B1
ENCODING 945
SWIDTH 526 0
DWIDTH 19 0
BBX 17 17 2 0
BITMAP
040000
1F8E00
708E00
705C00
E05C00
E03C00
E03C00
E03800
E03800
E03800
E03800
E03000
E07800
E07880
70E880
70EF00
3F8700
ENDCHAR
STARTCHAR 03B2
ENCODING 946
SWIDTH 498 0
DWIDTH 18 0
BBX 15 33 2 -8
BITMAP
0FC0
1C70
3038
7038
701C
701C
701C
6018
6038
6030
63E0
63F0
6038
601C
601E
600E
600E
600E
600E
600E
600E
601C
701C
7838
6FF0
6100
6000
6000
6000
E000
E000
E000
E000
ENDCHAR
STARTCHAR 03B3
ENCODING 947
SWIDTH 443 0
DWIDTH 16 0
BBX 15 24 0 -8
BITMAP
7C0E
7C0E
CE1C
861C
8618
0238
0330
0330
0370
0160
0160
0140
01C0
0180
0080
0180
0180
0180
0380
0380
0380
0380
0300
0300
ENDCHAR
STARTCHAR 03B4
ENCODING 948
SWIDTH 470 0
DWIDTH 17 0
BBX 15 25 1 0
BITMAP
0FE0
10F8
3078
2038
1000
1800
0C00
0700
0380
01E0
03F0
0C78
1838
301C
701C
701E
F01E
E00E
E00E
F00C
701C
701C
7818
3C30
1FE0
ENDCHAR
STARTCHAR 03B5
ENCODING 949
SWIDTH 415 0
DWIDTH 15 0
BBX 14 17 1 0
BITMAP
0180
1CF0
3878
7038
7010
7000
3000
1800
0FC0
3800
7000
F000
F018
F03C
7038
3878
1FF0
ENDCHAR
STARTCHAR 03B6
ENCODING 950
SWIDTH 415 0
DWIDTH 15 0
BBX 14 33 1 -8
BITMAP
0800
1038
3078
31F0
1BC0
0600
0C00
0800
1000
3000
2000
6000
4000
4000
4000
C000
C000
C000
C000
C000
E000
7000
7FE0
3FF8
1FF8
03FC
000C
000C
000C
0008
03D8
03F0
01C0
ENDCHAR
STARTCHAR 03B7
ENCODING 951
SWIDTH 526 0
DWIDTH 19 0
BBX 17 25 0 -8
BITMAP
101800
7C7E00
9EFF00
8F0700
0E0700
0E0700
0E0700
0E0700
0E0700
0E0700
0E0700
0E0700
0E0700
0E0700
0E0700
0E0700
0E0700
000700
000700
000700
000700
000700
000300
000380
000380
ENDCHAR
STARTCHAR 03B8
ENCODING 952
SWIDTH 470 0
DWIDTH 17 0
BBX 15 25 1 0
BITMAP
03C0
0C60
1830
1818
3018
301C
701C
701C
701E
700E
700E
F00E
FFFE
F00E
F00E
700E
700E
701C
701C
701C
301C
3818
1830
0C30
07C0
ENDCHAR
STARTCHAR 03B9
ENCODING 953
SWIDTH 276 0
DWIDTH 10 0
BBX 9 17 1 0
BITMAP
0800
3800
F800
3800
3800
3800
3800
3800
3800
3800
3800
3800
3800
3880
3880
1D00
1F00
ENDCHAR
STARTCHAR 03BA
ENCODING 954
SWIDTH 498 0
DWIDTH 18 0
BBX 18 17 0 0
BITMAP
040100
3C07C0
FC1FC0
1C3000
1C6000
1CC000
1D8000
1D8000
1FC000
1DC000
1CE000
1CF000
1C7800
1C3C00
1C1E00
1C0F00
1C0FC0
ENDCHAR
STARTCHAR 03BB
ENCODING 955
SWIDTH 498 0
DWIDTH 18 0
BBX 17 25 1 0
BITMAP
380000
7C0000
7E0000
C60000
820000
830000
030000
010000
010000
018000
038000
038000
078000
078000
0EC000
0E4000
1E4000
1C4000
3C6000
386000
382080
703080
703900
E01F00
E01E00
ENDCHAR
STARTCHAR 03BC
ENCODING 956
SWIDTH 526 0
DWIDTH 19 0
BBX 17 24 2 -8
BITMAP
701C00
701C00
701C00
701C00
701C00
701C00
701C00
701C00
701C00
701C00
701C00
701C00
703C00
785C80
7F9C80
5F0F00
400000
600000
600000
E00000
E00000
F00000
E00000
600000
ENDCHAR
STARTCHAR 03BD
ENCODING 957
SWIDTH 443 0
DWIDTH 16 0
BBX 17 17 -1 0
BITMAP
080000
3C0780
FC0780
1C0700
0E0300
0E0300
060200
070600
070400
030C00
038800
039800
01D000
01E000
01E000
00C000
00C000
ENDCHAR
STARTCHAR 03BE
ENCODING 958
SWIDTH 443 0
DWIDTH 16 0
BBX 15 33 1 -8
BITMAP
1800
1070
31F0
1BE0
0F00
0800
0800
1800
1800
0810
0DFC
07F8
0800
1000
2000
6000
4000
C000
C000
C000
C000
6000
7FF8
3FFC
1FFC
038E
0006
0002
0002
0004
01FC
01F8
00E0
ENDCHAR
STARTCHAR 03BF
ENCODING 959
SWIDTH 498 0
DWIDTH 18 0
BBX 16 17 1 0
BITMAP
0180
0FF0
1838
301C
701E
700E
700F
E00F
F00F
F007
F007
700E
700E
780E
380C
1C18
0FF0
ENDCHAR
STARTCHAR 03C0
ENCODING 960
SWIDTH 498 0
DWIDTH 18 0
BBX 18 16 0 0
BITMAP
1FFFC0
3FFFC0
721800
421800
821800
061800
061800
061800
061800
0E3800
0E3800
1C3800
1C3880
3C3C80
3C3F80
381F00
ENDCHAR
STARTCHAR 03C1
ENCODING 961
SWIDTH 498 0
DWIDTH 18 0
BBX 15 25 2 -8
BITMAP
0180
0FF0
10F8
307C
603C
601C
E01E
E00E
E00E
E00E
E00E
E00C
E00C
E018
F018
F030
EFC0
E000
E000
E000
E000
E000
E000
E000
E000
ENDCHAR
STARTCHAR 03C2
ENCODING 962
SWIDTH 387 0
DWIDTH 14 0
BBX 13 25 1 -8
BITMAP
00C0
07F0
0FF8
1010
2000
6000
4000
4000
C000
C000
C000
C000
C000
6000
7FE0
3FF0
1FF0
0338
0018
0008
0018
0010
0730
07E0
0380
ENDCHAR
STARTCHAR 03C3
ENCODING 963
SWIDTH 526 0
DWIDTH 19 0
BBX 18 16 1 0
BITMAP
07FFC0
1FFFC0
3F2000
781800
701C00
700C00
E00E00
E00700
E00700
E00700
700700
700700
380E00
380E00
1C1C00
07F000
ENDCHAR
STARTCHAR 03C4
ENCODING 964
SWIDTH 415 0
DWIDTH 15 0
BBX 14 16 0 0
BITMAP
1FFC
3FFC
7380
4380
8300
0300
0300
0300
0300
0700
0700
0700
0708
0790
03F0
03E0
ENDCHAR
STARTCHAR 03C5
ENCODING 965
SWIDTH 498 0
DWIDTH 18 0
BBX 17 17 0 0
BITMAP
102000
7C1C00
9C0E00
9C0600
1C0700
1C0700
1C0700
1C0700
1C0780
1C0700
1C0700
0C0700
0C0700
0E0600
0E0E00
070C00
03F000
ENDCHAR
STARTCHAR 03C6
ENCODING 966
SWIDTH 581 0
DWIDTH 21 0
BBX 19 25 1 -8
BITMAP
021800
0C7E00
387F00
30C380
70C1C0
70C1C0
F0C1C0
E0C0E0
E0C0E0
F0C0E0
F0C0C0
70C0C0
70C1C0
78C180
38C300
1CC700
07FC00
00C000
00C000
00C000
00C000
00C000
00C000
00C000
00C000
ENDCHAR
STARTCHAR 03C7
ENCODING 967
SWIDTH 443 0
DWIDTH 16 0
BBX 17 24 0 -8
BITMAP
3C0E00
7C0E00
461C00
421C00
823800
033800
017000
017000
01E000
01E000
01C000
01C000
038000
03C000
07C000
074000
0E4000
0E6000
1C6080
1C2080
383080
383F00
701F00
700E00
ENDCHAR
STARTCHAR 03C8
ENCODING 968
SWIDTH 636 0
DWIDTH 23 0
BBX 22 24 0 -8
BITMAP
F8303C
383070
1C3070
1C3070
1C3070
1C30F0
1C30F0
1C30E0
1E30E0
0E30E0
0E30E0
0E30C0
0631C0
073180
03B300
00FE00
003000
003000
003000
003000
003000
003000
003000
003000
ENDCHAR
STARTCHAR 03C9
ENCODING 969
SWIDTH 664 0
DWIDTH 24 0
BBX 21 17 1 0
BITMAP
018600
0E01C0
1C00E0
380070
703070
707038
707838
F07838
F07038
F07038
F03038
F03038
702038
703038
703070
384870
1F87E0
ENDCHAR
STARTCHAR 03CA
ENCODING 970
SWIDTH 276 0
DWIDTH 10 0
BBX 10 22 0 0
BITMAP
E380
F3C0
E3C0
4000
0000
0400
1C00
7C00
1C00
1C00
1C00
1C00
1C00
1C00
1C00
1C00
1C00
1C00
1C40
1C40
0E80
0F80
ENDCHAR
STARTCHAR 03CB
ENCODING 971
SWIDTH 498 0
DWIDTH 18 0
BBX 17 22 0 0
BITMAP
0E3800
0E3C00
0E3800
041000
000000
102000
7C1C00
9C0E00
9C0600
1C0700
1C0700
1C0700
1C0700
1C0780
1C0700
1C0700
0C0700
0C0700
0E0600
0E0E00
070C00
03F000
ENDCHAR
STARTCHAR 03CC
ENCODING 972
SWIDTH 498 0
DWIDTH 18 0
BBX 16 25 1 0
BITMAP
00F0
01E0
01C0
0180
0100
0200
0200
0000
0180
0FF0
1838
301C
701E
700E
700F
E00F
F00F
F007
F007
700E
700E
780E
380C
1C18
0FF0
ENDCHAR
STARTCHAR 03CD
ENCODING 973
SWIDTH 498 0
DWIDTH 18 0
BBX 17 25 0 0
BITMAP
007800
00F000
00E000
00C000
008000
010000
010000
000000
102000
7C1C00
9C0E00
9C0600
1C0700
1C0700
1C0700
1C0700
1C0780
1C0700
1C0700
0C0700
0C0700
0E0600
0E0E00
070C00
03F000
ENDCHAR
STARTCHAR 03CE
ENCODING 974
SWIDTH 664 0
DWIDTH 24 0
BBX 21 25 1 0
BITMAP
001E00
001C00
003800
003000
002000
006000
004000
000000
018600
0E01C0
1C00E0
380070
703070
707038
707838
F07838
F07038
F07038
F03038
F03038
702038
703038
703070
384870
1F87E0
ENDCHAR
STARTCHAR 0401
ENCODING 1025
SWIDTH 609 0
DWIDTH 22 0
BBX 20 30 1 0
BITMAP
030E00
079E00
079E00
030C00
000000
000000
FFFFC0
1E03C0
1E0040
1E0040
1E0040
1E0000
1E0000
1E0000
1E0100
1E0100
1E0300
1FFF00
1E0300
1E0100
1E0100
1E0000
1E0000
1E0000
1E0010
1E0010
1E0020
1E0060
1E01E0
FFFFC0
ENDCHAR
STARTCHAR 0402
ENCODING 1026
SWIDTH 747 0
DWIDTH 27 0
BBX 25 24 1 0
BITMAP
FFFFC000
FFFFC000
C1E04000
81E04000
81E04000
01E00000
01E00000
01E06000
01E3FC00
01EFFE00
01FC1E00
01F00F00
01E00F00
01E00F80
01E00780
01E00780
01E00780
01E00780
01E00780
01E00700
01E00700
01E00E00
01E00E00
0FFCF800
ENDCHAR
STARTCHAR 0403
ENCODING 1027
SWIDTH 581 0
DWIDTH 21 0
BBX 19 32 1 0
BITMAP
007800
007000
00E000
00C000
008000
000000
000000
000000
FFFFE0
3C03E0
1C0060
1C0020
1C0020
1C0020
1C0000
1C0000
1C0000
1C0000
1C0000
1C0000
1C0000
1C0000
1C0000
1C0000
1C0000
1C0000
1C0000
1C0000
1E0000
1E0000
1E0000
FFC000
ENDCHAR
STARTCHAR 0404
ENCODING 1028
SWIDTH 664 0
DWIDTH 24 0
BBX 21 25 1 -1
BITMAP
00FF90
0381F8
070078
0E0038
1C0018
3C0008
380008
780008
780000
780000
F00000
FFFC00
F00000
F00000
780000
780000
780000
780000
3C0000
1C0008
1E0008
0F0010
07C060
01FF80
000800
ENDCHAR
STARTCHAR 0405
ENCODING 1029
SWIDTH 553 0
DWIDTH 20 0
BBX 16 25 2 -1
BITMAP
0FE2
383E
701E
600E
E006
E006
F002
F802
7C00
3F00
3FC0
0FF0
07F8
01FC
007E
001F
800F
8007
C007
C007
E007
F00E
F81C
8FF8
8080
ENDCHAR
STARTCHAR 0406
ENCODING 1030
SWIDTH 332 0
DWIDTH 12 0
BBX 10 24 1 0
BITMAP
FFC0
1E00
1E00
1E00
1E00
1E00
1E00
1E00
1E00
1E00
1E00
1E00
1E00
1E00
1E00
1E00
1E00
1E00
1E00
1E00
1E00
1E00
1E00
FFC0
ENDCHAR
STARTCHAR 0407
ENCODING 1031
SWIDTH 332 0
DWIDTH 12 0
BBX 10 30 1 0
BITMAP
E1C0
F3C0
F3C0
6180
0000
0000
FFC0
1E00
1E00
1E00
1E00
1E00
1E00
1E00
1E00
1E00
1E00
1E00
1E00
1E00
1E00
1E00
1E00
1E00
1E00
1E00
1E00
1E00
1E00
FFC0
ENDCHAR
STARTCHAR 0408
ENCODING 1032
SWIDTH 387 0
DWIDTH 14 0
BBX 13 25 1 -1
BITMAP
1FF8
07C0
03C0
0380
0380
0380
0380
0380
0380
0380
0380
0380
0380
0380
0380
0380
0380
0380
0380
0380
E380
E300
F300
FE00
1000
ENDCHAR
STARTCHAR 0409
ENCODING 1033
SWIDTH 858 0
DWIDTH 31 0
BBX 30 24 0 0
BITMAP
0FFFFE00
01C0F000
00C0F000
00C0F000
00C0F000
00C0F000
00C0F000
00C0F000
00C0F000
00C0F000
0080F000
0080FF80
0080FFF0
0080F0F8
0080F07C
0080F03C
0080F03C
0180F03C
0180F03C
0100F03C
0300F078
F700F078
FE00F1E0
7C07FF80
ENDCHAR
STARTCHAR 040A
ENCODING 1034
SWIDTH 858 0
DWIDTH 31 0
BBX 29 24 1 0
BITMAP
FFCFFC00
1E01E000
1E01E000
1E01E000
1C01E000
1C01E000
1C01E000
1C01E000
1C01E000
1C01E000
1C01E000
1FFFFF00
1C01FFE0
1C01E1F0
1C01E0F8
1C01E078
1C01E078
1C01E078
1C01E078
1C01E078
1E01E0F0
1E01E0F0
1E01E3C0
FFCFFF00
ENDCHAR
STARTCHAR 040B
ENCODING 1035
SWIDTH 747 0
DWIDTH 27 0
BBX 25 24 1 0
BITMAP
FFFFC000
FFFFC000
C1E04000
81E04000
81E04000
01E00000
01E00000
01E04000
01E3F800
01EFFC00
01FC3C00
01F01C00
01E01C00
01E01C00
01E01C00
01E01C00
01E01C00
01E01C00
01E01C00
01E01C00
01E01C00
01E01E00
01E01E00
0FFCFF80
ENDCHAR
STARTCHAR 040C
ENCODING 1036
SWIDTH 664 0
DWIDTH 24 0
BBX 23 32 1 0
BITMAP
001E00
001C00
003800
003000
002000
004000
000000
000000
FFC0FC
3E01FC
1E01BC
1E0300
1C0200
1C0600
1C0600
1C0400
1C0C00
1C1800
1C3000
1FE000
1FF000
1C7800
1C3C00
1C1E00
1C0E00
1C0F00
1C0780
1C03C0
1E03C0
1E01E0
1E00F0
FFC0FE
ENDCHAR
STARTCHAR 040D
ENCODING 1037
SWIDTH 720 0
DWIDTH 26 0
BBX 24 32 1 0
BITMAP
00E000
00F000
007000
003000
001800
000800
000000
000000
FFC3FF
3E007C
1E0078
1E0038
1C0078
1C00F8
1C00B8
1C0138
1C0338
1C0638
1C0438
1C0838
1C1038
1C3038
1C6038
1C4038
1C8038
1D8038
1F0038
1E0038
1E0038
1E0078
1E007C
FFC3FF
ENDCHAR
STARTCHAR 040E
ENCODING 1038
SWIDTH 720 0
DWIDTH 26 0
BBX 25 33 0 -1
BITMAP
01002000
03807000
03C0F000
01E0E000
00F1C000
000E0000
00000000
00000000
FFC07F80
3F001E00
1F000C00
0F000800
07801800
07801000
03C03000
03C03000
01E02000
00E06000
00F04000
0070C000
0078C000
003C8000
003D8000
001F0000
001F0000
000E0000
00060000
00040000
000C0000
03180000
07F00000
03E00000
00800000
ENDCHAR
STARTCHAR 040F
ENCODING 1039
SWIDTH 720 0
DWIDTH 26 0
BBX 24 30 1 -7
BITMAP
FFC3FF
3E007C
1E0078
1E0038
1C0038
1C0038
1C0038
1C0038
1C0038
1C0038
1C0038
1C0038
1C0038
1C0038
1C0038
1C0038
1C0038
1C0038
1C0038
1C0038
1E0038
1E0038
1E007C
FFFFFF
007E00
003C00
001800
001800
001800
001000
ENDCHAR
STARTCHAR 0410
ENCODING 1040
SWIDTH 720 0
DWIDTH 26 0
BBX 26 24 0 0
BITMAP
000C0000
000C0000
001C0000
001E0000
001E0000
003F0000
00270000
00678000
00478000
00C38000
00C3C000
0081C000
0181E000
0100E000
0300F000
03FFF000
06007000
06007800
04003800
0C003C00
08003C00
18001E00
38001E00
FF00FFC0
ENDCHAR
STARTCHAR 0411
ENCODING 1041
SWIDTH 581 0
DWIDTH 21 0
BBX 19 24 1 0
BITMAP
FFFF80
1C0F80
1C0180
1C0080
1C0080
1C0000
1C0000
1C0000
1C0000
1C0000
1C0000
1FFC00
1C1F00
1C0780
1C03C0
1C03C0
1C01E0
1C01E0
1C03C0
1C03C0
1C03C0
1C0780
1C1F00
FFFC00
ENDCHAR
STARTCHAR 0412
ENCODING 1042
SWIDTH 664 0
DWIDTH 24 0
BBX 21 24 1 0
BITMAP
FFFC00
3F1F80
1C03C0
1C01E0
1C00F0
1C00F0
1C00F0
1C00F0
1C00F0
1C01E0
1C03C0
1FFF00
1C0FC0
1C01E0
1C00F0
1C00F8
1C0078
1C0078
1C0078
1C0078
1C00F0
1C01E0
1F07C0
FFFF00
ENDCHAR
STARTCHAR 0413
ENCODING 1043
SWIDTH 581 0
DWIDTH 21 0
BBX 19 24 1 0
BITMAP
FFFFE0
3C03E0
1C0060
1C0020
1C0020
1C0020
1C0000
1C0000
1C0000
1C0000
1C0000
1C0000
1C0000
1C0000
1C0000
1C0000
1C0000
1C0000
1C0000
1C0000
1E0000
1E0000
1E0000
FFC000
ENDCHAR
STARTCHAR 0414
ENCODING 1044
SWIDTH 692 0
DWIDTH 25 0
BBX 24 31 0 -7
BITMAP
0FFFFF
01C078
00C078
00C078
00C078
00C078
00C078
00C078
00C078
008078
008078
008078
008078
018078
018078
010078
010078
030078
020078
060078
060078
0C0078
1801F8
FFFFFF
FC001F
F0000F
E00007
C00003
C00001
800001
800001
ENDCHAR
STARTCHAR 0415
ENCODING 1045
SWIDTH 609 0
DWIDTH 22 0
BBX 20 24 1 0
BITMAP
FFFFC0
1E03C0
1E0040
1E0040
1E0040
1E0000
1E0000
1E0000
1E0100
1E0100
1E0300
1FFF00
1E0300
1E0100
1E0100
1E0000
1E0000
1E0000
1E0010
1E0010
1E0020
1E0060
1E01E0
FFFFC0
ENDCHAR
STARTCHAR 0416
ENCODING 1046
SWIDTH 886 0
DWIDTH 32 0
BBX 32 24 0 0
BITMAP
7C1FF83E
7E03C07F
7B03C0CF
0103C0C0
0183C080
0183C180
0083C180
00C3C100
00C3C300
0043C300
0063C600
003FFC00
003BDE00
0073CE00
00F3C700
00E3C780
01C3C380
01C3C3C0
0383C1C0
0783C0E0
0703C0F0
0F03C070
1E03C07C
FE1FF83F
ENDCHAR
STARTCHAR 0417
ENCODING 1047
SWIDTH 498 0
DWIDTH 18 0
BBX 16 25 1 -1
BITMAP
4FF0
787C
601C
601E
400E
400E
000E
001E
001C
0038
00F0
07C0
00F8
003C
001E
001E
001E
000F
000F
001E
801E
403C
307C
1FF0
0100
ENDCHAR
STARTCHAR 0418
ENCODING 1048
SWIDTH 720 0
DWIDTH 26 0
BBX 24 24 1 0
BITMAP
FFC3FF
3E007C
1E0078
1E0038
1C0078
1C00F8
1C00B8
1C0138
1C0338
1C0638
1C0438
1C0838
1C1038
1C3038
1C6038
1C4038
1C8038
1D8038
1F0038
1E0038
1E0038
1E0078
1E007C
FFC3FF
ENDCHAR
STARTCHAR 0419
ENCODING 1049
SWIDTH 720 0
DWIDTH 26 0
BBX 24 32 1 0
BITMAP
020040
0700E0
0781E0
0381C0
01E780
001800
000000
000000
FFC3FF
3E007C
1E0078
1E0038
1C0078
1C00F8
1C00B8
1C0138
1C0338
1C0638
1C0438
1C0838
1C1038
1C3038
1C6038
1C4038
1C8038
1D8038
1F0038
1E0038
1E0038
1E0078
1E007C
FFC3FF
ENDCHAR
STARTCHAR 041A
ENCODING 1050
SWIDTH 664 0
DWIDTH 24 0
BBX 23 24 1 0
BITMAP
FFC0FC
3E01FC
1E01BC
1E0300
1C0200
1C0600
1C0600
1C0400
1C0C00
1C1800
1C3000
1FE000
1FF000
1C7800
1C3C00
1C1E00
1C0E00
1C0F00
1C0780
1C03C0
1E03C0
1E01E0
1E00F0
FFC0FE
ENDCHAR
STARTCHAR 041B
ENCODING 1051
SWIDTH 664 0
DWIDTH 24 0
BBX 24 24 0 0
BITMAP
07FFFF
01C078
00C078
00C070
00C070
00C070
00C070
00C070
00C070
00C070
00C070
00C070
00C070
008070
008070
008070
008070
008070
018070
018070
030070
F70078
FE00F8
7C03FF
ENDCHAR
STARTCHAR 041C
ENCODING 1052
SWIDTH 886 0
DWIDTH 32 0
BBX 30 24 1 0
BITMAP
FE0001FC
3E0001F0
1E0003E0
1F0003E0
1F0002E0
1F8006E0
1B8004E0
1BC00CE0
19C008E0
19E018E0
18E018E0
18F030E0
18F030E0
187860E0
187860E0
183C40E0
183CC0E0
181C80E0
181F80E0
180F00E0
180F00E0
180701E0
180601E0
FF020FFC
ENDCHAR
STARTCHAR 041D
ENCODING 1053
SWIDTH 720 0
DWIDTH 26 0
BBX 24 24 1 0
BITMAP
FFC3FF
1E0078
1E0078
1C0038
1C0038
1C0038
1C0038
1C0038
1C0038
1C0038
1C0038
1FFFF8
1C0038
1C0038
1C0038
1C0038
1C0038
1C0038
1C0038
1C0038
1C0038
1E0078
1E0078
FFC3FF
ENDCHAR
STARTCHAR 041E
ENCODING 1054
SWIDTH 720 0
DWIDTH 26 0
BBX 24 25 1 -1
BITMAP
01FF80
0381E0
0E0070
1E0078
1C003C
38001C
78001E
78001E
78001E
F0001F
F0000F
F0000F
F0000F
F0000F
F0000E
78001E
78001E
78001E
38001C
3C0038
1E0038
0E0070
0781C0
01FF80
001000
ENDCHAR
STARTCHAR 041F
ENCODING 1055
SWIDTH 720 0
DWIDTH 26 0
BBX 24 24 1 0
BITMAP
FFFFFF
3C003C
1C0038
1C0038
1C0038
1C0038
1C0038
1C0038
1C0038
1C0038
1C0038
1C0038
1C0038
1C0038
1C0038
1C0038
1C0038
1C0038
1C0038
1C0038
1E0038
1E0078
1E007C
FFC3FF
ENDCHAR
STARTCHAR 0420
ENCODING 1056
SWIDTH 553 0
DWIDTH 20 0
BBX 18 24 1 0
BITMAP
FFF800
3FFE00
1C0F00
1C0780
1C0780
1C03C0
1C03C0
1C03C0
1C03C0
1C0780
1C0780
1C0F00
1FFC00
1C0000
1C0000
1C0000
1C0000
1C0000
1C0000
1C0000
1C0000
1E0000
1E0000
FFC000
ENDCHAR
STARTCHAR 0421
ENCODING 1057
SWIDTH 664 0
DWIDTH 24 0
BBX 22 25 1 -1
BITMAP
00FF88
0380F8
070038
0E0018
1C0018
3C0008
380008
780000
780000
780000
F00000
F00000
F00000
F00000
F00000
780000
780000
780000
3C0004
3C0008
1E0010
0F0030
07C0C0
01FF80
001000
ENDCHAR
STARTCHAR 0422
ENCODING 1058
SWIDTH 609 0
DWIDTH 22 0
BBX 20 24 1 0
BITMAP
FFFFF0
FFFFF0
C0F030
80F010
80F010
80F010
00F000
00F000
00F000
00F000
00F000
00F000
00F000
00F000
00F000
00F000
00F000
00F000
00F000
00F000
00F000
00F000
00F000
07FE00
ENDCHAR
STARTCHAR 0423
ENCODING 1059
SWIDTH 720 0
DWIDTH 26 0
BBX 25 25 0 -1
BITMAP
FFC07F80
3F001E00
1F000C00
0F000800
07801800
07801000
03C03000
03C03000
01E02000
00E06000
00F04000
0070C000
0078C000
003C8000
003D8000
001F0000
001F0000
000E0000
00060000
00040000
000C0000
03180000
07F00000
03E00000
00800000
ENDCHAR
STARTCHAR 0424
ENCODING 1060
SWIDTH 803 0
DWIDTH 29 0
BBX 26 24 1 0
BITMAP
00FFC000
001F0000
001E0000
000E0000
07FFF800
0E0E1E00
3C0E0700
380E0780
780E03C0
700E03C0
F00E01C0
F00E01C0
F00E01C0
F00E01C0
700E03C0
780E0380
380E0380
3C0E0700
1E0E1E00
07FFFC00
007FC000
000E0000
001E0000
00FFC000
ENDCHAR
STARTCHAR 0425
ENCODING 1061
SWIDTH 720 0
DWIDTH 26 0
BBX 26 24 0 0
BITMAP
7FF07F80
1FC01E00
07801800
03C01000
03E03000
01E06000
00F0C000
00798000
00798000
003F0000
001E0000
001E0000
000F0000
001F8000
00378000
0063C000
00C1E000
0081E000
0180F000
03007800
06007800
0E003C00
1E003E00
FF81FFC0
ENDCHAR
STARTCHAR 0426
ENCODING 1062
SWIDTH 720 0
DWIDTH 26 0
BBX 24 30 1 -7
BITMAP
FFC3FF
3E007C
1E0078
1E0038
1C0038
1C0038
1C0038
1C0038
1C0038
1C0038
1C0038
1C0038
1C0038
1C0038
1C0038
1C0038
1C0038
1C0038
1C0038
1C0038
1E0038
1E0038
1E00F8
FFFFFF
00001F
000007
000003
000003
000001
000001
ENDCHAR
STARTCHAR 0427
ENCODING 1063
SWIDTH 636 0
DWIDTH 23 0
BBX 23 24 0 0
BITMAP
FFC7FE
1E01F0
1E00E0
1E00E0
1E00E0
1E00E0
1E00E0
1E00E0
1E00E0
1E00E0
1E00E0
1E00E0
0F03E0
0FFEE0
03F0E0
0000E0
0000E0
0000E0
0000E0
0000E0
0000E0
0000F0
0000F0
0007FE
ENDCHAR
STARTCHAR 0428
ENCODING 1064
SWIDTH 996 0
DWIDTH 36 0
BBX 34 24 1 0
BITMAP
FF87FC7FC0
1E01E01F00
1E01E00E00
1E01E00E00
1C00E00E00
1C00E00E00
1C00E00E00
1C00E00E00
1C00E00E00
1C00E00E00
1C00E00E00
1C00E00E00
1C00E00E00
1C00E00E00
1C00E00E00
1C00E00E00
1C00E00E00
1C00E00E00
1C00E00E00
1C00E00E00
1E00E00E00
1E01E00E00
1E01F00F00
FFFFFFFFC0
ENDCHAR
STARTCHAR 0429
ENCODING 1065
SWIDTH 996 0
DWIDTH 36 0
BBX 34 30 1 -7
BITMAP
FF87FC7FC0
1E01E01F00
1E01E00E00
1E01E00E00
1C00E00E00
1C00E00E00
1C00E00E00
1C00E00E00
1C00E00E00
1C00E00E00
1C00E00E00
1C00E00E00
1C00E00E00
1C00E00E00
1C00E00E00
1C00E00E00
1C00E00E00
1C00E00E00
1C00E00E00
1C00E00E00
1E00E00E00
1E01E00E00
1E01F00F00
FFFFFFFFC0
00000007C0
00000001C0
00000000C0
0000000040
0000000040
0000000040
ENDCHAR
STARTCHAR 042A
ENCODING 1066
SWIDTH 720 0
DWIDTH 26 0
BBX 23 24 1 0
BITMAP
FFFE00
F8F000
C0E000
80E000
80E000
00E000
00E000
00E000
00E000
00E000
00E000
00FFE0
00E1F8
00E03C
00E01E
00E01E
00E01E
00E01E
00E01E
00E01E
00E03C
00E07C
01E0F8
0FFFE0
ENDCHAR
STARTCHAR 042B
ENCODING 1067
SWIDTH 858 0
DWIDTH 31 0
BBX 30 24 1 0
BITMAP
FFC00FFC
3E0003E0
1E0001E0
1E0001C0
1C0001C0
1C0001C0
1C0001C0
1C0001C0
1C0001C0
1C0001C0
1C0001C0
1FFC01C0
1C1F01C0
1C0781C0
1C03C1C0
1C03C1C0
1C01E1C0
1C01E1C0
1C01C1C0
1C03C1C0
1C03C1C0
1C0781E0
1C1F01E0
FFFC0FFC
ENDCHAR
STARTCHAR 042C
ENCODING 1068
SWIDTH 581 0
DWIDTH 21 0
BBX 19 24 1 0
BITMAP
FFC000
3E0000
1E0000
1E0000
1C0000
1C0000
1C0000
1C0000
1C0000
1C0000
1C0000
1FFC00
1C1F00
1C0780
1C03C0
1C03C0
1C01E0
1C01E0
1C03C0
1C03C0
1C03C0
1C0780
1C1F00
FFFC00
ENDCHAR
STARTCHAR 042D
ENCODING 1069
SWIDTH 664 0
DWIDTH 24 0
BBX 22 25 1 -1
BITMAP
67FC00
7C0F00
780380
7001C0
6000E0
4000F0
400070
400078
000078
000078
000078
00FFFC
00007C
000078
000078
000078
000078
000070
0000F0
8000E0
4001E0
2003C0
180F00
07FE00
004000
ENDCHAR
STARTCHAR 042E
ENCODING 1070
SWIDTH 1024 0
DWIDTH 37 0
BBX 35 25 1 -1
BITMAP
FFC01FF000
1E00703C00
1E01E00E00
1E03C00700
1C03800780
1C07000380
1C0F0003C0
1C0F0003C0
1C0F0003C0
1C0F0001E0
1C1E0001E0
1FFE0001E0
1C1E0001E0
1C1F0001E0
1C0F0001E0
1C0F0001C0
1C0F0003C0
1C0F0003C0
1C07800380
1C03800780
1E03C00700
1E01E00E00
1E00F03C00
FFC03FF000
0000010000
ENDCHAR
STARTCHAR 042F
ENCODING 1071
SWIDTH 664 0
DWIDTH 24 0
BBX 23 24 0 0
BITMAP
003FFE
01F9F8
03E070
07C070
078070
078070
078070
078070
078070
03C070
01E070
00FC70
001FF0
003C70
007870
00F070
00F070
01E070
03C070
038070
078070
0F0070
1E00F8
FC07FE
ENDCHAR
STARTCHAR 0430
ENCODING 1072
SWIDTH 443 0
DWIDTH 16 0
BBX 15 17 1 0
BITMAP
0300
1DE0
3070
7070
7070
7070
0070
03F0
0E70
3870
7070
6070
E070
E070
F0F2
7F7C
3E38
ENDCHAR
STARTCHAR 0431
ENCODING 1073
SWIDTH 498 0
DWIDTH 18 0
BBX 16 25 1 0
BITMAP
0001
03FF
07FE
0FF0
1800
1000
2000
2000
60C0
47F0
583C
581E
700E
F00F
F00F
F007
F007
7007
7007
7007
7806
380E
3C0C
1E18
0FF0
ENDCHAR
STARTCHAR 0432
ENCODING 1074
SWIDTH 470 0
DWIDTH 17 0
BBX 15 16 1 0
BITMAP
FFF0
3878
383C
381C
381C
3838
3878
3FE0
3878
381C
381E
381E
381E
381C
387C
FFF0
ENDCHAR
STARTCHAR 0433
ENCODING 1075
SWIDTH 415 0
DWIDTH 15 0
BBX 13 16 1 0
BITMAP
FFF8
3818
3808
3808
3800
3800
3800
3800
3800
3800
3800
3800
3800
3800
3800
FF00
ENDCHAR
STARTCHAR 0434
ENCODING 1076
SWIDTH 498 0
DWIDTH 18 0
BBX 18 20 0 -4
BITMAP
1FFFC0
060E00
020E00
020E00
020E00
020E00
020E00
020E00
020E00
040E00
040E00
040E00
080E00
080E00
100E00
FFFFC0
E003C0
C000C0
C000C0
800040
ENDCHAR
STARTCHAR 0435
ENCODING 1077
SWIDTH 443 0
DWIDTH 16 0
BBX 14 17 1 0
BITMAP
0180
0FF0
1078
3038
603C
603C
7FFC
E000
E000
E000
E000
7004
7804
7C08
3F38
1FF0
0FE0
ENDCHAR
STARTCHAR 0436
ENCODING 1078
SWIDTH 692 0
DWIDTH 25 0
BBX 25 16 0 0
BITMAP
78FF0F00
7C1C1F00
761C3600
021C2000
021C2000
011C4000
019CC000
01FFC000
039CE000
079CF000
071C7000
0E1C7800
0E1C3800
1C1C3C00
3C1C1E00
F8FF0F80
ENDCHAR
STARTCHAR 0437
ENCODING 1079
SWIDTH 387 0
DWIDTH 14 0
BBX 13 17 0 0
BITMAP
0300
7DE0
7070
6070
6070
4070
0070
01C0
0780
00E0
0070
0038
0038
0038
C078
20F0
1FE0
ENDCHAR
STARTCHAR 0438
ENCODING 1080
SWIDTH 526 0
DWIDTH 19 0
BBX 18 16 1 0
BITMAP
FF3FC0
380E00
380E00
380E00
381E00
382E00
386E00
38CE00
398E00
3B0E00
3A0E00
3C0E00
380E00
380E00
380E00
FE3FC0
ENDCHAR
STARTCHAR 0439
ENCODING 1081
SWIDTH 526 0
DWIDTH 19 0
BBX 18 24 1 0
BITMAP
180C00
1C0C00
1C1C00
0E3800
07E000
000000
000000
000000
FF3FC0
380E00
380E00
380E00
381E00
382E00
386E00
38CE00
398E00
3B0E00
3A0E00
3C0E00
380E00
380E00
380E00
FE3FC0
ENDCHAR
STARTCHAR 043A
ENCODING 1082
SWIDTH 498 0
DWIDTH 18 0
BBX 16 16 1 0
BITMAP
FF1E
383F
3836
3860
3840
3840
3980
3FC0
39C0
38E0
38F0
3870
3878
3838
381C
FF1F
ENDCHAR
STARTCHAR 043B
ENCODING 1083
SWIDTH 498 0
DWIDTH 18 0
BBX 17 16 0 0
BITMAP
1FFF80
040E00
040E00
040E00
040E00
040E00
040E00
040E00
040E00
040E00
040E00
040E00
040E00
E40E00
FC0E00
F87F80
ENDCHAR
STARTCHAR 043C
ENCODING 1084
SWIDTH 636 0
DWIDTH 23 0
BBX 21 16 1 0
BITMAP
FC01F8
3C01E0
3E03E0
3E02E0
3E02E0
3704E0
3704E0
338CE0
3388E0
31C8E0
31D0E0
31D0E0
30E0E0
30E0E0
3061E0
FC47F8
ENDCHAR
STARTCHAR 043D
ENCODING 1085
SWIDTH 526 0
DWIDTH 19 0
BBX 18 16 1 0
BITMAP
FF3FC0
380E00
380E00
380E00
380E00
380E00
380E00
3FFE00
380E00
380E00
380E00
380E00
380E00
380E00
380E00
FF3FC0
ENDCHAR
STARTCHAR 043E
ENCODING 1086
SWIDTH 498 0
DWIDTH 18 0
BBX 16 17 1 0
BITMAP
0180
0FF0
1838
301C
701E
700E
700F
E00F
F00F
F007
F007
700E
700E
780E
380C
1C18
0FF0
ENDCHAR
STARTCHAR 043F
ENCODING 1087
SWIDTH 526 0
DWIDTH 19 0
BBX 18 16 1 0
BITMAP
FFFFC0
380E00
380E00
380E00
380E00
380E00
380E00
380E00
380E00
380E00
380E00
380E00
380E00
380E00
380E00
FF3FC0
ENDCHAR
STARTCHAR 0440
ENCODING 1088
SWIDTH 498 0
DWIDTH 18 0
BBX 17 25 0 -8
BITMAP
042000
3CFC00
FDFE00
3E1F00
1C0F00
1C0780
1C0780
1C0780
1C0380
1C0380
1C0380
1C0300
1C0700
1C0700
1C0600
1E0C00
1FF800
1C0000
1C0000
1C0000
1C0000
1C0000
1C0000
3C0000
FF0000
ENDCHAR
STARTCHAR 0441
ENCODING 1089
SWIDTH 443 0
DWIDTH 16 0
BBX 14 17 1 0
BITMAP
0180
0FF0
1878
3038
7038
6010
6000
E000
E000
E000
F000
F004
7808
7808
3E30
1FF0
0FC0
ENDCHAR
STARTCHAR 0442
ENCODING 1090
SWIDTH 443 0
DWIDTH 16 0
BBX 15 16 0 0
BITMAP
7FFE
4386
C382
8382
0380
0380
0380
0380
0380
0380
0380
0380
0380
0380
03C0
0FF8
ENDCHAR
STARTCHAR 0443
ENCODING 1091
SWIDTH 498 0
DWIDTH 18 0
BBX 18 24 0 -8
BITMAP
FF07C0
3C0300
1C0300
1C0200
0E0600
0E0400
070C00
070C00
038800
039800
01D000
01F000
01F000
00E000
00E000
004000
00C000
00C000
008000
018000
330000
7E0000
7E0000
380000
ENDCHAR
STARTCHAR 0444
ENCODING 1092
SWIDTH 636 0
DWIDTH 23 0
BBX 20 33 2 -8
BITMAP
006000
03E000
00E000
00E000
00E000
00E000
00E000
00E000
0CE200
3FEF80
70F1C0
60E0E0
E0E0E0
E0E0E0
E0E070
E0E070
E0E070
E0E070
E0E070
E0E070
E0E060
E0E0E0
60E0C0
30F1C0
3FEF80
00E000
00E000
00E000
00E000
00E000
00E000
00F000
03FC00
ENDCHAR
STARTCHAR 0445
ENCODING 1093
SWIDTH 498 0
DWIDTH 18 0
BBX 18 16 0 0
BITMAP
FF3F00
1E0C00
0E1800
0F1000
07A000
03E000
03C000
01E000
01E000
037000
067800
043800
081C00
181E00
300F00
7C3FC0
ENDCHAR
STARTCHAR 0446
ENCODING 1094
SWIDTH 526 0
DWIDTH 19 0
BBX 18 20 1 -4
BITMAP
FF3FC0
380E00
380E00
380E00
380E00
380E00
380E00
380E00
380E00
380E00
380E00
380E00
380E00
380E00
380E00
FFFFC0
0003C0
0000C0
0000C0
000040
ENDCHAR
STARTCHAR 0447
ENCODING 1095
SWIDTH 498 0
DWIDTH 18 0
BBX 16 16 1 0
BITMAP
FE7F
381C
381C
381C
381C
381C
381C
383C
3FDC
041C
001C
001C
001C
001C
001C
00FF
ENDCHAR
STARTCHAR 0448
ENCODING 1096
SWIDTH 775 0
DWIDTH 28 0
BBX 26 16 1 0
BITMAP
FF7FBFC0
381E0F00
381C0700
381C0700
381C0700
381C0700
381C0700
381C0700
381C0700
381C0700
381C0700
381C0700
381C0700
381C0700
381E0F00
FFFFFFC0
ENDCHAR
STARTCHAR 0449
ENCODING 1097
SWIDTH 775 0
DWIDTH 28 0
BBX 26 20 1 -4
BITMAP
FF7FBFC0
381E0F00
381C0700
381C0700
381C0700
381C0700
381C0700
381C0700
381C0700
381C0700
381C0700
381C0700
381C0700
381C0700
381E0F00
FFFFFFC0
000001C0
000000C0
00000040
00000040
ENDCHAR
STARTCHAR 044A
ENCODING 1098
SWIDTH 526 0
DWIDTH 19 0
BBX 18 16 0 0
BITMAP
7FE000
678000
C70000
870000
070000
070000
070000
07FE00
070F00
070380
0703C0
0703C0
070380
070380
070F00
1FFC00
ENDCHAR
STARTCHAR 044B
ENCODING 1099
SWIDTH 664 0
DWIDTH 24 0
BBX 22 16 1 0
BITMAP
FF03FC
380070
380070
380070
380070
380070
380070
3FE070
387870
383C70
381C70
381C70
381C70
383C70
387870
FFE3FC
ENDCHAR
STARTCHAR 044C
ENCODING 1100
SWIDTH 443 0
DWIDTH 16 0
BBX 14 16 1 0
BITMAP
FF00
3800
3800
3800
3800
3800
3800
3FE0
3878
383C
381C
381C
381C
383C
3878
FFE0
ENDCHAR
STARTCHAR 044D
ENCODING 1101
SWIDTH 443 0
DWIDTH 16 0
BBX 13 17 1 0
BITMAP
0600
7FC0
60E0
40F0
4070
0078
0038
0038
07F8
0038
0038
0038
0038
0070
8060
40E0
3F80
ENDCHAR
STARTCHAR 044E
ENCODING 1102
SWIDTH 747 0
DWIDTH 27 0
BBX 25 17 1 0
BITMAP
0000C000
FF07F800
380C1C00
38180E00
38380F00
38380700
38380780
38700780
3FF00780
38780780
38780780
38780700
38380700
383C0600
381C0600
380E0C00
FF07F800
ENDCHAR
STARTCHAR 044F
ENCODING 1103
SWIDTH 470 0
DWIDTH 17 0
BBX 16 16 0 0
BITMAP
07FF
1E3C
1C38
3C38
3C38
1C38
1E38
07F8
03F8
07B8
0738
0E38
1C38
1C38
383C
F0FF
ENDCHAR
STARTCHAR 0451
ENCODING 1105
SWIDTH 443 0
DWIDTH 16 0
BBX 14 24 1 0
BITMAP
0800
1C78
1E78
1C70
0000
0000
0000
0180
0FF0
1078
3038
603C
603C
7FFC
E000
E000
E000
E000
7004
7804
7C08
3F38
1FF0
0FE0
ENDCHAR
STARTCHAR 0452
ENCODING 1106
SWIDTH 470 0
DWIDTH 17 0
BBX 15 33 0 -8
BITMAP
0C00
7C00
BC00
1C00
1C00
FFF8
1C00
1C00
1C30
1CF8
1DFC
1E1E
1C1E
1C0E
1C0E
1C0E
1C0E
1C0E
1C0E
1C0E
1C0E
1C0E
1C0E
3C0E
FF0E
000E
001C
001C
0018
0038
0030
00C0
0100
ENDCHAR
STARTCHAR 0453
ENCODING 1107
SWIDTH 415 0
DWIDTH 15 0
BBX 13 25 1 0
BITMAP
03C0
0380
0380
0700
0600
0400
0000
0000
0000
FFF8
3818
3808
3808
3800
3800
3800
3800
3800
3800
3800
3800
3800
3800
3800
FF00
ENDCHAR
STARTCHAR 0454
ENCODING 1108
SWIDTH 443 0
DWIDTH 16 0
BBX 14 17 1 0
BITMAP
0180
0FF8
1C18
3818
7808
7008
F000
F000
FF80
F000
F000
7000
7000
7000
3804
1C08
0FE0
ENDCHAR
STARTCHAR 0455
ENCODING 1109
SWIDTH 387 0
DWIDTH 14 0
BBX 11 17 2 0
BITMAP
0840
77C0
C1C0
C0C0
C040
E040
F000
FC00
3F00
1F80
07C0
01E0
80E0
80E0
C0C0
E0C0
FF80
ENDCHAR
STARTCHAR 0456
ENCODING 1110
SWIDTH 276 0
DWIDTH 10 0
BBX 8 25 1 0
BITMAP
1C
3C
1C
00
00
00
00
00
04
3C
FC
1C
1C
1C
1C
1C
1C
1C
1C
1C
1C
1C
1C
3C
FF
ENDCHAR
STARTCHAR 0457
ENCODING 1111
SWIDTH 276 0
DWIDTH 10 0
BBX 10 24 0 0
BITMAP
0080
F3C0
F3C0
E1C0
0000
0000
0000
0200
1E00
7E00
0E00
0E00
0E00
0E00
0E00
0E00
0E00
0E00
0E00
0E00
0E00
0E00
1E00
7F80
ENDCHAR
STARTCHAR 0458
ENCODING 1112
SWIDTH 276 0
DWIDTH 10 0
BBX 10 33 -3 -8
BITMAP
01C0
03C0
01C0
0000
0000
0000
0000
0000
0040
03C0
0FC0
01C0
01C0
01C0
01C0
01C0
01C0
01C0
01C0
01C0
01C0
01C0
01C0
01C0
01C0
01C0
01C0
0180
0180
0180
F300
FE00
3800
ENDCHAR
STARTCHAR 0459
ENCODING 1113
SWIDTH 720 0
DWIDTH 26 0
BBX 25 16 0 0
BITMAP
0FFFE000
03070000
03070000
03070000
03070000
03070000
03070000
0307FC00
03071F00
03070780
03070380
02070380
02070380
E2070780
FE070F00
7C1FFC00
ENDCHAR
STARTCHAR 045A
ENCODING 1114
SWIDTH 720 0
DWIDTH 26 0
BBX 24 16 1 0
BITMAP
FF7FC0
380E00
380E00
380E00
380E00
380E00
380E00
3FFFF8
380E3E
380E0F
380E0F
380E07
380E07
380E0E
380E1C
FF7FF8
ENDCHAR
STARTCHAR 045B
ENCODING 1115
SWIDTH 498 0
DWIDTH 18 0
BBX 18 25 0 0
BITMAP
0C0000
7C0000
BC0000
1C0000
1C0000
FFF800
1C0000
1C0000
1C3000
1CFC00
1DFE00
1E0E00
1C0E00
1C0E00
1C0E00
1C0E00
1C0E00
1C0E00
1C0E00
1C0E00
1C0E00
1C0E00
1C0F00
1C0F00
FF3FC0
ENDCHAR
STARTCHAR 045C
ENCODING 1116
SWIDTH 498 0
DWIDTH 18 0
BBX 16 25 1 0
BITMAP
00F0
01E0
01C0
0180
0100
0200
0200
0000
0000
FF1E
383F
3836
3860
3840
3840
3980
3FC0
39C0
38E0
38F0
3870
3878
3838
381C
FF1F
ENDCHAR
STARTCHAR 045D
ENCODING 1117
SWIDTH 526 0
DWIDTH 19 0
BBX 18 25 1 0
BITMAP
0F0000
078000
038000
018000
008000
004000
004000
000000
000000
FF3FC0
380E00
380E00
380E00
381E00
382E00
386E00
38CE00
398E00
3B0E00
3A0E00
3C0E00
380E00
380E00
380E00
FE3FC0
ENDCHAR
STARTCHAR 045E
ENCODING 1118
SWIDTH 498 0
DWIDTH 18 0
BBX 18 32 0 -8
BITMAP
0C0600
0E0E00
0E0E00
071C00
03F000
000000
000000
000000
FF07C0
3C0300
1C0300
1C0200
0E0600
0E0400
070C00
070C00
038800
039800
01D000
01F000
00F000
00E000
00E000
004000
00C000
00C000
008000
018000
330000
7E0000
7C0000
380000
ENDCHAR
STARTCHAR 045F
ENCODING 1119
SWIDTH 526 0
DWIDTH 19 0
BBX 18 20 1 -4
BITMAP
FF3FC0
380E00
380E00
380E00
380E00
380E00
380E00
380E00
380E00
380E00
380E00
380E00
380E00
380E00
380E00
FFFFC0
03E000
01C000
008000
008000
ENDCHAR
STARTCHAR 0490
ENCODING 1168
SWIDTH 443 0
DWIDTH 16 0
BBX 15 28 1 0
BITMAP
0002
0002
0006
000E
FFFE
3C00
1C00
1C00
1C00
1C00
1C00
1C00
1C00
1C00
1C00
1C00
1C00
1C00
1C00
1C00
1C00
1C00
1C00
1C00
1E00
1E00
1E00
FFC0
ENDCHAR
STARTCHAR 0491
ENCODING 1169
SWIDTH 360 0
DWIDTH 13 0
BBX 11 19 1 0
BITMAP
0020
0020
0060
FFE0
3800
3800
3800
3800
3800
3800
3800
3800
3800
3800
3800
3800
3800
3800
FF00
ENDCHAR
STARTCHAR 0492
ENCODING 1170
SWIDTH 581 0
DWIDTH 21 0
BBX 19 24 1 0
BITMAP
FFFFE0
3C03E0
1C0060
1C0020
1C0020
1C0020
1C0000
1C0000
1C0000
1C0000
1C0000
FFF800
1C0000
1C0000
1C0000
1C0000
1C0000
1C0000
1C0000
1C0000
1E0000
1E0000
1E0000
FFC000
ENDCHAR
STARTCHAR 0493
ENCODING 1171
SWIDTH 415 0
DWIDTH 15 0
BBX 13 16 1 0
BITMAP
FFF8
3818
3808
3808
3800
3800
3800
FF80
3800
3800
3800
3800
3800
3800
3800
FF00
ENDCHAR
STARTCHAR 0496
ENCODING 1174
SWIDTH 886 0
DWIDTH 32 0
BBX 32 31 0 -7
BITMAP
7C1FF83E
7E03C07F
7B03C06F
0103C0C0
0183C080
0183C180
0083C180
00C3C100
00C3C300
0043C300
0063C600
003FFC00
003BDE00
0073CE00
00F3C700
00E3C780
01C3C380
01C3C3C0
0383C1C0
0383C0E0
0703C0F0
0F03C070
1E03C07C
FE1FF83F
0000000F
00000007
00000003
00000001
00000001
00000001
00000001
ENDCHAR
STARTCHAR 0497
ENCODING 1175
SWIDTH 692 0
DWIDTH 25 0
BBX 25 20 0 -4
BITMAP
78FF0F00
7C1C1F00
761C3700
021C2000
021C2000
011C4000
019CC000
01FFC000
039CE000
079CF000
071C7000
0E1C7800
0E1C3800
1C1C3C00
3C1C1E00
F8FF0F80
00000380
00000180
00000080
00000080
ENDCHAR
STARTCHAR 049A
ENCODING 1178
SWIDTH 664 0
DWIDTH 24 0
BBX 23 31 1 -7
BITMAP
FFC0FC
3E01FC
1E01BC
1E0300
1C0200
1C0600
1C0600
1C0400
1C0C00
1C1800
1C3000
1FE000
1FF000
1C7800
1C3C00
1C1E00
1C0E00
1C0F00
1C0780
1C0380
1E03C0
1E01E0
1E00F0
FFC0FE
00001E
00000E
000006
000002
000002
000002
000002
ENDCHAR
STARTCHAR 049B
ENCODING 1179
SWIDTH 498 0
DWIDTH 18 0
BBX 16 20 1 -4
BITMAP
FF1E
383F
3836
3860
3840
38C0
3980
3F80
39C0
38E0
38F0
3870
3878
3838
381C
FF1F
0003
0001
0001
0001
ENDCHAR
STARTCHAR 049C
ENCODING 1180
SWIDTH 664 0
DWIDTH 24 0
BBX 23 24 1 0
BITMAP
FFC0FC
3E01FC
1E01BC
1E0300
1C0200
1C4600
1C4600
1C4400
1C4C00
1C5800
1C7000
1FE000
1FF000
1C7800
1C7C00
1C5E00
1C5E00
1C4F00
1C4780
1C4380
1E03C0
1E01E0
1E00F0
FFC0FE
ENDCHAR
STARTCHAR 049D
ENCODING 1181
SWIDTH 498 0
DWIDTH 18 0
BBX 16 16 1 0
BITMAP
FF1E
383F
3836
3960
3940
39C0
3980
3F80
39C0
39E0
39F0
3970
3978
3838
381C
FF1F
ENDCHAR
STARTCHAR 04A2
ENCODING 1186
SWIDTH 720 0
DWIDTH 26 0
BBX 24 30 1 -7
BITMAP
FFC3FF
1E0078
1E0078
1C0038
1C0038
1C0038
1C0038
1C0038
1C0038
1C0038
1C0038
1FFFF8
1C0038
1C0038
1C0038
1C0038
1C0038
1C0038
1C0038
1C0038
1C0038
1E0078
1E0078
FFC3FF
00001F
000007
000003
000001
000001
000001
ENDCHAR
STARTCHAR 04A3
ENCODING 1187
SWIDTH 526 0
DWIDTH 19 0
BBX 18 20 1 -4
BITMAP
FF3FC0
380E00
380E00
380E00
380E00
380E00
380E00
3FFE00
380E00
380E00
380E00
380E00
380E00
380E00
380E00
FF3FC0
0003C0
0000C0
0000C0
000040
ENDCHAR
STARTCHAR 04AE
ENCODING 1198
SWIDTH 720 0
DWIDTH 26 0
BBX 26 24 0 0
BITMAP
FFE07FC0
3F001E00
1F000C00
0F001800
07801800
07803000
03C02000
01E06000
01E0C000
00F08000
00798000
007B0000
003E0000
001E0000
001E0000
001E0000
001E0000
001E0000
001E0000
001E0000
001E0000
001E0000
001E0000
00FFC000
ENDCHAR
STARTCHAR 04AF
ENCODING 1199
SWIDTH 498 0
DWIDTH 18 0
BBX 18 24 0 -8
BITMAP
FF0FC0
3C0300
1C0200
1C0600
1E0600
0E0400
0E0C00
070800
071800
079000
039000
03B000
01E000
01E000
01E000
01E000
01E000
01E000
01E000
01E000
01E000
01E000
01E000
0FFC00
ENDCHAR
STARTCHAR 04B0
ENCODING 1200
SWIDTH 720 0
DWIDTH 26 0
BBX 26 24 0 0
BITMAP
FFE07FC0
3F001E00
0F000C00
0F001800
07801800
07803000
03C02000
01E06000
01E0C000
00F08000
00798000
007B0000
003E0000
001E0000
07FFF800
07FFF800
001E0000
001E0000
001E0000
001E0000
001E0000
001E0000
001E0000
00FFC000
ENDCHAR
STARTCHAR 04B1
ENCODING 1201
SWIDTH 498 0
DWIDTH 18 0
BBX 18 24 0 -8
BITMAP
FF0FC0
3C0300
1C0200
1C0600
1E0600
0E0400
0E0C00
070800
071800
079000
039000
03B000
01E000
01E000
01E000
FFFFC0
01E000
01E000
01E000
01E000
01E000
01E000
01E000
0FFC00
ENDCHAR
STARTCHAR 04B2
ENCODING 1202
SWIDTH 720 0
DWIDTH 26 0
BBX 26 31 0 -7
BITMAP
7FF07F80
1FC01E00
07801800
03C01000
03E03000
01E06000
00F0C000
00798000
00798000
003F0000
001E0000
001E0000
000F0000
001F8000
00378000
0063C000
00C1E000
0081E000
0180F000
03007800
06007800
0E003C00
1E003E00
FF81FFC0
00000FC0
000003C0
000001C0
000000C0
000000C0
00000040
00000040
ENDCHAR
STARTCHAR 04B3
ENCODING 1203
SWIDTH 498 0
DWIDTH 18 0
BBX 18 20 0 -4
BITMAP
FF3F00
1E0C00
0E1800
0F1000
07A000
03E000
03C000
01E000
01E000
037000
067800
043800
081C00
181E00
300F00
7C3FC0
0003C0
0000C0
000040
000040
ENDCHAR
STARTCHAR 04B8
ENCODING 1208
SWIDTH 636 0
DWIDTH 23 0
BBX 23 24 0 0
BITMAP
FFC7FE
1E01F0
1E00E0
1E00E0
1E00E0
1E10E0
1E10E0
1E10E0
1E10E0
1E10E0
1E10E0
1E10E0
0F13E0
0FFEE0
03F0E0
0010E0
0010E0
0010E0
0010E0
0000E0
0000E0
0000E0
0000F0
0007FE
ENDCHAR
STARTCHAR 04B9
ENCODING 1209
SWIDTH 498 0
DWIDTH 18 0
BBX 16 16 1 0
BITMAP
FE7F
381C
381C
381C
399C
399C
399C
39BC
3FDC
079C
019C
019C
001C
001C
001C
00FF
ENDCHAR
STARTCHAR 04BA
ENCODING 1210
SWIDTH 636 0
DWIDTH 23 0
BBX 23 24 1 0
BITMAP
FFC000
3E0000
1E0000
1E0000
1C0000
1C0000
1C0000
1C0000
1C0000
1C3F80
1CFFC0
1F83E0
1C01E0
1C00E0
1C00E0
1C00E0
1C00E0
1C00E0
1C00E0
1C00E0
1E00E0
1E00E0
1E01F0
FFCFFE
ENDCHAR
STARTCHAR 04BB
ENCODING 1211
SWIDTH 498 0
DWIDTH 18 0
BBX 18 25 0 0
BITMAP
0C0000
7C0000
BC0000
1C0000
1C0000
1C0000
1C0000
1C0000
1C3000
1CFC00
1DFE00
1E0E00
1C0E00
1C0E00
1C0E00
1C0E00
1C0E00
1C0E00
1C0E00
1C0E00
1C0E00
1C0E00
1C0F00
1C0F00
FF3FC0
ENDCHAR
STARTCHAR 04D8
ENCODING 1240
SWIDTH 720 0
DWIDTH 26 0
BBX 24 25 1 -1
BITMAP
09FF00
0F01C0
1E00F0
1C0078
180038
10003C
10001E
10001E
00001E
00001F
00000F
FFFFFF
F0000F
F0000F
F0001F
F0001E
F0001E
78001E
78003C
3C003C
1E0078
0E00F0
0781E0
01FF80
001000
ENDCHAR
STARTCHAR 04D9
ENCODING 1241
SWIDTH 443 0
DWIDTH 16 0
BBX 14 17 1 0
BITMAP
0380
1FE0
3FF0
31F8
4078
403C
801C
001C
001C
001C
000C
FFFC
F018
7018
7810
3830
1FC0
ENDCHAR
STARTCHAR 04E8
ENCODING 1256
SWIDTH 720 0
DWIDTH 26 0
BBX 24 25 1 -1
BITMAP
01FF80
0381E0
0E0070
1C0078
1C0038
38001C
78001E
78001E
78001E
F0000F
F0000F
FFFFFF
F0000F
F0000F
F0000E
78001E
78001E
78001E
38001C
3C0038
1E0038
0E0070
0781E0
01FF80
001000
ENDCHAR
STARTCHAR 04E9
ENCODING 1257
SWIDTH 498 0
DWIDTH 18 0
BBX 16 17 1 0
BITMAP
0180
0FF0
1838
301C
701E
700E
700F
E00F
FFFF
F007
F007
700E
700E
780E
3C0C
1C18
0FF0
ENDCHAR
STARTCHAR 05B0
ENCODING 1456
SWIDTH 332 0
DWIDTH 12 0
BBX 2 7 5 -8
BITMAP
C0
C0
C0
00
C0
C0
C0
ENDCHAR
STARTCHAR 05B1
ENCODING 1457
SWIDTH 332 0
DWIDTH 12 0
BBX 12 7 0 -8
BITMAP
6660
E670
6660
0000
1860
1870
1860
ENDCHAR
STARTCHAR 05B2
ENCODING 1458
SWIDTH 332 0
DWIDTH 12 0
BBX 10 7 1 -8
BITMAP
FCC0
FDC0
00C0
0000
01C0
01C0
00C0
ENDCHAR
STARTCHAR 05B3
ENCODING 1459
SWIDTH 332 0
DWIDTH 12 0
BBX 12 7 0 -8
BITMAP
FE60
FE70
1860
1800
3860
1870
0060
ENDCHAR
STARTCHAR 05B4
ENCODING 1460
SWIDTH 332 0
DWIDTH 12 0
BBX 2 2 5 -6
BITMAP
C0
C0
ENDCHAR
STARTCHAR 05B5
ENCODING 1461
SWIDTH 332 0
DWIDTH 12 0
BBX 6 2 3 -6
BITMAP
CC
CC
ENDCHAR
STARTCHAR 05B6
ENCODING 1462
SWIDTH 332 0
DWIDTH 12 0
BBX 6 7 3 -8
BITMAP
CC
CC
CC
00
30
30
30
ENDCHAR
STARTCHAR 05B7
ENCODING 1463
SWIDTH 332 0
DWIDTH 12 0
BBX 6 2 3 -5
BITMAP
FC
FC
ENDCHAR
STARTCHAR 05B8
ENCODING 1464
SWIDTH 332 0
DWIDTH 12 0
BBX 7 6 3 -8
BITMAP
FE
FE
30
30
30
30
ENDCHAR
STARTCHAR 05B9
ENCODING 1465
SWIDTH 332 0
DWIDTH 12 0
BBX 2 3 5 21
BITMAP
C0
C0
C0
ENDCHAR
STARTCHAR 05BA
ENCODING 1466
SWIDTH 332 0
DWIDTH 12 0
BBX 2 3 5 21
BITMAP
C0
C0
C0
ENDCHAR
STARTCHAR 05BB
ENCODING 1467
SWIDTH 332 0
DWIDTH 12 0
BBX 12 7 0 -8
BITMAP
6000
E000
6600
0600
0660
0070
0060
ENDCHAR
STARTCHAR 05BC
ENCODING 1468
SWIDTH 332 0
DWIDTH 12 0
BBX 2 2 5 9
BITMAP
C0
C0
ENDCHAR
STARTCHAR 05BD
ENCODING 1469
SWIDTH 332 0
DWIDTH 12 0
BBX 2 6 5 -8
BITMAP
C0
C0
C0
C0
C0
C0
ENDCHAR
STARTCHAR 05BE
ENCODING 1470
SWIDTH 360 0
DWIDTH 13 0
BBX 9 4 2 15
BITMAP
FF80
FF80
FF80
FF80
ENDCHAR
STARTCHAR 05BF
ENCODING 1471
SWIDTH 332 0
DWIDTH 12 0
BBX 6 1 3 22
BITMAP
FC
ENDCHAR
STARTCHAR 05C0
ENCODING 1472
SWIDTH 304 0
DWIDTH 11 0
BBX 3 22 4 -2
BITMAP
E0
E0
E0
E0
E0
E0
E0
E0
E0
E0
E0
E0
E0
E0
E0
E0
E0
E0
E0
E0
E0
E0
ENDCHAR
STARTCHAR 05C1
ENCODING 1473
SWIDTH 332 0
DWIDTH 12 0
BBX 3 3 12 21
BITMAP
E0
E0
40
ENDCHAR
STARTCHAR 05C2
ENCODING 1474
SWIDTH 332 0
DWIDTH 12 0
BBX 3 3 -3 21
BITMAP
60
E0
60
ENDCHAR
STARTCHAR 05C3
ENCODING 1475
SWIDTH 276 0
DWIDTH 10 0
BBX 4 19 3 0
BITMAP
60
F0
F0
60
00
00
00
00
00
00
00
00
00
00
00
00
F0
F0
F0
ENDCHAR
STARTCHAR 05D0
ENCODING 1488
SWIDTH 470 0
DWIDTH 17 0
BBX 14 20 2 0
BITMAP
8040
C0E0
C0FC
E0FC
F07C
7810
7C20
3E20
1F60
2F40
47C0
C3E0
C1E0
C0F0
E0F8
F07C
703C
781C
780C
F00C
ENDCHAR
STARTCHAR 05D1
ENCODING 1489
SWIDTH 443 0
DWIDTH 16 0
BBX 15 20 1 0
BITMAP
4000
7F80
FFF0
FFF8
7FF8
0038
0018
0018
0018
0008
0008
0008
0008
0008
0018
0010
7FFE
FFFC
FFFC
FFFC
ENDCHAR
STARTCHAR 05D2
ENCODING 1490
SWIDTH 332 0
DWIDTH 12 0
BBX 10 20 1 0
BITMAP
2000
7C00
7E00
7F00
7F00
0700
0300
0200
0200
0200
0300
0300
0300
0380
0580
0DC0
FCC0
F8C0
F840
F040
ENDCHAR
STARTCHAR 05D3
ENCODING 1491
SWIDTH 415 0
DWIDTH 15 0
BBX 13 20 1 0
BITMAP
4000
FFE0
FFF8
FFF8
7FF8
0010
0020
0060
0040
00C0
00C0
00C0
00C0
00C0
00E0
00E0
00E0
00E0
00C0
00C0
ENDCHAR
STARTCHAR 05D4
ENCODING 1492
SWIDTH 470 0
DWIDTH 17 0
BBX 14 20 1 0
BITMAP
4000
7FF8
FFFC
FFFC
7FFC
0004
0004
0008
0008
0008
0018
0018
301C
601C
601C
600C
600C
600C
600C
6018
ENDCHAR
STARTCHAR 05D5
ENCODING 1493
SWIDTH 276 0
DWIDTH 10 0
BBX 7 20 1 0
BITMAP
40
F0
FC
FE
7E
0E
06
06
06
06
06
06
06
06
06
06
06
06
06
06
ENDCHAR
STARTCHAR 05D6
ENCODING 1494
SWIDTH 276 0
DWIDTH 10 0
BBX 8 20 1 0
BITMAP
40
7C
FF
FF
7F
08
08
10
10
10
18
18
18
18
18
18
18
18
18
18
ENDCHAR
STARTCHAR 05D7
ENCODING 1495
SWIDTH 470 0
DWIDTH 17 0
BBX 14 20 2 0
BITMAP
8000
FFF0
FFFC
FFFC
FFFC
2008
2008
4010
4010
C010
C010
C018
C018
C018
E018
E018
E018
E018
C018
C030
ENDCHAR
STARTCHAR 05D8
ENCODING 1496
SWIDTH 470 0
DWIDTH 17 0
BBX 14 20 1 0
BITMAP
4000
F030
F878
F8FC
78FC
218C
2104
2204
2004
2004
2004
2004
2004
2004
3004
300C
3FF8
1FF8
1FF8
1FF0
ENDCHAR
STARTCHAR 05D9
ENCODING 1497
SWIDTH 276 0
DWIDTH 10 0
BBX 7 11 1 8
BITMAP
40
F8
FE
FE
7E
0E
02
02
02
04
0C
ENDCHAR
STARTCHAR 05DA
ENCODING 1498
SWIDTH 443 0
DWIDTH 16 0
BBX 14 26 1 -6
BITMAP
4000
FFF0
FFF8
FFFC
7FF8
0018
0010
0010
0010
0010
0010
0010
0018
0018
0018
0018
0018
0018
0018
0018
0018
0018
0018
0018
0018
0010
ENDCHAR
STARTCHAR 05DB
ENCODING 1499
SWIDTH 443 0
DWIDTH 16 0
BBX 13 20 1 0
BITMAP
4000
7F80
FFE0
FFF0
7FF0
0070
0018
0018
0018
0008
0008
0008
0008
0018
0018
0038
7FF0
FFF0
FFE0
FF80
ENDCHAR
STARTCHAR 05DC
ENCODING 1500
SWIDTH 443 0
DWIDTH 16 0
BBX 14 27 0 0
BITMAP
4000
E000
7000
3000
2000
2000
2000
2000
7FF0
7FF8
7FFC
3FFC
001C
000C
000C
000C
000C
000C
0018
0030
0060
0040
0080
0180
0100
0380
0380
ENDCHAR
STARTCHAR 05DD
ENCODING 1501
SWIDTH 498 0
DWIDTH 18 0
BBX 14 19 2 1
BITMAP
FF80
FFF8
FFFC
FFFC
103C
300C
200C
4004
C004
C004
C004
C004
C004
C004
C004
FFFC
FFFC
FFFC
FFFC
ENDCHAR
STARTCHAR 05DE
ENCODING 1502
SWIDTH 498 0
DWIDTH 18 0
BBX 15 20 1 0
BITMAP
4000
7040
FC70
F8F8
79F8
0FFC
060C
0C06
1806
1006
2002
2002
6002
4002
4006
4004
43FC
47FC
C7FC
47FC
ENDCHAR
STARTCHAR 05DF
ENCODING 1503
SWIDTH 276 0
DWIDTH 10 0
BBX 7 26 1 -6
BITMAP
40
F8
FE
FE
7E
0E
02
04
04
04
0C
0C
0C
0C
0C
0C
0C
0C
0C
0E
0E
0E
0E
0E
0C
0C
ENDCHAR
STARTCHAR 05E0
ENCODING 1504
SWIDTH 304 0
DWIDTH 11 0
BBX 8 20 1 0
BITMAP
20
7C
7F
7F
3F
03
03
03
02
02
02
02
03
03
03
03
FF
FF
FF
FF
ENDCHAR
STARTCHAR 05E1
ENCODING 1505
SWIDTH 470 0
DWIDTH 17 0
BBX 14 20 2 0
BITMAP
8000
FF80
FFE0
FFF0
FFF8
2078
4018
4008
C008
800C
800C
8008
8008
C008
C008
E018
7878
7FF0
3FF0
1FE0
ENDCHAR
STARTCHAR 05E2
ENCODING 1506
SWIDTH 443 0
DWIDTH 16 0
BBX 14 20 1 -1
BITMAP
4040
F070
FC7C
FC7C
7C7C
100C
1008
1008
1010
1810
1C10
0C30
0420
0420
0460
0460
0FE0
7FE0
7FC0
FF00
ENDCHAR
STARTCHAR 05E3
ENCODING 1507
SWIDTH 443 0
DWIDTH 16 0
BBX 14 25 1 -5
BITMAP
7F00
7FF0
7FF8
7FF8
2078
4018
4018
4018
E008
F808
F808
F808
0008
0008
000C
000C
000C
000C
000C
000C
000C
000C
000C
000C
0008
ENDCHAR
STARTCHAR 05E4
ENCODING 1508
SWIDTH 443 0
DWIDTH 16 0
BBX 12 20 2 0
BITMAP
4000
FF00
FFC0
FFE0
7FE0
40F0
8030
8030
E010
F810
F810
C010
0010
0010
0030
0030
FFF0
FFE0
FFC0
FF00
ENDCHAR
STARTCHAR 05E5
ENCODING 1509
SWIDTH 470 0
DWIDTH 17 0
BBX 15 26 1 -6
BITMAP
4020
F87C
FC7E
FC7E
7C3E
0C0C
0C30
0860
08C0
0980
1B00
1E00
1C00
1C00
1C00
1800
1800
1800
1C00
1C00
0C00
0C00
0C00
0C00
0C00
0800
ENDCHAR
STARTCHAR 05E6
ENCODING 1510
SWIDTH 470 0
DWIDTH 17 0
BBX 14 20 1 0
BITMAP
4040
F078
F87C
FC7C
787C
0810
0820
0860
0C40
0CC0
0FC0
07C0
03C0
01E0
0070
003C
7FFC
7FFC
7FF8
7FF8
ENDCHAR
STARTCHAR 05E7
ENCODING 1511
SWIDTH 470 0
DWIDTH 17 0
BBX 13 26 2 -6
BITMAP
4000
FFC0
FFF0
FFF8
FFF8
0038
0008
0008
4008
C008
C008
C018
C070
C0C0
C180
C200
C600
CC00
CC00
CC00
C000
C000
C000
C000
C000
8000
ENDCHAR
STARTCHAR 05E8
ENCODING 1512
SWIDTH 470 0
DWIDTH 17 0
BBX 14 20 1 0
BITMAP
4000
FF80
FFF8
FFF8
7FFC
003C
000C
000C
000C
000C
000C
000C
000C
000C
000C
000C
000C
000C
000C
000C
ENDCHAR
STARTCHAR 05E9
ENCODING 1513
SWIDTH 609 0
DWIDTH 22 0
BBX 20 20 1 0
BITMAP
408080
F0E1C0
F9F1F0
F8F9F0
78F8F0
202070
204020
204040
204040
20C080
208080
208100
210300
310200
330600
120600
1FFC00
1FFC00
1FFC00
0FFC00
ENDCHAR
STARTCHAR 05EA
ENCODING 1514
SWIDTH 498 0
DWIDTH 18 0
BBX 15 20 1 0
BITMAP
2000
3FC0
7FFC
7FFE
3FFE
041E
0806
1806
1006
1006
1006
3006
3006
3006
3006
3806
F806
F806
F806
F806
ENDCHAR
STARTCHAR 05F0
ENCODING 1520
SWIDTH 553 0
DWIDTH 20 0
BBX 17 20 1 0
BITMAP
401000
F03C00
FC3F00
FE3F80
7E1F80
0E0380
060180
060180
060180
060180
060180
060180
060180
060180
060180
060180
060180
060180
060180
060180
ENDCHAR
STARTCHAR 05F1
ENCODING 1521
SWIDTH 553 0
DWIDTH 20 0
BBX 17 20 1 0
BITMAP
403000
F83C00
FE3F00
FE3F00
7E1F80
0E0780
020180
020180
020180
040180
0C0180
000180
000180
000180
000180
000180
000180
000180
000180
000100
ENDCHAR
STARTCHAR 05F2
ENCODING 1522
SWIDTH 526 0
DWIDTH 19 0
BBX 17 11 1 8
BITMAP
402000
F83E00
FE3F00
FE3F80
7E3F80
0E0380
020180
020180
020100
040100
0C0200
ENDCHAR
STARTCHAR 05F3
ENCODING 1523
SWIDTH 221 0
DWIDTH 8 0
BBX 4 8 2 11
BITMAP
70
F0
E0
E0
C0
C0
80
80
ENDCHAR
STARTCHAR 05F4
ENCODING 1524
SWIDTH 360 0
DWIDTH 13 0
BBX 10 8 2 11
BITMAP
71C0
F3C0
E380
E380
C300
C300
8200
8200
ENDCHAR
STARTCHAR 060C
ENCODING 1548
SWIDTH 332 0
DWIDTH 12 0
BBX 6 11 3 5
BITMAP
10
30
60
40
C0
C0
F8
FC
FC
7C
38
ENDCHAR
STARTCHAR 061B
ENCODING 1563
SWIDTH 332 0
DWIDTH 12 0
BBX 6 17 3 5
BITMAP
10
30
60
40
C0
C0
F0
F8
FC
78
78
00
00
30
78
78
30
ENDCHAR
STARTCHAR 061F
ENCODING 1567
SWIDTH 360 0
DWIDTH 13 0
BBX 11 21 1 5
BITMAP
0600
3F80
70C0
70E0
F1E0
F3E0
FBC0
F800
7C00
3C00
1C00
0C00
0400
0400
0400
0000
0000
0E00
1F00
1E00
0E00
ENDCHAR
STARTCHAR 0621
ENCODING 1569
SWIDTH 415 0
DWIDTH 15 0
BBX 11 11 2 3
BITMAP
1F00
3F80
3B00
6000
6000
F0E0
FFE0
7FC0
1E00
3800
2000
ENDCHAR
STARTCHAR 0622
ENCODING 1570
SWIDTH 193 0
DWIDTH 7 0
BBX 7 25 0 5
BITMAP
60
BE
00
00
10
18
18
18
18
18
18
18
18
1C
0C
0C
0C
0C
0C
0C
0C
0C
0C
08
08
ENDCHAR
STARTCHAR 0623
ENCODING 1571
SWIDTH 193 0
DWIDTH 7 0
BBX 4 27 2 5
BITMAP
30
70
80
F0
E0
00
40
60
60
60
60
60
60
60
60
70
30
30
30
30
30
30
30
30
30
20
20
ENDCHAR
STARTCHAR 0624
ENCODING 1572
SWIDTH 443 0
DWIDTH 16 0
BBX 15 23 1 -3
BITMAP
00C0
0180
0300
01C0
0300
0000
0018
003C
007C
0044
0046
0066
007E
007E
001E
0004
000C
001C
0038
0078
01F0
FFE0
0F80
ENDCHAR
STARTCHAR 0625
ENCODING 1573
SWIDTH 193 0
DWIDTH 7 0
BBX 5 29 1 -2
BITMAP
20
30
30
30
30
30
30
30
30
38
18
18
18
18
18
18
18
18
18
10
10
00
00
00
30
70
C0
70
C0
ENDCHAR
STARTCHAR 0626
ENCODING 1574
SWIDTH 636 0
DWIDTH 23 0
BBX 21 22 1 -2
BITMAP
180000
300000
600000
380020
6001F8
0003F8
000318
100608
200C00
200800
400800
401FE0
C01FF0
800FF0
800030
800060
C001E0
E007C0
FEFF80
7FFF00
3FFC00
030000
ENDCHAR
STARTCHAR 0627
ENCODING 1575
SWIDTH 193 0
DWIDTH 7 0
BBX 3 21 3 6
BITMAP
80
C0
C0
C0
C0
C0
C0
C0
C0
E0
60
60
60
60
60
60
60
60
60
40
40
ENDCHAR
STARTCHAR 0628
ENCODING 1576
SWIDTH 720 0
DWIDTH 26 0
BBX 25 18 1 -2
BITMAP
00000200
40000300
40000700
80000300
80000180
80000180
C0000180
E0000180
7C000180
7FFFFF80
3FFFFF80
07FFFF80
00000000
00000000
00000000
00180000
001C0000
001C0000
ENDCHAR
STARTCHAR 0629
ENCODING 1577
SWIDTH 276 0
DWIDTH 10 0
BBX 10 18 0 5
BITMAP
0600
0F00
6F00
F200
6000
0000
0000
0000
1C00
1F00
1F80
17C0
31C0
20C0
20C0
7380
7F80
3F00
ENDCHAR
STARTCHAR 062A
ENCODING 1578
SWIDTH 720 0
DWIDTH 26 0
BBX 25 18 1 5
BITMAP
00040000
00070000
006F0000
00770000
00F00000
00200000
00000200
40000300
40000700
80000300
80000180
80000180
C0000180
E0000180
7C000180
7FFFFF80
3FFFFF80
07FFFF80
ENDCHAR
STARTCHAR 062B
ENCODING 1579
SWIDTH 720 0
DWIDTH 26 0
BBX 25 21 1 5
BITMAP
00200000
00780000
00780000
00340000
00070000
006F0000
00770000
00F00000
00200000
00000200
40000300
40000700
80000300
80000180
80000180
C0000180
E0000180
7C000180
7FFFFF80
3FFFFF80
07FFFF80
ENDCHAR
STARTCHAR 062C
ENCODING 1580
SWIDTH 553 0
DWIDTH 20 0
BBX 17 24 1 -8
BITMAP
070000
3FFF80
7FFF80
7FFF00
03F800
078000
0E0000
180000
300000
600000
406000
807800
80F000
802000
800000
C00000
C00000
E00000
700000
7C0000
3FF000
1FFF80
07FE00
007C00
ENDCHAR
STARTCHAR 062D
ENCODING 1581
SWIDTH 553 0
DWIDTH 20 0
BBX 17 24 1 -8
BITMAP
070000
3FFF80
7FFF80
7FFF00
03F800
078000
0E0000
180000
300000
600000
400000
800000
800000
800000
800000
C00000
C00000
E00000
700000
7C0000
3FF000
1FFF80
07FE00
007C00
ENDCHAR
STARTCHAR 062E
ENCODING 1582
SWIDTH 553 0
DWIDTH 20 0
BBX 17 31 1 -8
BITMAP
008000
01E000
01C000
004000
000000
000000
000000
070000
3FFF80
7FFF80
7FFF00
03F800
078000
0E0000
180000
300000
600000
400000
800000
800000
800000
800000
C00000
C00000
E00000
700000
7C0000
3FF000
1FFF80
07FE00
007C00
ENDCHAR
STARTCHAR 062F
ENCODING 1583
SWIDTH 332 0
DWIDTH 12 0
BBX 10 15 2 5
BITMAP
0400
0600
0700
0780
0180
0080
00C0
0040
0040
0040
0040
8040
FFC0
FFC0
7FC0
ENDCHAR
STARTCHAR 0630
ENCODING 1584
SWIDTH 332 0
DWIDTH 12 0
BBX 10 22 2 5
BITMAP
3000
3800
3800
0000
0000
0000
0000
0400
0600
0700
0780
0180
0080
00C0
0040
0040
0040
0040
8040
FFC0
FFC0
7FC0
ENDCHAR
STARTCHAR 0631
ENCODING 1585
SWIDTH 498 0
DWIDTH 18 0
BBX 16 18 2 -2
BITMAP
000C
000E
000E
0006
0007
0003
0003
0003
0003
0003
0007
0006
000E
001C
0078
01F0
FFE0
1FC0
ENDCHAR
STARTCHAR 0632
ENCODING 1586
SWIDTH 498 0
DWIDTH 18 0
BBX 16 26 2 -3
BITMAP
0020
0078
0070
0010
0000
0000
0000
0000
000C
000E
000E
0006
0007
0003
0003
0003
0003
0003
0007
0006
000E
001C
0078
01F0
FFE0
1FC0
ENDCHAR
STARTCHAR 0633
ENCODING 1587
SWIDTH 830 0
DWIDTH 30 0
BBX 29 18 1 -3
BITMAP
00008000
00008010
00018130
0001C118
2001C118
2000C188
4000C3D8
40007FF8
40007FF8
C0007C78
C0004000
C000C000
C0018000
E0078000
7EFF0000
7FFE0000
3FF80000
03800000
ENDCHAR
STARTCHAR 0634
ENCODING 1588
SWIDTH 830 0
DWIDTH 30 0
BBX 29 29 1 -3
BITMAP
00000400
00000E00
00000E00
00000680
000000E0
000009E0
00000EC0
00001E00
00000400
00000000
00000000
00008000
00008010
00018130
0001C118
2001C118
2000C188
4000C3D8
40007FF8
40007FF8
C0007C78
C0004000
C000C000
C0018000
E0078000
7EFF0000
7FFE0000
3FF80000
03800000
ENDCHAR
STARTCHAR 0635
ENCODING 1589
SWIDTH 1107 0
DWIDTH 40 0
BBX 39 18 1 -3
BITMAP
0000800060
00008003F8
0001800FFC
0001C01FFC
2001C0701E
2000C1C00E
4000C7003E
40007FFFFE
40007FFFFE
C0007FFFFE
C000400000
C000800000
C001800000
E007800000
7EFF000000
7FFE000000
3FF8000000
0380000000
ENDCHAR
STARTCHAR 0636
ENCODING 1590
SWIDTH 1107 0
DWIDTH 40 0
BBX 39 24 1 -3
BITMAP
000000C000
000001E000
000001C000
0000004000
0000000000
0000000000
0000800060
00008003F8
0001800FFC
0001C01FFC
2001C0701E
2000C1C00E
4000C7003E
40007FFFFE
40007FFFFE
C0007FFFFE
C000400000
C000800000
C001800000
E007800000
7EFF000000
7FFE000000
3FF8000000
0380000000
ENDCHAR
STARTCHAR 0637
ENCODING 1591
SWIDTH 581 0
DWIDTH 21 0
BBX 22 23 -1 6
BITMAP
020000
07C000
078000
038000
038000
010000
018000
018000
018000
008000
008000
008000
00C000
008040
0087F8
009FF8
00FFFC
00F01C
01C01C
0F003C
FFFFFC
FFFFFC
FFFFFC
ENDCHAR
STARTCHAR 0638
ENCODING 1592
SWIDTH 581 0
DWIDTH 21 0
BBX 22 23 -1 6
BITMAP
020000
07C000
078000
038000
038000
010200
018780
018780
018100
008000
008000
008000
00C000
008040
0087F8
009FF8
00FFFC
00F01C
01C01C
0F003C
FFFFFC
FFFFFC
FFFFFC
ENDCHAR
STARTCHAR 0639
ENCODING 1593
SWIDTH 553 0
DWIDTH 20 0
BBX 17 27 1 -8
BITMAP
1F8000
3FC000
780000
C00000
800000
C00400
E03C00
FCFC00
7FF000
3F8000
0E0000
1C0000
300000
600000
400000
C00000
800000
800000
800000
C00000
C00000
E00000
780000
7FF800
3FFF80
0FFE00
003800
ENDCHAR
STARTCHAR 063A
ENCODING 1594
SWIDTH 553 0
DWIDTH 20 0
BBX 17 34 1 -7
BITMAP
0E0000
0E0000
060000
000000
000000
000000
000000
1F8000
3FC000
780000
C00000
800000
C00400
E03C00
FCFC00
7FF000
3F8000
0E0000
1C0000
300000
600000
400000
C00000
800000
800000
800000
C00000
C00000
E00000
780000
7FF800
3FFF80
0FFE00
003800
ENDCHAR
STARTCHAR 0640
ENCODING 1600
SWIDTH 193 0
DWIDTH 7 0
BBX 8 3 -1 5
BITMAP
FF
FF
FF
ENDCHAR
STARTCHAR 0641
ENCODING 1601
SWIDTH 775 0
DWIDTH 28 0
BBX 27 19 1 6
BITMAP
00000600
00000F00
00000600
00000200
00000000
00000000
00000000
400001C0
400003E0
800007E0
80000660
80000660
80000E20
C00007E0
E00003E0
FE0000E0
7FFFFFE0
1FFFFFE0
01FFFFE0
ENDCHAR
STARTCHAR 0642
ENCODING 1602
SWIDTH 581 0
DWIDTH 21 0
BBX 20 27 1 -2
BITMAP
000380
0013C0
003D80
003800
000800
000000
000000
000000
000380
0007C0
0007E0
000CE0
000C70
200EF0
200FF0
400FF0
4007F0
400010
C00010
C00010
C00030
C00070
E001E0
7F3FE0
3FFFC0
1FFF00
01E000
ENDCHAR
STARTCHAR 0643
ENCODING 1603
SWIDTH 609 0
DWIDTH 22 0
BBX 21 23 1 5
BITMAP
000080
0000C0
0000F0
0000F0
0000F0
000870
001860
003060
002060
004060
007C20
007C30
000C30
400C30
401C30
87F030
800030
800010
C00018
F80018
FFFFF8
7FFFF8
0FFFF8
ENDCHAR
STARTCHAR 0644
ENCODING 1604
SWIDTH 498 0
DWIDTH 18 0
BBX 17 27 1 1
BITMAP
000600
000780
000780
000780
000380
000300
000300
000300
000300
000100
000100
000180
100180
200180
200180
400180
400080
400080
400080
C00080
C00080
C00180
E00380
7C3F00
7FFF00
3FFC00
07E000
ENDCHAR
STARTCHAR 0645
ENCODING 1605
SWIDTH 332 0
DWIDTH 12 0
BBX 11 20 1 -8
BITMAP
0E00
1F80
3FC0
21C0
00E0
0FE0
7FE0
FFE0
F000
C000
8000
8000
C000
C000
4000
4000
6000
6000
2000
2000
ENDCHAR
STARTCHAR 0646
ENCODING 1606
SWIDTH 526 0
DWIDTH 19 0
BBX 18 23 1 -3
BITMAP
00C000
00E000
00E000
000000
000000
000080
000080
0001C0
1001C0
2000C0
2000C0
4000C0
400040
400040
400040
C00040
C000C0
C001C0
E00780
7EFF80
7FFF00
3FFC00
03C000
ENDCHAR
STARTCHAR 0647
ENCODING 1607
SWIDTH 276 0
DWIDTH 10 0
BBX 8 11 1 5
BITMAP
20
38
3C
3E
6F
47
C1
C1
EF
FF
7C
ENDCHAR
STARTCHAR 0648
ENCODING 1608
SWIDTH 443 0
DWIDTH 16 0
BBX 15 17 1 -3
BITMAP
0018
003C
007C
0044
0046
0066
007E
007E
001E
0004
000C
001C
0038
0078
01F0
FFE0
0F80
ENDCHAR
STARTCHAR 0649
ENCODING 1609
SWIDTH 636 0
DWIDTH 23 0
BBX 21 19 1 -2
BITMAP
000020
0001F8
0003F8
000318
100608
200C00
200800
400800
401FE0
C01FF0
800FF0
800030
800060
C001E0
E007C0
FEFF80
7FFF00
3FFC00
030000
ENDCHAR
STARTCHAR 064A
ENCODING 1610
SWIDTH 636 0
DWIDTH 23 0
BBX 21 24 1 -8
BITMAP
000020
0001F8
0003F8
000318
100608
200C00
200800
400800
401FE0
C01FF0
800FF0
800030
800060
C001E0
E007C0
FEFF80
7FFF00
3FFC00
030000
001800
003C00
01BC00
03C800
018000
ENDCHAR
STARTCHAR 064B
ENCODING 1611
SWIDTH 193 0
DWIDTH 7 0
BBX 6 6 1 22
BITMAP
04
38
60
0C
70
C0
ENDCHAR
STARTCHAR 064C
ENCODING 1612
SWIDTH 249 0
DWIDTH 9 0
BBX 8 7 1 22
BITMAP
02
0F
4A
6E
A6
3A
70
ENDCHAR
STARTCHAR 064D
ENCODING 1613
SWIDTH 193 0
DWIDTH 7 0
BBX 6 6 1 -4
BITMAP
0C
70
C4
18
60
80
ENDCHAR
STARTCHAR 064E
ENCODING 1614
SWIDTH 193 0
DWIDTH 7 0
BBX 6 4 1 24
BITMAP
04
1C
60
80
ENDCHAR
STARTCHAR 064F
ENCODING 1615
SWIDTH 221 0
DWIDTH 8 0
BBX 6 7 2 23
BITMAP
18
28
38
38
1C
20
C0
ENDCHAR
STARTCHAR 0650
ENCODING 1616
SWIDTH 193 0
DWIDTH 7 0
BBX 6 4 1 -1
BITMAP
04
1C
60
80
ENDCHAR
STARTCHAR 0651
ENCODING 1617
SWIDTH 221 0
DWIDTH 8 0
BBX 7 5 1 23
BITMAP
12
16
9C
FC
E0
ENDCHAR
STARTCHAR 0652
ENCODING 1618
SWIDTH 166 0
DWIDTH 6 0
BBX 5 5 1 22
BITMAP
70
98
88
F8
70
ENDCHAR
STARTCHAR 0653
ENCODING 1619
SWIDTH 193 0
DWIDTH 7 0
BBX 6 2 1 25
BITMAP
E0
7C
ENDCHAR
STARTCHAR 0654
ENCODING 1620
SWIDTH 193 0
DWIDTH 7 0
BBX 4 5 2 26
BITMAP
30
70
80
F0
E0
ENDCHAR
STARTCHAR 0655
ENCODING 1621
SWIDTH 193 0
DWIDTH 7 0
BBX 4 5 2 -3
BITMAP
70
80
E0
70
80
ENDCHAR
STARTCHAR 0660
ENCODING 1632
SWIDTH 526 0
DWIDTH 19 0
BBX 5 8 7 8
BITMAP
40
70
F8
F8
F8
F8
30
10
ENDCHAR
STARTCHAR 0661
ENCODING 1633
SWIDTH 526 0
DWIDTH 19 0
BBX 6 20 6 6
BITMAP
C0
E0
E0
F0
70
78
38
38
1C
1C
0C
0C
0C
0C
0C
0C
04
08
08
08
ENDCHAR
STARTCHAR 0662
ENCODING 1634
SWIDTH 526 0
DWIDTH 19 0
BBX 11 21 3 5
BITMAP
4020
6020
7020
F860
7FE0
3FE0
3FC0
1C00
0E00
0E00
0600
0700
0700
0300
0300
0300
0300
0100
0100
0100
0100
ENDCHAR
STARTCHAR 0663
ENCODING 1635
SWIDTH 526 0
DWIDTH 19 0
BBX 15 20 2 5
BITMAP
4042
4042
60E6
7FFE
FFFC
7F7C
3E00
3800
1C00
1C00
0E00
0E00
0600
0600
0600
0600
0600
0200
0200
0200
ENDCHAR
STARTCHAR 0664
ENCODING 1636
SWIDTH 526 0
DWIDTH 19 0
BBX 9 20 5 6
BITMAP
0200
0600
0E00
1800
2000
6000
7800
FE00
7F00
3E00
0400
0800
1000
3000
6000
7800
7F80
7F80
3F80
0700
ENDCHAR
STARTCHAR 0665
ENCODING 1637
SWIDTH 526 0
DWIDTH 19 0
BBX 13 13 3 9
BITMAP
0F80
1FE0
1FE0
21F0
2078
4038
4018
4018
6010
F070
FFE0
7FC0
3F80
ENDCHAR
STARTCHAR 0666
ENCODING 1638
SWIDTH 526 0
DWIDTH 19 0
BBX 12 20 3 6
BITMAP
8000
C000
FF80
FF80
FF80
FF80
0080
0080
0180
0180
0180
0180
0180
01C0
01C0
00E0
00F0
00F0
0060
0020
ENDCHAR
STARTCHAR 0667
ENCODING 1639
SWIDTH 526 0
DWIDTH 19 0
BBX 15 20 2 5
BITMAP
0002
4002
6006
600C
F00C
F81C
7818
3C38
1C30
1C20
0E60
0640
0640
0340
0380
0380
0180
0180
0100
0100
ENDCHAR
STARTCHAR 0668
ENCODING 1640
SWIDTH 526 0
DWIDTH 19 0
BBX 14 20 3 5
BITMAP
0200
0200
0200
0200
0700
0700
0700
0B80
0980
09C0
19C0
10E0
30F0
3078
607C
E03C
E03C
C01C
800C
8008
ENDCHAR
STARTCHAR 0669
ENCODING 1641
SWIDTH 526 0
DWIDTH 19 0
BBX 11 21 4 5
BITMAP
1E00
3F00
7F00
6300
C180
C180
C180
FF80
FF80
7F80
0180
0180
0180
0180
01C0
01C0
01C0
00E0
00C0
00C0
0040
ENDCHAR
STARTCHAR 066A
ENCODING 1642
SWIDTH 526 0
DWIDTH 19 0
BBX 14 25 2 3
BITMAP
380C
7C0C
7C18
7818
0030
0030
0060
0060
00C0
00C0
0180
0180
0300
0300
0600
0600
0C00
0C00
1800
1800
3010
303C
607C
607C
C038
ENDCHAR
STARTCHAR 066B
ENCODING 1643
SWIDTH 332 0
DWIDTH 12 0
BBX 4 9 4 1
BITMAP
60
F0
F0
F0
F0
30
60
C0
80
ENDCHAR
STARTCHAR 066C
ENCODING 1644
SWIDTH 332 0
DWIDTH 12 0
BBX 6 11 3 5
BITMAP
10
30
60
40
C0
C0
F8
FC
FC
7C
38
ENDCHAR
STARTCHAR 066D
ENCODING 1645
SWIDTH 526 0
DWIDTH 19 0
BBX 12 12 3 15
BITMAP
0600
0600
36E0
3EE0
1B80
E670
FDF0
0F00
1BC0
36E0
3660
0600
ENDCHAR
STARTCHAR 066E
ENCODING 1646
SWIDTH 720 0
DWIDTH 26 0
BBX 25 12 1 5
BITMAP
00000200
40000300
40000700
80000300
80000180
80000180
C0000180
E0000180
7C000180
7FFFFF80
3FFFFF80
07FFFF80
ENDCHAR
STARTCHAR 066F
ENCODING 1647
SWIDTH 581 0
DWIDTH 21 0
BBX 20 19 1 -3
BITMAP
000380
0007C0
0007E0
000CE0
000C70
200EF0
200FF0
400FF0
4007F0
400010
C00010
C00010
C00030
C00070
E001E0
7F3FE0
3FFFC0
1FFF00
01E000
ENDCHAR
STARTCHAR 0670
ENCODING 1648
SWIDTH 0 0
DWIDTH 0 0
BBX 2 10 -1 19
BITMAP
80
80
80
C0
40
40
40
40
40
80
ENDCHAR
STARTCHAR 0671
ENCODING 1649
SWIDTH 193 0
DWIDTH 7 0
BBX 8 27 0 5
BITMAP
0E
13
26
FC
80
00
10
18
18
18
18
18
18
18
18
1C
0C
0C
0C
0C
0C
0C
0C
0C
0C
08
08
ENDCHAR
STARTCHAR 0672
ENCODING 1650
SWIDTH 193 0
DWIDTH 7 0
BBX 6 27 0 5
BITMAP
1C
20
30
1C
E0
00
10
18
18
18
18
18
18
18
18
1C
0C
0C
0C
0C
0C
0C
0C
0C
0C
08
08
ENDCHAR
STARTCHAR 0673
ENCODING 1651
SWIDTH 193 0
DWIDTH 7 0
BBX 6 29 1 -2
BITMAP
20
30
30
30
30
30
30
30
30
38
18
18
18
18
18
18
18
18
18
10
10
00
00
00
18
20
20
1C
E0
ENDCHAR
STARTCHAR 0674
ENCODING 1652
SWIDTH 193 0
DWIDTH 7 0
BBX 4 5 2 26
BITMAP
30
70
80
F0
E0
ENDCHAR
STARTCHAR 0675
ENCODING 1653
SWIDTH 193 0
DWIDTH 7 0
BBX 8 21 3 6
BITMAP
8E
D0
DD
CE
D0
C0
C0
C0
C0
E0
60
60
60
60
60
60
60
60
60
40
40
ENDCHAR
STARTCHAR 0676
ENCODING 1654
SWIDTH 443 0
DWIDTH 16 0
BBX 17 24 1 -2
BITMAP
000380
000400
000700
000380
000400
000000
000000
001800
003C00
007C00
004400
004600
006600
007E00
007E00
001E00
000400
000C00
001C00
003800
007800
01F000
FFE000
0F8000
ENDCHAR
STARTCHAR 0677
ENCODING 1655
SWIDTH 443 0
DWIDTH 16 0
BBX 17 25 1 -3
BITMAP
01C000
02C380
014400
018700
00C380
014400
060000
000000
001800
003C00
007C00
004400
004600
006600
007E00
007E00
001E00
000400
000C00
001C00
003800
007800
01F000
FFE000
0F8000
ENDCHAR
STARTCHAR 0678
ENCODING 1656
SWIDTH 636 0
DWIDTH 23 0
BBX 23 27 1 -2
BITMAP
000004
00000C
000010
00001E
000018
000000
000000
000000
000020
0001F8
0003F8
000318
100608
200C00
200800
400800
401FE0
C01FF0
800FF0
800030
800060
C001E0
E007C0
FEFF80
7FFF00
3FFC00
030000
ENDCHAR
STARTCHAR 0679
ENCODING 1657
SWIDTH 720 0
DWIDTH 26 0
BBX 25 24 1 6
BITMAP
00300000
00200000
00200000
00200000
00100000
00100000
00278000
0018C000
0020C000
01FFC000
00000000
00000000
00000200
40000300
40000700
80000300
80000180
80000180
C0000180
E0000180
7C000180
7FFFFF80
3FFFFF80
07FFFF80
ENDCHAR
STARTCHAR 067A
ENCODING 1658
SWIDTH 720 0
DWIDTH 26 0
BBX 25 22 1 5
BITMAP
00100000
003C0000
00380000
00080000
00000000
001C0000
001C0000
000C0000
00000000
00000000
00000200
40000300
40000700
80000300
80000180
80000180
C0000180
E0000180
7C000180
7FFFFF80
3FFFFF80
07FFFF80
ENDCHAR
STARTCHAR 067B
ENCODING 1659
SWIDTH 720 0
DWIDTH 26 0
BBX 25 23 1 -6
BITMAP
00000200
40000300
40000700
80000300
80000180
80000180
C0000180
E0000180
7C000180
7FFFFF80
3FFFFF80
07FFFF80
00000000
00000000
00000000
000C0000
001E0000
000C0000
00040000
00040000
000F0000
000E0000
00020000
ENDCHAR
STARTCHAR 067C
ENCODING 1660
SWIDTH 720 0
DWIDTH 26 0
BBX 25 22 1 1
BITMAP
00040000
00070000
006F0000
00770000
00F00000
00200000
00000200
40000300
40000700
80000300
80000180
80000180
C0000180
E0000180
7C000180
7FFFFF80
3FFFFF80
07FFFF80
00130000
00120000
001E0000
001C0000
ENDCHAR
STARTCHAR 067D
ENCODING 1661
SWIDTH 720 0
DWIDTH 26 0
BBX 25 22 1 5
BITMAP
00060000
00470000
006F0000
00F20000
00700000
000E0000
000F0000
000E0000
00020000
00000000
00000200
40000300
40000700
80000300
80000180
80000180
C0000180
E0000180
7C000180
7FFFFF80
3FFFFF80
07FFFF80
ENDCHAR
STARTCHAR 067E
ENCODING 1662
SWIDTH 720 0
DWIDTH 26 0
BBX 25 23 1 -6
BITMAP
00000200
40000300
40000700
80000300
80000180
80000180
C0000180
E0000180
7C000180
7FFFFF80
3FFFFF80
07FFFF80
00000000
00000000
00000000
00030000
00278000
007B0000
00710000
00340000
00070000
000F0000
00060000
ENDCHAR
STARTCHAR 067F
ENCODING 1663
SWIDTH 720 0
DWIDTH 26 0
BBX 25 22 1 5
BITMAP
00040000
000F0000
00EE0000
00F20000
00600000
00270000
00670000
007B0000
00700000
00100000
00000200
40000300
40000700
80000300
80000180
80000180
C0000180
E0000180
7C000180
7FFFFF80
3FFFFF80
07FFFF80
ENDCHAR
STARTCHAR 0680
ENCODING 1664
SWIDTH 720 0
DWIDTH 26 0
BBX 25 24 1 -8
BITMAP
00000200
40000300
40000700
80000300
80000180
80000180
C0000180
E0000180
7C000180
7FFFFF80
3FFFFF80
07FFFF80
00000000
00000000
00000000
00070000
00470000
00770000
00F00000
00330000
00038000
00378000
00390000
00380000
ENDCHAR
STARTCHAR 0681
ENCODING 1665
SWIDTH 553 0
DWIDTH 20 0
BBX 17 33 1 -8
BITMAP
002000
007000
008000
00F000
00E000
000000
000000
000000
000000
070000
3FFF80
7FFF80
7FFF00
03F800
078000
0E0000
180000
300000
600000
400000
800000
800000
800000
800000
C00000
C00000
E00000
700000
7C0000
3FF000
1FFF80
07FE00
007C00
ENDCHAR
STARTCHAR 0682
ENCODING 1666
SWIDTH 553 0
DWIDTH 20 0
BBX 17 35 1 -8
BITMAP
018000
01C000
03C000
008000
008000
00E000
01E000
00C000
000000
000000
000000
070000
3FFF80
7FFF80
7FFF00
03F800
078000
0E0000
180000
300000
600000
400000
800000
800000
800000
800000
C00000
C00000
E00000
700000
7C0000
3FF000
1FFF80
07FE00
007C00
ENDCHAR
STARTCHAR 0683
ENCODING 1667
SWIDTH 553 0
DWIDTH 20 0
BBX 17 24 1 -8
BITMAP
070000
3FFF80
7FFF80
7FFF00
03F800
078000
0E0000
180000
300000
600000
401000
801C00
81BC00
83C800
818000
C00000
C00000
E00000
700000
7C0000
3FF000
1FFF80
07FE00
007C00
ENDCHAR
STARTCHAR 0684
ENCODING 1668
SWIDTH 553 0
DWIDTH 20 0
BBX 17 24 1 -8
BITMAP
070000
3FFF80
7FFF80
7FFF00
03F800
078000
0E0000
180000
300000
604000
40F000
80E000
802000
800000
807000
C07000
C03000
E00000
700000
7C0000
3FF000
1FFF80
07FE00
007C00
ENDCHAR
STARTCHAR 0685
ENCODING 1669
SWIDTH 553 0
DWIDTH 20 0
BBX 17 35 1 -8
BITMAP
018000
01C000
03C000
009000
003C00
03F800
039800
038000
000000
000000
000000
070000
3FFF80
7FFF80
7FFF00
03F800
078000
0E0000
180000
300000
600000
400000
800000
800000
800000
800000
C00000
C00000
E00000
700000
7C0000
3FF000
1FFF80
07FE00
007C00
ENDCHAR
STARTCHAR 0686
ENCODING 1670
SWIDTH 553 0
DWIDTH 20 0
BBX 17 24 1 -8
BITMAP
070000
3FFF80
7FFF80
7FFF00
03F800
078000
0E0000
180000
301000
601C00
41BC00
83D800
838000
80B000
803800
C07800
C01000
E00000
700000
7C0000
3FF000
1FFF80
07FE00
007C00
ENDCHAR
STARTCHAR 0687
ENCODING 1671
SWIDTH 553 0
DWIDTH 20 0
BBX 17 24 1 -8
BITMAP
070000
3FFF80
7FFF80
7FFF00
03F800
078000
0E0000
180000
301800
611C00
41DC00
83C000
808800
800E00
80DE00
C1E400
C0E000
E00000
700000
7C0000
3FF000
1FFF80
07FE00
007C00
ENDCHAR
STARTCHAR 0688
ENCODING 1672
SWIDTH 332 0
DWIDTH 12 0
BBX 11 27 1 5
BITMAP
1000
3000
1000
1000
1000
0800
0800
17C0
0840
71C0
FFC0
0000
0200
0300
0380
03C0
00C0
0040
0060
0020
0020
0020
0020
4020
7FE0
7FE0
3FE0
ENDCHAR
STARTCHAR 0689
ENCODING 1673
SWIDTH 332 0
DWIDTH 12 0
BBX 10 19 2 1
BITMAP
0400
0600
0700
0780
0180
0080
00C0
0040
0040
0040
0040
8040
FFC0
FFC0
7FC0
1300
1100
1E00
0C00
ENDCHAR
STARTCHAR 068A
ENCODING 1674
SWIDTH 332 0
DWIDTH 12 0
BBX 10 21 2 -2
BITMAP
0400
0600
0700
0780
0180
0080
00C0
0040
0040
0040
0040
8040
FFC0
FFC0
7FC0
0000
0000
0000
0C00
0E00
0E00
ENDCHAR
STARTCHAR 068B
ENCODING 1675
SWIDTH 332 0
DWIDTH 12 0
BBX 11 33 1 -2
BITMAP
1000
3000
1000
1000
1000
0800
0800
17C0
0840
71C0
FFC0
0000
0200
0300
0380
03C0
00C0
0040
0060
0020
0020
0020
0020
4020
7FE0
7FE0
3FE0
0000
0000
0000
0600
0700
0700
ENDCHAR
STARTCHAR 068C
ENCODING 1676
SWIDTH 332 0
DWIDTH 12 0
BBX 10 22 2 5
BITMAP
0400
0F00
EE00
F200
6000
0000
0000
0400
0600
0700
0780
0180
0080
00C0
0040
0040
0040
0040
8040
FFC0
FFC0
7FC0
ENDCHAR
STARTCHAR 068D
ENCODING 1677
SWIDTH 332 0
DWIDTH 12 0
BBX 10 23 2 -3
BITMAP
0400
0600
0700
0780
0180
0080
00C0
0040
0040
0040
0040
8040
FFC0
FFC0
7FC0
0000
0000
0000
0300
2780
7B00
7800
3000
ENDCHAR
STARTCHAR 068E
ENCODING 1678
SWIDTH 332 0
DWIDTH 12 0
BBX 10 26 2 5
BITMAP
2000
3000
7800
3000
0700
4700
7700
F000
2000
0000
0000
0400
0600
0700
0780
0180
0080
00C0
0040
0040
0040
0040
8040
FFC0
FFC0
7FC0
ENDCHAR
STARTCHAR 068F
ENCODING 1679
SWIDTH 332 0
DWIDTH 12 0
BBX 11 26 1 5
BITMAP
0400
0700
4F00
7600
F000
2400
0F00
1E00
0600
0000
0000
0200
0300
0380
03C0
00C0
0040
0060
0020
0020
0020
0020
4020
7FE0
7FE0
3FE0
ENDCHAR
STARTCHAR 0690
ENCODING 1680
SWIDTH 332 0
DWIDTH 12 0
BBX 11 25 1 6
BITMAP
0700
6700
7700
F000
2300
2380
3B80
7900
3000
0000
0200
0300
0380
03C0
00C0
0040
0060
0020
0020
0020
0020
4020
7FE0
7FE0
3FE0
ENDCHAR
STARTCHAR 0691
ENCODING 1681
SWIDTH 498 0
DWIDTH 18 0
BBX 16 33 2 -3
BITMAP
0100
0180
0180
0100
0080
0080
0080
00BC
00C6
0106
0FFE
0000
0000
0000
0000
000C
000E
000E
0006
0007
0003
0003
0003
0003
0003
0007
0006
000E
001C
0078
01F0
FFE0
1FC0
ENDCHAR
STARTCHAR 0692
ENCODING 1682
SWIDTH 498 0
DWIDTH 18 0
BBX 16 26 2 -3
BITMAP
00C8
0058
0070
0030
0000
0000
0000
0000
000C
000E
000E
0006
0007
0003
0003
0003
0003
0003
0007
0006
000E
001C
0078
01F0
FFE0
1FC0
ENDCHAR
STARTCHAR 0693
ENCODING 1683
SWIDTH 498 0
DWIDTH 18 0
BBX 16 20 2 -4
BITMAP
000C
000E
000E
0006
0007
0003
0003
0003
0003
0003
0007
0006
000E
001C
007E
01FE
FFF3
1FD2
001E
0008
ENDCHAR
STARTCHAR 0694
ENCODING 1684
SWIDTH 498 0
DWIDTH 18 0
BBX 16 20 2 -4
BITMAP
000C
000E
000E
0006
0007
0003
0003
0003
0003
0003
0007
0006
000E
001C
0078
01F0
FFE4
1FC7
000F
0002
ENDCHAR
STARTCHAR 0695
ENCODING 1685
SWIDTH 498 0
DWIDTH 18 0
BBX 16 22 2 -6
BITMAP
000C
000E
000E
0006
0007
0003
0003
0003
0003
0003
0007
0006
000E
001C
0078
01F0
FFE0
1FC0
0032
0016
001C
0008
ENDCHAR
STARTCHAR 0696
ENCODING 1686
SWIDTH 498 0
DWIDTH 18 0
BBX 16 20 2 -4
BITMAP
000C
000E
000E
0006
0007
0003
0003
0003
0703
0703
0707
0006
000E
001C
0078
01F0
FFE4
1FC7
000F
0002
ENDCHAR
STARTCHAR 0697
ENCODING 1687
SWIDTH 498 0
DWIDTH 18 0
BBX 16 26 2 -3
BITMAP
0030
003C
0378
0398
0380
0000
0000
0000
000C
000E
000E
0006
0007
0003
0003
0003
0003
0003
0007
0006
000E
001C
0078
01F0
FFE0
1FC0
ENDCHAR
STARTCHAR 0698
ENCODING 1688
SWIDTH 498 0
DWIDTH 18 0
BBX 16 29 2 -3
BITMAP
0040
00F0
00E0
0068
000E
00DE
01E4
00C0
0040
0000
0000
000C
000E
000E
0006
0007
0003
0003
0003
0003
0003
0007
0006
000E
001C
0078
01F0
FFE0
1FC0
ENDCHAR
STARTCHAR 0699
ENCODING 1689
SWIDTH 498 0
DWIDTH 18 0
BBX 16 30 2 -3
BITMAP
0070
0078
0770
0710
0330
003C
0378
0398
0380
0000
0000
0000
000C
000E
000E
0006
0007
0003
0003
0003
0003
0003
0007
0006
000E
001C
0078
01F0
FFE0
1FC0
ENDCHAR
STARTCHAR 069A
ENCODING 1690
SWIDTH 830 0
DWIDTH 30 0
BBX 29 24 1 -3
BITMAP
00000E00
00000E00
00000E00
00000000
00000000
00000000
00008000
00008010
00018130
0001C118
2001C118
2000C188
4000C3D8
40007FF8
40007FF8
C0007C78
C0004000
C000C000
C0018000
E00780C0
7EFF01E0
7FFE00C0
3FF80040
03800000
ENDCHAR
STARTCHAR 069B
ENCODING 1691
SWIDTH 830 0
DWIDTH 30 0
BBX 29 21 1 -6
BITMAP
00008000
00008010
00018130
0001C118
2001C118
2000C188
4000C3D8
40007FF8
40007FF8
C0007C78
C0004000
C000C000
C0018000
E0078070
7EFF0270
7FFE0770
3FF80700
03800340
00000070
000000F0
00000060
ENDCHAR
STARTCHAR 069C
ENCODING 1692
SWIDTH 830 0
DWIDTH 30 0
BBX 29 32 1 -6
BITMAP
00001000
00003C00
00003800
00000A00
00000380
00003780
00007900
00003800
00000000
00000000
00000000
00008000
00008010
00018130
0001C118
2001C118
2000C188
4000C3D8
40007FF8
40007FF8
C0007C78
C0004000
C000C000
C0018000
E0078070
7EFF0270
7FFE0770
3FF80700
03800340
00000070
000000F0
00000060
ENDCHAR
STARTCHAR 069D
ENCODING 1693
SWIDTH 1107 0
DWIDTH 40 0
BBX 39 18 1 -3
BITMAP
0000800060
00008003F8
0001800FFC
0001C01FFC
2001C0701E
2000C1C00E
4000C7003E
40007FFFFE
40007FFFFE
C0007FFFFE
C000400000
C000800000
C001800000
E007800600
7EFF004F00
7FFE007600
3FF800F000
0380002000
ENDCHAR
STARTCHAR 069E
ENCODING 1694
SWIDTH 1107 0
DWIDTH 40 0
BBX 39 29 1 -3
BITMAP
0000002000
0000007800
0000007000
0000001400
0000000700
0000006F00
0000007200
0000007000
0000000000
0000000000
0000000000
0000800060
00008003F8
0001800FFC
0001C01FFC
2001C0701E
2000C1C00E
4000C7003E
40007FFFFE
40007FFFFE
C0007FFFFE
C000400000
C000800000
C001800000
E007800000
7EFF000000
7FFE000000
3FF8000000
0380000000
ENDCHAR
STARTCHAR 069F
ENCODING 1695
SWIDTH 581 0
DWIDTH 21 0
BBX 22 23 -1 6
BITMAP
020000
07C000
078200
038780
038700
010140
018070
0186F0
018F20
008700
008000
008000
00C000
008040
0087F8
009FF8
00FFFC
00F01C
01C01C
0F003C
FFFFFC
FFFFFC
FFFFFC
ENDCHAR
STARTCHAR 06A0
ENCODING 1696
SWIDTH 553 0
DWIDTH 20 0
BBX 17 39 1 -8
BITMAP
100000
180000
3C0000
180000
038000
238000
3B8000
780000
100000
000000
000000
000000
1F8000
3FC000
780000
C00000
800000
C00400
E03C00
FCFC00
7FF000
3F8000
0E0000
1C0000
300000
600000
400000
C00000
800000
800000
800000
C00000
C00000
E00000
780000
7FF800
3FFF80
0FFE00
003800
ENDCHAR
STARTCHAR 06A1
ENCODING 1697
SWIDTH 775 0
DWIDTH 28 0
BBX 27 12 1 5
BITMAP
400001C0
400003E0
800007E0
80000660
80000660
80000E20
C00007E0
E00003E0
FE0000E0
7FFFFFE0
1FFFFFE0
01FFFFE0
ENDCHAR
STARTCHAR 06A2
ENCODING 1698
SWIDTH 775 0
DWIDTH 28 0
BBX 27 18 1 -2
BITMAP
400001C0
400003E0
800007E0
80000660
80000660
80000E20
C00007E0
E00003E0
FE0000E0
7FFFFFE0
1FFFFFE0
01FFFFE0
00000000
00000000
00000000
00000180
000001C0
000001C0
ENDCHAR
STARTCHAR 06A3
ENCODING 1699
SWIDTH 775 0
DWIDTH 28 0
BBX 27 24 1 -2
BITMAP
00000300
00000380
00000780
00000100
00000000
00000000
400001C0
400003E0
800007E0
80000660
80000660
80000E20
C00007E0
E00003E0
FE0000E0
7FFFFFE0
1FFFFFE0
01FFFFE0
00000000
00000000
00000000
00060000
00070000
00070000
ENDCHAR
STARTCHAR 06A4
ENCODING 1700
SWIDTH 775 0
DWIDTH 28 0
BBX 27 22 1 6
BITMAP
00000E00
00000E00
00000680
000000E0
000009E0
00001EC0
00001C00
00000400
00000000
00000000
400001C0
400003E0
800007E0
80000660
80000660
80000E20
C00007E0
E00003E0
FE0000E0
7FFFFFE0
1FFFFFE0
01FFFFE0
ENDCHAR
STARTCHAR 06A5
ENCODING 1701
SWIDTH 775 0
DWIDTH 28 0
BBX 28 23 1 -6
BITMAP
400001C0
400003E0
800007E0
80000660
80000660
80000E20
C00007E0
E00003E0
FE0000E0
7FFFFFE0
1FFFFFE0
01FFFFE0
00000000
00000000
00000000
00000070
00000270
00000770
00000700
00000340
00000070
000000F0
00000060
ENDCHAR
STARTCHAR 06A6
ENCODING 1702
SWIDTH 775 0
DWIDTH 28 0
BBX 27 24 1 5
BITMAP
00000100
000001C0
00001BC0
00001C80
00001C00
000000C0
000009E0
00000EE0
00001E00
00000400
00000000
00000000
400001C0
400003E0
800007E0
80000660
80000660
80000E20
C00007E0
E00003E0
FE0000E0
7FFFFFE0
1FFFFFE0
01FFFFE0
ENDCHAR
STARTCHAR 06A7
ENCODING 1703
SWIDTH 581 0
DWIDTH 21 0
BBX 20 26 1 -3
BITMAP
000400
000700
000F00
000600
000000
000000
000000
000380
0007C0
0007E0
000CE0
000C70
200EF0
200FF0
400FF0
4007F0
400010
C00010
C00010
C00030
C00070
E001E0
7F3FE0
3FFFC0
1FFF00
01E000
ENDCHAR
STARTCHAR 06A8
ENCODING 1704
SWIDTH 581 0
DWIDTH 21 0
BBX 20 29 1 -3
BITMAP
001000
003C00
003C00
000B00
000380
003780
003980
003800
000000
000000
000380
0007C0
0007E0
000CE0
000C70
200EF0
200FF0
400FF0
4007F0
400010
C00010
C00010
C00030
C00070
E001E0
7F3FE0
3FFFC0
1FFF00
01E000
ENDCHAR
STARTCHAR 06A9
ENCODING 1705
SWIDTH 803 0
DWIDTH 29 0
BBX 29 21 0 6
BITMAP
00000070
000003F0
00000FF0
00001F80
00003C00
00007000
00006000
00007000
0000F800
00007C00
00003F00
20001F80
400003C0
400001E0
400000E0
C0000070
E0000038
78000018
7FFFFFF8
3FFFFFF8
0FFFFFF8
ENDCHAR
STARTCHAR 06AA
ENCODING 1706
SWIDTH 803 0
DWIDTH 29 0
BBX 29 19 0 5
BITMAP
00018000
00078000
001F8000
007E0000
00F00000
01800000
03000000
03000000
03E00000
01FF0000
007FFC00
4007FF80
40001FE0
C00001F0
E0000038
78000018
7FFFFFF8
3FFFFFF8
0FFFFFF8
ENDCHAR
STARTCHAR 06AB
ENCODING 1707
SWIDTH 803 0
DWIDTH 29 0
BBX 29 21 0 6
BITMAP
00000070
000003F0
00000FF0
00001FE0
00003D30
00007130
000061E0
00007080
0000F800
00007C00
00003F00
20001F80
400003C0
400001E0
400000E0
C0000070
E0000038
78000018
7FFFFFF8
3FFFFFF8
0FFFFFF8
ENDCHAR
STARTCHAR 06AC
ENCODING 1708
SWIDTH 609 0
DWIDTH 22 0
BBX 21 23 1 5
BITMAP
004080
0070C0
00F0F0
0020F0
0000F0
000870
001860
003060
002060
004060
007C20
007C30
000C30
400C30
401C30
87F030
800030
800010
C00018
F80018
FFFFF8
7FFFF8
0FFFF8
ENDCHAR
STARTCHAR 06AD
ENCODING 1709
SWIDTH 609 0
DWIDTH 22 0
BBX 21 26 1 6
BITMAP
01C000
01C000
00C000
001880
013CC0
03D8F0
0380F0
0080F0
000870
001860
003060
002060
004060
007C20
007C30
000C30
400C30
401C30
87F030
800030
800010
C00018
F80018
FFFFF8
7FFFF8
0FFFF8
ENDCHAR
STARTCHAR 06AE
ENCODING 1710
SWIDTH 609 0
DWIDTH 22 0
BBX 21 34 1 -6
BITMAP
000080
0000C0
0000F0
0000F0
0000F0
000870
001860
003060
002060
004060
007C20
007C30
000C30
400C30
401C30
87F030
800030
800010
C00018
F80018
FFFFF8
7FFFF8
0FFFF8
000000
000000
000000
001C00
001C00
01DC00
03C000
00D000
001800
003C00
001800
ENDCHAR
STARTCHAR 06AF
ENCODING 1711
SWIDTH 803 0
DWIDTH 29 0
BBX 29 26 0 5
BITMAP
00000030
000000F0
000003F0
00000F80
00003E00
00007870
0000E3F0
00008FF0
00001F80
00003C00
00007000
00006000
00007000
0000F800
00007C00
00003F00
20001F80
400003C0
400001E0
400000E0
C0000070
E0000038
78000018
7FFFFFF8
3FFFFFF8
0FFFFFF8
ENDCHAR
STARTCHAR 06B0
ENCODING 1712
SWIDTH 803 0
DWIDTH 29 0
BBX 29 26 0 5
BITMAP
00000030
000000F0
000003F0
00000F80
00003E00
00007870
0000E3F0
00008FF0
00001FE0
00003D30
00007130
000061E0
00007080
0000F800
00007C00
00003F00
20001F80
400003C0
400001E0
400000E0
C0000070
E0000038
78000018
7FFFFFF8
3FFFFFF8
0FFFFFF8
ENDCHAR
STARTCHAR 06B1
ENCODING 1713
SWIDTH 803 0
DWIDTH 29 0
BBX 29 27 0 5
BITMAP
00000600
00004E30
000070F0
000063F0
00000F80
00003E00
00007870
0000E3F0
00008FF0
00001F80
00003C00
00007000
00006000
00007000
0000F800
00007C00
00003F00
20001F80
400003C0
400001E0
400000E0
C0000070
E0000038
78000018
7FFFFFF8
3FFFFFF8
0FFFFFF8
ENDCHAR
STARTCHAR 06B2
ENCODING 1714
SWIDTH 803 0
DWIDTH 29 0
BBX 29 34 0 -3
BITMAP
00000030
000000F0
000003F0
00000F80
00003E00
00007870
0000E3F0
00008FF0
00001F80
00003C00
00007000
00006000
00007000
0000F800
00007C00
00003F00
20001F80
400003C0
400001E0
400000E0
C0000070
E0000038
78000018
7FFFFFF8
3FFFFFF8
0FFFFFF8
00000000
00000000
00000000
00006000
0004F000
00076000
000F0000
00060000
ENDCHAR
STARTCHAR 06B3
ENCODING 1715
SWIDTH 803 0
DWIDTH 29 0
BBX 29 37 0 -6
BITMAP
00000030
000000F0
000003F0
00000F80
00003E00
00007870
0000E3F0
00008FF0
00001F80
00003C00
00007000
00006000
00007000
0000F800
00007C00
00003F00
20001F80
400003C0
400001E0
400000E0
C0000070
E0000038
78000018
7FFFFFF8
3FFFFFF8
0FFFFFF8
00000000
00000000
00000000
00038000
00038000
00038000
00000000
00018000
0001E000
0003C000
00008000
ENDCHAR
STARTCHAR 06B4
ENCODING 1716
SWIDTH 803 0
DWIDTH 29 0
BBX 29 27 0 5
BITMAP
00007000
00006E30
00004CF0
0000E3F0
00000F80
00003E00
00007870
0000E3F0
00008FF0
00001F80
00003C00
00007000
00006000
00007000
0000F800
00007C00
00003F00
20001F80
400003C0
400001E0
400000E0
C0000070
E0000038
78000018
7FFFFFF8
3FFFFFF8
0FFFFFF8
ENDCHAR
STARTCHAR 06B5
ENCODING 1717
SWIDTH 498 0
DWIDTH 18 0
BBX 17 32 1 0
BITMAP
001900
000B00
000E00
000400
000000
000600
000780
000780
000780
000380
000300
000300
000300
000300
000100
000100
000180
100180
200180
200180
400180
400080
400080
400080
C00080
C00080
C00180
E00380
7C3F00
7FFF00
3FFC00
07E000
ENDCHAR
STARTCHAR 06B6
ENCODING 1718
SWIDTH 498 0
DWIDTH 18 0
BBX 17 32 1 0
BITMAP
000600
000700
000F00
000200
000000
000600
000780
000780
000780
000380
000300
000300
000300
000300
000100
000100
000180
100180
200180
200180
400180
400080
400080
400080
C00080
C00080
C00180
E00380
7C3F00
7FFF00
3FFC00
07E000
ENDCHAR
STARTCHAR 06B7
ENCODING 1719
SWIDTH 498 0
DWIDTH 18 0
BBX 17 32 1 0
BITMAP
001C00
001B80
001300
003800
000000
000600
000780
000780
000780
000380
000300
000300
000300
000300
000100
000100
000180
100180
200180
200180
400180
400080
400080
400080
C00080
C00080
C00180
E00380
7C3F00
7FFF00
3FFC00
07E000
ENDCHAR
STARTCHAR 06B8
ENCODING 1720
SWIDTH 498 0
DWIDTH 18 0
BBX 17 34 1 -6
BITMAP
000600
000780
000780
000780
000380
000300
000300
000300
000300
000100
000100
000180
100180
200180
200180
400180
400080
400080
400080
C00080
C00080
C00180
E00380
7C3F00
7FFF00
3FFC00
07E000
000000
007800
027000
079000
074000
00F000
006000
ENDCHAR
STARTCHAR 06B9
ENCODING 1721
SWIDTH 526 0
DWIDTH 19 0
BBX 18 27 1 -8
BITMAP
00C000
00E000
00E000
000000
000000
000080
000080
0001C0
1001C0
2000C0
2000C0
4000C0
400040
400040
400040
C00040
C000C0
C001C0
E00780
7EFF80
7FFF00
3FFC00
03C000
000000
00E000
00E000
00E000
ENDCHAR
STARTCHAR 06BA
ENCODING 1722
SWIDTH 526 0
DWIDTH 19 0
BBX 18 18 1 -3
BITMAP
000080
000080
0001C0
1001C0
2000C0
2000C0
4000C0
400040
400040
400040
C00040
C000C0
C001C0
E00780
7EFF80
7FFF00
3FFC00
03C000
ENDCHAR
STARTCHAR 06BB
ENCODING 1723
SWIDTH 526 0
DWIDTH 19 0
BBX 18 31 1 -2
BITMAP
018000
018000
010000
008000
008000
008000
009C00
00FE00
008600
0FFE00
0FFE00
000000
000000
000080
000080
0001C0
1001C0
2000C0
2000C0
4000C0
400040
400040
400040
C00040
C000C0
C001C0
E00780
7EFF80
7FFF00
3FFC00
03C000
ENDCHAR
STARTCHAR 06BC
ENCODING 1724
SWIDTH 526 0
DWIDTH 19 0
BBX 18 27 1 -7
BITMAP
00C000
00E000
00E000
000000
000000
000080
000080
0001C0
1001C0
2000C0
2000C0
4000C0
400040
400040
400040
C00040
C000C0
C001C0
E00780
7EFF80
7FFF00
3FFC00
03E000
026000
022000
03C000
018000
ENDCHAR
STARTCHAR 06BD
ENCODING 1725
SWIDTH 526 0
DWIDTH 19 0
BBX 18 29 1 -3
BITMAP
030000
03C000
078000
012000
007800
037800
079000
070000
010000
000000
000000
000080
000080
0001C0
1001C0
2000C0
2000C0
4000C0
400040
400040
400040
C00040
C000C0
C001C0
E00780
7EFF80
7FFF00
3FFC00
03C000
ENDCHAR
STARTCHAR 06BE
ENCODING 1726
SWIDTH 443 0
DWIDTH 16 0
BBX 15 15 -1 5
BITMAP
0100
0300
0380
03C0
03E0
07F0
04F0
0878
085C
1CDC
0FCE
1FC6
FFF6
FCFE
F03C
ENDCHAR
STARTCHAR 06BF
ENCODING 1727
SWIDTH 553 0
DWIDTH 20 0
BBX 17 31 1 -8
BITMAP
008000
01E000
01C000
004000
000000
000000
000000
070000
3FFF80
7FFF80
7FFF00
03F800
078000
0E0000
180000
301000
601C00
41BC00
83D800
838000
80B000
803800
C07800
C01000
E00000
700000
7C0000
3FF000
1FFF80
07FE00
007C00
ENDCHAR
STARTCHAR 06C0
ENCODING 1728
SWIDTH 276 0
DWIDTH 10 0
BBX 8 18 1 5
BITMAP
0C
1C
30
1C
30
00
00
20
38
3C
3E
6F
47
C1
C1
EF
FF
7C
ENDCHAR
STARTCHAR 06C1
ENCODING 1729
SWIDTH 387 0
DWIDTH 14 0
BBX 13 9 1 3
BITMAP
0700
0F80
1FC0
31E0
20F8
6078
4038
8000
8000
ENDCHAR
STARTCHAR 06C2
ENCODING 1730
SWIDTH 387 0
DWIDTH 14 0
BBX 13 16 1 3
BITMAP
0600
1800
0C00
0600
1800
0000
0000
0700
0F80
1FC0
31E0
20F8
6078
4038
8000
8000
ENDCHAR
STARTCHAR 06C3
ENCODING 1731
SWIDTH 387 0
DWIDTH 14 0
BBX 13 17 1 3
BITMAP
0300
0380
3780
7900
3800
0000
0000
0000
0700
0F80
1FC0
31E0
20F8
6078
4038
8000
8000
ENDCHAR
STARTCHAR 06C4
ENCODING 1732
SWIDTH 443 0
DWIDTH 16 0
BBX 15 17 1 -3
BITMAP
0018
003C
007C
0044
0046
0066
007E
007E
001E
0004
01CC
02DC
0478
0278
03F0
FFE0
0F80
ENDCHAR
STARTCHAR 06C5
ENCODING 1733
SWIDTH 443 0
DWIDTH 16 0
BBX 15 17 1 -3
BITMAP
0018
003C
007C
004E
0046
0076
007E
007E
001E
0304
07FC
003C
0038
0078
01F0
FFE0
0F80
ENDCHAR
STARTCHAR 06C6
ENCODING 1734
SWIDTH 443 0
DWIDTH 16 0
BBX 15 24 1 -3
BITMAP
0064
002C
0038
0018
0000
0000
0000
0018
003C
007C
0044
0046
0066
007E
007E
001E
0004
000C
001C
0038
0078
01F0
FFE0
0F80
ENDCHAR
STARTCHAR 06C7
ENCODING 1735
SWIDTH 443 0
DWIDTH 16 0
BBX 15 27 1 -3
BITMAP
0018
001C
0034
0038
001C
0014
0020
0080
0000
0000
0018
003C
007C
0044
0046
0066
007E
007E
001E
0004
000C
001C
0038
0078
01F0
FFE0
0F80
ENDCHAR
STARTCHAR 06C8
ENCODING 1736
SWIDTH 443 0
DWIDTH 16 0
BBX 15 29 1 -2
BITMAP
0020
0020
0020
0030
0010
0010
0010
0010
0010
0000
0000
0000
0018
003C
007C
0044
0046
0066
007E
007E
001E
0004
000C
001C
0038
0078
01F0
FFE0
0F80
ENDCHAR
STARTCHAR 06C9
ENCODING 1737
SWIDTH 443 0
DWIDTH 16 0
BBX 15 24 1 -3
BITMAP
0018
0038
002C
0064
0000
0000
0000
0018
003C
007C
0044
0046
0066
007E
007E
001E
0004
000C
001C
0038
0078
01F0
FFE0
0F80
ENDCHAR
STARTCHAR 06CA
ENCODING 1738
SWIDTH 443 0
DWIDTH 16 0
BBX 15 25 1 -2
BITMAP
001C
011C
01DC
03C0
00C0
0000
0000
0000
0018
003C
007C
0044
0046
0066
007E
007E
001E
0004
000C
001C
0038
0078
01F0
FFE0
0F80
ENDCHAR
STARTCHAR 06CB
ENCODING 1739
SWIDTH 443 0
DWIDTH 16 0
BBX 15 29 1 -3
BITMAP
0080
00E0
01E0
00C0
001C
009E
01FC
01C0
00C0
0000
0000
0000
0018
003C
007C
0044
0046
0066
007E
007E
001E
0004
000C
001C
0038
0078
01F0
FFE0
0F80
ENDCHAR
STARTCHAR 06CC
ENCODING 1740
SWIDTH 636 0
DWIDTH 23 0
BBX 21 19 1 -2
BITMAP
000020
0001F8
0003F8
000318
100608
200C00
200800
400800
401FE0
C01FF0
800FF0
800030
800060
C001E0
E007C0
FEFF80
7FFF00
3FFC00
030000
ENDCHAR
STARTCHAR 06CD
ENCODING 1741
SWIDTH 636 0
DWIDTH 23 0
BBX 23 19 -1 -2
BITMAP
00000C
00007E
0000FE
0000C6
0C0182
380300
E80200
900200
1007F8
3007FC
2003FC
20000C
20001C
300078
3801F0
3FBFE0
1FFFC0
0FFF00
008000
ENDCHAR
STARTCHAR 06CE
ENCODING 1742
SWIDTH 636 0
DWIDTH 23 0
BBX 21 21 1 -2
BITMAP
026000
034000
01C020
0181F8
0003F8
000318
100608
200C00
200800
400800
401FE0
C01FF0
800FF0
800030
800060
C001E0
E007C0
FEFF80
7FFF00
3FFC00
030000
ENDCHAR
STARTCHAR 06CF
ENCODING 1743
SWIDTH 443 0
DWIDTH 16 0
BBX 15 24 1 -3
BITMAP
0040
00F0
00E0
0020
0000
0000
0000
0018
003C
007C
0044
0046
0066
007E
007E
001E
0004
000C
001C
0038
0078
01F0
FFE0
0F80
ENDCHAR
STARTCHAR 06D0
ENCODING 1744
SWIDTH 636 0
DWIDTH 23 0
BBX 21 24 1 -7
BITMAP
000020
0001F8
0003F8
000318
100608
200C00
200800
400800
401FE0
C01FF0
800FF0
800030
800060
C001E0
E007C0
FEFF80
7FFF00
3FFC00
030000
000000
00C000
008000
00C000
004000
ENDCHAR
STARTCHAR 06D1
ENCODING 1745
SWIDTH 636 0
DWIDTH 23 0
BBX 21 23 1 -6
BITMAP
000020
0001F8
0003F8
000318
100608
200C00
200800
400800
401FE0
C01FF0
800FF0
800030
800060
C001E0
E007C0
FEFF80
7FFF00
3FFC00
030000
000000
013000
018000
006000
ENDCHAR
STARTCHAR 06D2
ENCODING 1746
SWIDTH 803 0
DWIDTH 29 0
BBX 28 14 1 -1
BITMAP
000C0000
001E0000
003E0000
00620000
01C00000
07800000
0F000000
3C000000
78000000
60000000
40000000
FFFFFFF0
FFFFFFC0
7FFFFF00
ENDCHAR
STARTCHAR 06D3
ENCODING 1747
SWIDTH 803 0
DWIDTH 29 0
BBX 28 19 1 -1
BITMAP
00400000
01C00000
02000000
01E00000
01800000
020C0000
001E0000
003E0000
00620000
01C00000
07800000
0F000000
3C000000
78000000
60000000
40000000
FFFFFFF0
FFFFFFC0
7FFFFF00
ENDCHAR
STARTCHAR 06D4
ENCODING 1748
SWIDTH 193 0
DWIDTH 7 0
BBX 6 3 1 5
BITMAP
FC
FC
FC
ENDCHAR
STARTCHAR 06D5
ENCODING 1749
SWIDTH 276 0
DWIDTH 10 0
BBX 8 11 1 5
BITMAP
20
38
3C
3E
6F
47
C1
C1
EF
FF
7C
ENDCHAR
STARTCHAR 06D6
ENCODING 1750
SWIDTH 0 0
DWIDTH 0 0
BBX 16 13 -8 19
BITMAP
0800
0C00
0C00
0800
0402
040F
0519
07FF
3FFF
4000
8000
8000
FFF8
ENDCHAR
STARTCHAR 06D7
ENCODING 1751
SWIDTH 0 0
DWIDTH 0 0
BBX 13 13 -6 19
BITMAP
0840
0DC0
0400
04C0
0520
04E0
04E0
07E0
3FE0
4000
8000
8000
FFF8
ENDCHAR
STARTCHAR 06D8
ENCODING 1752
SWIDTH 0 0
DWIDTH 0 0
BBX 8 4 -4 19
BITMAP
06
0A
1D
FF
ENDCHAR
STARTCHAR 06D9
ENCODING 1753
SWIDTH 0 0
DWIDTH 0 0
BBX 8 11 -4 19
BITMAP
82
C3
E1
62
12
0A
0A
04
0C
12
1C
ENDCHAR
STARTCHAR 06DA
ENCODING 1754
SWIDTH 0 0
DWIDTH 0 0
BBX 8 11 -4 19
BITMAP
7D
FF
38
40
80
8C
80
80
80
70
3F
ENDCHAR
STARTCHAR 06DB
ENCODING 1755
SWIDTH 0 0
DWIDTH 0 0
BBX 4 4 -2 19
BITMAP
40
40
30
C0
ENDCHAR
STARTCHAR 06DC
ENCODING 1756
SWIDTH 0 0
DWIDTH 0 0
BBX 14 8 -7 19
BITMAP
0100
4184
8094
80FC
80C4
8080
C300
7E00
ENDCHAR
STARTCHAR 06DD
ENCODING 1757
SWIDTH 1135 0
DWIDTH 41 0
BBX 39 39 1 -7
BITMAP
0001FF0000
000FFFE000
01FE00FE00
0130003100
013FFFF100
03FFFFFB80
07000005C0
0E000000E0
1C00000060
1800000030
3000000038
3000000018
6000000018
600000000C
600000000C
C00000000C
C000000006
C000000006
C000000006
C000000006
C000000006
C000000006
C000000004
C00000000C
600000000C
600000000C
6000000018
3000000018
3000000030
1800000030
1C00000060
0E000000C0
07C00007C0
033FFFFB80
013FFFF100
0138003900
00FF03FE00
000FFFC000
0000FE0000
ENDCHAR
STARTCHAR 06DE
ENCODING 1758
SWIDTH 1080 0
DWIDTH 39 0
BBX 37 37 1 -5
BITMAP
0000200000
0000700000
0000D80000
00018C0000
0003060000
0006030000
07FFFFFF00
061800C300
0630006300
0660003300
06C0001B00
0780000F00
0700000700
0600000300
0E00000380
1E007803C0
3600CC0360
6601040330
C601040318
4601040318
26018C0330
1600F80360
0E002003C0
0600000380
0600000300
0700000700
0680000F00
0640001B00
0620003300
0610006300
060800C300
07FFFFFF00
0002030000
0001060000
00008C0000
0000580000
0000300000
ENDCHAR
STARTCHAR 06DF
ENCODING 1759
SWIDTH 0 0
DWIDTH 0 0
BBX 2 2 -1 19
BITMAP
C0
C0
ENDCHAR
STARTCHAR 06E0
ENCODING 1760
SWIDTH 0 0
DWIDTH 0 0
BBX 2 2 -1 19
BITMAP
C0
C0
ENDCHAR
STARTCHAR 06E1
ENCODING 1761
SWIDTH 0 0
DWIDTH 0 0
BBX 10 5 -5 19
BITMAP
0800
3C00
0700
0180
FFC0
ENDCHAR
STARTCHAR 06E2
ENCODING 1762
SWIDTH 0 0
DWIDTH 0 0
BBX 6 9 -3 20
BITMAP
38
0C
7C
C0
80
80
40
40
40
ENDCHAR
STARTCHAR 06E3
ENCODING 1763
SWIDTH 0 0
DWIDTH 0 0
BBX 14 7 -7 -5
BITMAP
0184
0094
80FC
80EC
8080
C300
7E00
ENDCHAR
STARTCHAR 06E4
ENCODING 1764
SWIDTH 0 0
DWIDTH 0 0
BBX 2 2 -1 18
BITMAP
80
40
ENDCHAR
STARTCHAR 06E5
ENCODING 1765
SWIDTH 193 0
DWIDTH 7 0
BBX 7 8 0 19
BITMAP
04
0E
0A
0E
02
02
04
F8
ENDCHAR
STARTCHAR 06E6
ENCODING 1766
SWIDTH 360 0
DWIDTH 13 0
BBX 13 6 0 20
BITMAP
0600
0800
3000
4000
8000
FFF8
ENDCHAR
STARTCHAR 06E7
ENCODING 1767
SWIDTH 0 0
DWIDTH 0 0
BBX 13 7 -7 19
BITMAP
0200
0600
0800
3000
6000
8000
FFF8
ENDCHAR
STARTCHAR 06E8
ENCODING 1768
SWIDTH 0 0
DWIDTH 0 0
BBX 8 10 -4 20
BITMAP
18
00
01
01
81
81
81
81
C7
FE
ENDCHAR
STARTCHAR 06E9
ENCODING 1769
SWIDTH 609 0
DWIDTH 22 0
BBX 20 29 1 1
BITMAP
006000
00B000
011800
026C00
04B600
091B00
126D80
2496C0
490B60
9205B0
490B60
251640
131480
1B1500
0B1500
0B1500
0B1500
0B1500
0B1500
0B1500
0B1500
0B1500
0B1500
0B1500
0AE500
120580
23FCC0
600040
FFFFE0
ENDCHAR
STARTCHAR 06EA
ENCODING 1770
SWIDTH 0 0
DWIDTH 0 0
BBX 4 4 -2 -5
BITMAP
60
90
90
60
ENDCHAR
STARTCHAR 06EB
ENCODING 1771
SWIDTH 0 0
DWIDTH 0 0
BBX 6 5 -3 20
BITMAP
30
48
84
48
30
ENDCHAR
STARTCHAR 06EC
ENCODING 1772
SWIDTH 0 0
DWIDTH 0 0
BBX 2 2 -1 19
BITMAP
C0
C0
ENDCHAR
STARTCHAR 06ED
ENCODING 1773
SWIDTH 0 0
DWIDTH 0 0
BBX 6 9 -3 -6
BITMAP
38
0C
3C
70
80
80
80
40
40
ENDCHAR
STARTCHAR 06F0
ENCODING 1776
SWIDTH 526 0
DWIDTH 19 0
BBX 5 8 7 8
BITMAP
40
70
F8
F8
F8
F8
30
10
ENDCHAR
STARTCHAR 06F1
ENCODING 1777
SWIDTH 526 0
DWIDTH 19 0
BBX 6 20 6 6
BITMAP
C0
E0
E0
F0
70
78
38
38
1C
1C
0C
0C
0C
0C
0C
0C
04
08
08
08
ENDCHAR
STARTCHAR 06F2
ENCODING 1778
SWIDTH 526 0
DWIDTH 19 0
BBX 11 21 3 5
BITMAP
4020
6020
7020
F860
7FE0
3FE0
3FC0
1C00
0E00
0E00
0600
0700
0700
0300
0300
0300
0300
0100
0100
0100
0100
ENDCHAR
STARTCHAR 06F3
ENCODING 1779
SWIDTH 526 0
DWIDTH 19 0
BBX 15 20 2 5
BITMAP
4042
4042
60E6
7FFE
FFFC
7F7C
3E00
3800
1C00
1C00
0E00
0E00
0600
0600
0600
0600
0600
0200
0200
0200
ENDCHAR
STARTCHAR 06F4
ENCODING 1780
SWIDTH 526 0
DWIDTH 19 0
BBX 13 20 3 5
BITMAP
01E0
43F0
E300
E200
F408
7C18
7FF8
3FF0
3FE0
1C00
1C00
1C00
0C00
0C00
0C00
0C00
0C00
0400
0400
0400
ENDCHAR
STARTCHAR 06F5
ENCODING 1781
SWIDTH 526 0
DWIDTH 19 0
BBX 13 19 3 7
BITMAP
0600
0700
0780
0780
03C0
05E0
08E0
08F0
1070
2030
2018
4018
C008
C008
C008
E3F0
FFF0
FFE0
7DC0
ENDCHAR
STARTCHAR 06F6
ENCODING 1782
SWIDTH 526 0
DWIDTH 19 0
BBX 12 21 4 5
BITMAP
0700
0F80
1FC0
2000
4000
C010
F0E0
FFE0
FFE0
7F80
0F00
0E00
0C00
1800
1800
1000
3000
2000
2000
2000
2000
ENDCHAR
STARTCHAR 06F7
ENCODING 1783
SWIDTH 526 0
DWIDTH 19 0
BBX 15 20 2 5
BITMAP
0002
4002
6006
600C
F00C
F81C
7818
3C38
1C30
1C20
0E60
0640
0640
0340
0380
0380
0180
0180
0100
0100
ENDCHAR
STARTCHAR 06F8
ENCODING 1784
SWIDTH 526 0
DWIDTH 19 0
BBX 14 20 3 5
BITMAP
0200
0200
0200
0200
0700
0700
0700
0B80
0980
09C0
19C0
10E0
30F0
3078
607C
E03C
E03C
C01C
800C
8008
ENDCHAR
STARTCHAR 06F9
ENCODING 1785
SWIDTH 526 0
DWIDTH 19 0
BBX 11 21 4 5
BITMAP
1E00
3F00
7F00
6300
C180
C180
C180
FF80
FF80
7F80
0180
0180
0180
0180
01C0
01C0
01C0
00E0
00C0
00C0
0040
ENDCHAR
STARTCHAR 06FA
ENCODING 1786
SWIDTH 830 0
DWIDTH 30 0
BBX 29 29 1 -3
BITMAP
00001000
00003C00
00003800
00000A00
00000380
00003780
00007900
00003800
00000000
00000000
00000000
00008000
00008010
00018130
0001C118
2001C118
2000C188
4000C3D8
40007FF8
40007FF8
C0007C78
C0004000
C000C000
C0018000
E00780C0
7EFF01E0
7FFE00C0
3FF80040
03800000
ENDCHAR
STARTCHAR 06FB
ENCODING 1787
SWIDTH 1107 0
DWIDTH 40 0
BBX 39 24 1 -3
BITMAP
000000C000
000001E000
000001C000
0000004000
0000000000
0000000000
0000800060
00008003F8
0001800FFC
0001C01FFC
2001C0701E
2000C1C00E
4000C7003E
40007FFFFE
40007FFFFE
C0007FFFFE
C000400000
C000800000
C001800000
E007801800
7EFF003C00
7FFE001C00
3FF8000000
0380000000
ENDCHAR
STARTCHAR 06FC
ENCODING 1788
SWIDTH 553 0
DWIDTH 20 0
BBX 17 34 1 -7
BITMAP
0E0000
0E0000
060000
000000
000000
000000
000000
1F8000
3FC000
780000
C00000
800000
C00400
E03C00
FCFC00
7FF000
3F8000
0E0000
1C0000
300000
600000
400000
C02000
807800
807000
801000
C00000
C00000
E00000
780000
7FF800
3FFF80
0FFE00
003800
ENDCHAR
STARTCHAR 06FD
ENCODING 1789
SWIDTH 415 0
DWIDTH 15 0
BBX 11 19 2 -5
BITMAP
1F00
3F80
3B00
6000
6000
F0E0
FFE0
7FC0
1E00
3800
2000
0000
0900
0900
0900
0900
0900
0900
0900
ENDCHAR
STARTCHAR 06FE
ENCODING 1790
SWIDTH 332 0
DWIDTH 12 0
BBX 11 20 1 -8
BITMAP
0E00
1F80
3FC0
21C0
00E0
0FE0
7FE0
FFE0
F000
C000
8000
8480
C480
C480
4480
4480
6480
6480
2000
2000
ENDCHAR
STARTCHAR 1E80
ENCODING 7808
SWIDTH 941 0
DWIDTH 34 0
BBX 34 33 0 -1
BITMAP
0003800000
0001C00000
0000C00000
0000C00000
0000600000
0000200000
0000000000
0000000000
FF8FF81FC0
1E03E00700
1E01E00600
0E01E00600
0F00E00400
0F00E00C00
0700F00C00
0780F00800
0780F01800
0380F81800
03C1B81000
01C13C3000
01C13C3000
01E31C2000
00E21E6000
00E21E6000
00F60E4000
00740FC000
007C078000
007C078000
0038078000
0038030000
0038030000
0010030000
0010000000
ENDCHAR
STARTCHAR 1E81
ENCODING 7809
SWIDTH 720 0
DWIDTH 26 0
BBX 26 25 0 0
BITMAP
00780000
00380000
001C0000
000C0000
00040000
00060000
00020000
00000000
00000000
FE7F87C0
3C1E0300
1C0E0300
1C0E0200
1C070600
0E0F0400
0E0F0400
061B8C00
07138800
0731D800
03A1D000
03A1D000
03C0F000
01C0E000
01C06000
00804000
ENDCHAR
STARTCHAR 1E82
ENCODING 7810
SWIDTH 941 0
DWIDTH 34 0
BBX 34 33 0 -1
BITMAP
0000780000
0000E00000
0000E00000
0000C00000
0000800000
0001000000
0000000000
0000000000
FF8FF81FC0
1E03E00700
1E01E00600
0E01E00600
0F00E00400
0F00E00C00
0700F00C00
0780F00800
0780F01800
0380F81800
03C1B81000
01C13C3000
01C13C3000
01E31C2000
00E21E6000
00E21E6000
00F60E4000
00740FC000
007C078000
007C078000
0038078000
0038030000
0038030000
0010030000
0010000000
ENDCHAR
STARTCHAR 1E83
ENCODING 7811
SWIDTH 720 0
DWIDTH 26 0
BBX 26 25 0 0
BITMAP
00078000
00070000
000E0000
000C0000
000C0000
00080000
00100000
00000000
00000000
FE7F87C0
3C1E0300
1C0E0300
1C0E0200
1C070600
0E0F0400
0E0F0400
061B8C00
07138800
0731D800
03A1D000
03A1D000
03C0F000
01C0E000
01C06000
00804000
ENDCHAR
STARTCHAR 1E84
ENCODING 7812
SWIDTH 941 0
DWIDTH 34 0
BBX 34 31 0 -1
BITMAP
00061C0000
000F3C0000
000F3C0000
0006180000
0000000000
0000000000
FF8FF81FC0
1E03E00700
1E01E00600
0E01E00600
0F00E00400
0F00E00C00
0700F00C00
0780F00800
0780F01800
0380F81800
03C1B81000
01C13C3000
01C13C3000
01E31C2000
00E21E6000
00E21E6000
00F60E4000
00740FC000
007C078000
007C078000
0038078000
0038030000
0038030000
0010030000
0010000000
ENDCHAR
STARTCHAR 1E85
ENCODING 7813
SWIDTH 720 0
DWIDTH 26 0
BBX 26 24 0 0
BITMAP
00008000
00F3C000
00F3C000
00E1C000
00000000
00000000
00000000
00000000
FE7F87C0
3C1E0300
1C0E0300
1C0E0200
1C070600
0E0F0400
0E0F0400
061B8C00
07138800
0731D800
03A1D000
03A1D000
03C0F000
01C0E000
01C06000
00804000
ENDCHAR
STARTCHAR 1EA0
ENCODING 7840
SWIDTH 720 0
DWIDTH 26 0
BBX 26 30 0 -6
BITMAP
000C0000
000C0000
001C0000
001E0000
001E0000
003F0000
00270000
00678000
00478000
00C38000
00C3C000
0081C000
0181E000
0100E000
0300F000
03FFF000
06007000
06007800
04003800
0C003C00
08003C00
18001E00
38001E00
FF00FFC0
00000000
00000000
00180000
003C0000
003C0000
001C0000
ENDCHAR
STARTCHAR 1EA1
ENCODING 7841
SWIDTH 443 0
DWIDTH 16 0
BBX 15 23 1 -6
BITMAP
0300
1DE0
3070
7070
7070
7070
0070
03F0
0E70
3870
7070
6070
E070
E070
F0F2
7F7C
3E38
0000
0000
0600
0F00
0F00
0600
ENDCHAR
STARTCHAR 1EA2
ENCODING 7842
SWIDTH 720 0
DWIDTH 26 0
BBX 26 32 0 0
BITMAP
001E0000
00130000
00020000
00060000
00040000
00000000
00000000
00000000
000C0000
000C0000
001C0000
001E0000
001E0000
003F0000
00270000
00678000
00478000
00C38000
00C3C000
0081C000
0181E000
0100E000
0300F000
03FFF000
06007000
06007800
04003800
0C003C00
08003C00
18001E00
38001E00
FF00FFC0
ENDCHAR
STARTCHAR 1EA3
ENCODING 7843
SWIDTH 443 0
DWIDTH 16 0
BBX 15 24 1 0
BITMAP
0780
04C0
0080
0180
0100
0000
0000
0300
1DE0
3070
7070
7070
7070
0070
03F0
0E70
3870
7070
6070
E070
E070
F0F2
7F7C
3E38
ENDCHAR
STARTCHAR 1EA4
ENCODING 7844
SWIDTH 720 0
DWIDTH 26 0
BBX 26 32 0 0
BITMAP
000F0000
000C0000
00000000
001E0000
00370000
00C08000
00000000
00000000
000C0000
000C0000
001C0000
001E0000
001E0000
003F0000
00270000
00678000
00478000
00C38000
00C3C000
0081C000
0181E000
0100E000
0300F000
03FFF000
06007000
06007800
04003800
0C003C00
08003C00
18001E00
38001E00
FF00FFC0
ENDCHAR
STARTCHAR 1EA5
ENCODING 7845
SWIDTH 443 0
DWIDTH 16 0
BBX 15 32 1 0
BITMAP
01E0
01C0
0380
0300
0200
0000
0000
0000
0780
0FC0
0CC0
1860
1030
0000
0000
0300
1DE0
3070
7070
7070
7070
0070
03F0
0E70
3870
7070
6070
E070
E070
F0F2
7F7C
3E38
ENDCHAR
STARTCHAR 1EA6
ENCODING 7846
SWIDTH 720 0
DWIDTH 26 0
BBX 26 32 0 0
BITMAP
00380000
00180000
00000000
001E0000
00370000
00C08000
00000000
00000000
000C0000
000C0000
001C0000
001E0000
001E0000
003F0000
00270000
00678000
00478000
00C38000
00C3C000
0081C000
0181E000
0100E000
0300F000
03FFF000
06007000
06007800
04003800
0C003C00
08003C00
18001E00
38001E00
FF00FFC0
ENDCHAR
STARTCHAR 1EA7
ENCODING 7847
SWIDTH 443 0
DWIDTH 16 0
BBX 15 32 1 0
BITMAP
1E00
0E00
0700
0300
0100
0080
0000
0000
0780
0FC0
0CC0
1860
1030
0000
0000
0300
1DE0
3070
7070
7070
7070
0070
03F0
0E70
3870
7070
6070
E070
E070
F0F2
7F7C
3E38
ENDCHAR
STARTCHAR 1EA8
ENCODING 7848
SWIDTH 720 0
DWIDTH 26 0
BBX 26 32 0 0
BITMAP
001E0000
00020000
00040000
001E0000
00370000
00C08000
00000000
00000000
000C0000
000C0000
001C0000
001E0000
001E0000
003F0000
00270000
00678000
00478000
00C38000
00C3C000
0081C000
0181E000
0100E000
0300F000
03FFF000
06007000
06007800
04003800
0C003C00
08003C00
18001E00
38001E00
FF00FFC0
ENDCHAR
STARTCHAR 1EA9
ENCODING 7849
SWIDTH 443 0
DWIDTH 16 0
BBX 15 32 1 0
BITMAP
03C0
0640
00C0
0080
0100
0100
0000
0000
0780
0FC0
0CC0
1860
1030
0000
0000
0300
1DE0
3070
7070
7070
7070
0070
03F0
0E70
3870
7070
6070
E070
E070
F0F2
7F7C
3E38
ENDCHAR
STARTCHAR 1EAA
ENCODING 7850
SWIDTH 720 0
DWIDTH 26 0
BBX 26 32 0 0
BITMAP
00F84000
009F8000
00020000
001E0000
00370000
00C08000
00000000
00000000
000C0000
000C0000
001C0000
001E0000
001E0000
003F0000
00270000
00678000
00478000
00C38000
00C3C000
0081C000
0181E000
0100E000
0300F000
03FFF000
06007000
06007800
04003800
0C003C00
08003C00
18001E00
38001E00
FF00FFC0
ENDCHAR
STARTCHAR 1EAB
ENCODING 7851
SWIDTH 443 0
DWIDTH 16 0
BBX 15 31 1 0
BITMAP
1C08
3F10
2FD0
43F0
40C0
0000
0000
0780
0FC0
0CC0
1860
1030
0000
0000
0300
1DE0
3070
7070
7070
7070
0070
03F0
0E70
3870
7070
6070
E070
E070
F0F2
7F7C
3E38
ENDCHAR
STARTCHAR 1EAC
ENCODING 7852
SWIDTH 720 0
DWIDTH 26 0
BBX 26 35 0 -6
BITMAP
001E0000
00370000
00C08000
00000000
00000000
000C0000
000C0000
001C0000
001E0000
001E0000
003F0000
00270000
00678000
00478000
00C38000
00C3C000
0081C000
0181E000
0100E000
0300F000
03FFF000
06007000
06007800
04003800
0C003C00
08003C00
18001E00
38001E00
FF00FFC0
00000000
00000000
00180000
003C0000
003C0000
001C0000
ENDCHAR
STARTCHAR 1EAD
ENCODING 7853
SWIDTH 443 0
DWIDTH 16 0
BBX 15 30 1 -6
BITMAP
0780
0FC0
0CC0
1860
1030
0000
0000
0300
1DE0
3070
7070
7070
7070
0070
03F0
0E70
3870
7070
6070
E070
E070
F0F2
7F7C
3E38
0000
0000
0600
0F00
0F00
0600
ENDCHAR
STARTCHAR 1EAE
ENCODING 7854
SWIDTH 720 0
DWIDTH 26 0
BBX 26 32 0 0
BITMAP
00070000
000C0000
00000000
00C08000
007F0000
001C0000
00000000
00000000
000C0000
000C0000
001C0000
001E0000
001E0000
003F0000
00270000
00678000
00478000
00C38000
00C3C000
0081C000
0181E000
0100E000
0300F000
03FFF000
06007000
06007800
04003800
0C003C00
08003C00
18001E00
38001E00
FF00FFC0
ENDCHAR
STARTCHAR 1EAF
ENCODING 7855
SWIDTH 443 0
DWIDTH 16 0
BBX 15 32 1 0
BITMAP
01C0
0380
0380
0300
0200
0400
0000
0000
2010
3030
1FE0
1FE0
0780
0000
0000
0300
1DE0
3070
7070
7070
7070
0070
03F0
0E70
3870
7070
6070
E070
E070
F0F2
7F7C
3E38
ENDCHAR
STARTCHAR 1EB0
ENCODING 7856
SWIDTH 720 0
DWIDTH 26 0
BBX 26 32 0 0
BITMAP
00380000
00080000
00000000
00C08000
007F0000
001C0000
00000000
00000000
000C0000
000C0000
001C0000
001E0000
001E0000
003F0000
00270000
00678000
00478000
00C38000
00C3C000
0081C000
0181E000
0100E000
0300F000
03FFF000
06007000
06007800
04003800
0C003C00
08003C00
18001E00
38001E00
FF00FFC0
ENDCHAR
STARTCHAR 1EB1
ENCODING 7857
SWIDTH 443 0
DWIDTH 16 0
BBX 15 32 1 0
BITMAP
0E00
0700
0700
0300
0180
0080
0000
0000
2010
3030
1FE0
1FE0
0780
0000
0000
0300
1DE0
3070
7070
7070
7070
0070
03F0
0E70
3870
7070
6070
E070
E070
F0F2
7F7C
3E38
ENDCHAR
STARTCHAR 1EB2
ENCODING 7858
SWIDTH 720 0
DWIDTH 26 0
BBX 26 32 0 0
BITMAP
001E0000
00020000
00040000
00C08000
007F0000
001C0000
00000000
00000000
000C0000
000C0000
001C0000
001E0000
001E0000
003F0000
00270000
00678000
00478000
00C38000
00C3C000
0081C000
0181E000
0100E000
0300F000
03FFF000
06007000
06007800
04003800
0C003C00
08003C00
18001E00
38001E00
FF00FFC0
ENDCHAR
STARTCHAR 1EB3
ENCODING 7859
SWIDTH 443 0
DWIDTH 16 0
BBX 15 32 1 0
BITMAP
0780
04C0
00C0
0080
0100
0000
0000
0000
2010
3030
1FE0
1FE0
0780
0000
0000
0300
1DE0
3070
7070
7070
7070
0070
03F0
0E70
3870
7070
6070
E070
E070
F0F2
7F7C
3E38
ENDCHAR
STARTCHAR 1EB4
ENCODING 7860
SWIDTH 720 0
DWIDTH 26 0
BBX 26 32 0 0
BITMAP
00F84000
009F8000
00020000
00C08000
007F0000
001C0000
00000000
00000000
000C0000
000C0000
001C0000
001E0000
001E0000
003F0000
00270000
00678000
00478000
00C38000
00C3C000
0081C000
0181E000
0100E000
0300F000
03FFF000
06007000
06007800
04003800
0C003C00
08003C00
18001E00
38001E00
FF00FFC0
ENDCHAR
STARTCHAR 1EB5
ENCODING 7861
SWIDTH 443 0
DWIDTH 16 0
BBX 15 31 1 0
BITMAP
1C08
3F10
2FD0
43F0
40C0
0000
0000
2010
3030
1FE0
1FE0
0780
0000
0000
0300
1DE0
3070
7070
7070
7070
0070
03F0
0E70
3870
7070
6070
E070
E070
F0F2
7F7C
3E38
ENDCHAR
STARTCHAR 1EB6
ENCODING 7862
SWIDTH 720 0
DWIDTH 26 0
BBX 26 35 0 -6
BITMAP
00C08000
007F0000
001C0000
00000000
00000000
000C0000
000C0000
001C0000
001E0000
001E0000
003F0000
00270000
00678000
00478000
00C38000
00C3C000
0081C000
0181E000
0100E000
0300F000
03FFF000
06007000
06007800
04003800
0C003C00
08003C00
18001E00
38001E00
FF00FFC0
00000000
00000000
00180000
003C0000
003C0000
001C0000
ENDCHAR
STARTCHAR 1EB7
ENCODING 7863
SWIDTH 443 0
DWIDTH 16 0
BBX 15 30 1 -6
BITMAP
2010
3030
1FE0
1FE0
0780
0000
0000
0300
1DE0
3070
7070
7070
7070
0070
03F0
0E70
3870
7070
6070
E070
E070
F0F2
7F7C
3E38
0000
0000
0600
0F00
0F00
0600
ENDCHAR
STARTCHAR 1EB8
ENCODING 7864
SWIDTH 609 0
DWIDTH 22 0
BBX 20 30 1 -6
BITMAP
FFFFC0
1E03C0
1E0040
1E0040
1E0040
1E0000
1E0000
1E0000
1E0100
1E0100
1E0300
1FFF00
1E0300
1E0100
1E0100
1E0000
1E0000
1E0000
1E0010
1E0010
1E0020
1E0060
1E01E0
FFFFC0
000000
000000
006000
00F000
00F000
006000
ENDCHAR
STARTCHAR 1EB9
ENCODING 7865
SWIDTH 443 0
DWIDTH 16 0
BBX 14 23 1 -6
BITMAP
0180
0FF0
1078
3038
603C
603C
7FFC
E000
E000
E000
E000
7004
7804
7C08
3F38
1FF0
0FE0
0000
0000
0300
0780
0780
0380
ENDCHAR
STARTCHAR 1EBA
ENCODING 7866
SWIDTH 609 0
DWIDTH 22 0
BBX 20 32 1 0
BITMAP
007800
00C800
000800
001000
002000
002000
000000
000000
FFFFC0
1E03C0
1E0040
1E0040
1E0040
1E0000
1E0000
1E0000
1E0100
1E0100
1E0300
1FFF00
1E0300
1E0100
1E0100
1E0000
1E0000
1E0000
1E0010
1E0010
1E0020
1E0060
1E01E0
FFFFC0
ENDCHAR
STARTCHAR 1EBB
ENCODING 7867
SWIDTH 443 0
DWIDTH 16 0
BBX 14 24 1 0
BITMAP
03C0
0640
00C0
0080
0100
0100
0000
0180
0FF0
1078
3038
603C
603C
7FFC
E000
E000
E000
E000
7004
7804
7C08
3F38
1FF0
0FE0
ENDCHAR
STARTCHAR 1EBC
ENCODING 7868
SWIDTH 609 0
DWIDTH 22 0
BBX 20 30 1 0
BITMAP
03E100
03F900
047F00
041E00
000000
000000
FFFFC0
1E03C0
1E0040
1E0040
1E0040
1E0000
1E0000
1E0000
1E0100
1E0100
1E0300
1FFF00
1E0300
1E0100
1E0100
1E0000
1E0000
1E0000
1E0010
1E0010
1E0020
1E0060
1E01E0
FFFFC0
ENDCHAR
STARTCHAR 1EBD
ENCODING 7869
SWIDTH 443 0
DWIDTH 16 0
BBX 14 24 1 0
BITMAP
0E08
1F88
27F8
21F0
0060
0000
0000
0180
0FF0
1078
3038
603C
603C
7FFC
E000
E000
E000
E000
7004
7804
7C08
3F38
1FF0
0FE0
ENDCHAR
STARTCHAR 1EBE
ENCODING 7870
SWIDTH 609 0
DWIDTH 22 0
BBX 20 32 1 0
BITMAP
001C00
003000
000000
007800
00DC00
010200
000000
000000
FFFFC0
1E03C0
1E0040
1E0040
1E0040
1E0000
1E0000
1E0000
1E0100
1E0100
1E0300
1FFF00
1E0300
1E0100
1E0100
1E0000
1E0000
1E0000
1E0010
1E0010
1E0020
1E0060
1E01E0
FFFFC0
ENDCHAR
STARTCHAR 1EBF
ENCODING 7871
SWIDTH 443 0
DWIDTH 16 0
BBX 14 32 1 0
BITMAP
00E0
01C0
01C0
0180
0300
0200
0000
0000
03C0
07C0
0CE0
0830
1010
0000
0000
0180
0FF0
1078
3038
603C
603C
7FFC
E000
E000
E000
E000
7004
7804
7C08
3F38
1FF0
0FE0
ENDCHAR
STARTCHAR 1EC0
ENCODING 7872
SWIDTH 609 0
DWIDTH 22 0
BBX 20 32 1 0
BITMAP
00E000
003000
000000
007800
00DC00
010200
000000
000000
FFFFC0
1E03C0
1E0040
1E0040
1E0040
1E0000
1E0000
1E0000
1E0100
1E0100
1E0300
1FFF00
1E0300
1E0100
1E0100
1E0000
1E0000
1E0000
1E0010
1E0010
1E0020
1E0060
1E01E0
FFFFC0
ENDCHAR
STARTCHAR 1EC1
ENCODING 7873
SWIDTH 443 0
DWIDTH 16 0
BBX 14 32 1 0
BITMAP
0F00
0700
0300
0180
0080
0000
0000
0000
03C0
07C0
0CE0
0830
1010
0000
0000
0180
0FF0
1078
3038
603C
603C
7FFC
E000
E000
E000
E000
7004
7804
7C08
3F38
1FF0
0FE0
ENDCHAR
STARTCHAR 1EC2
ENCODING 7874
SWIDTH 609 0
DWIDTH 22 0
BBX 20 32 1 0
BITMAP
007800
000800
001000
007800
00DC00
010200
000000
000000
FFFFC0
1E03C0
1E0040
1E0040
1E0040
1E0000
1E0000
1E0000
1E0100
1E0100
1E0300
1FFF00
1E0300
1E0100
1E0100
1E0000
1E0000
1E0000
1E0010
1E0010
1E0020
1E0060
1E01E0
FFFFC0
ENDCHAR
STARTCHAR 1EC3
ENCODING 7875
SWIDTH 443 0
DWIDTH 16 0
BBX 14 32 1 0
BITMAP
03C0
0260
0240
00C0
0080
0000
0000
0000
03C0
07C0
0CE0
0830
1010
0000
0000
0180
0FF0
1078
3038
603C
603C
7FFC
E000
E000
E000
E000
7004
7804
7C08
3F38
1FF0
0FE0
ENDCHAR
STARTCHAR 1EC4
ENCODING 7876
SWIDTH 609 0
DWIDTH 22 0
BBX 20 32 1 0
BITMAP
01F100
027F00
020C00
007800
00DC00
010200
000000
000000
FFFFC0
1E03C0
1E0040
1E0040
1E0040
1E0000
1E0000
1E0000
1E0100
1E0100
1E0300
1FFF00
1E0300
1E0100
1E0100
1E0000
1E0000
1E0000
1E0010
1E0010
1E0020
1E0060
1E01E0
FFFFC0
ENDCHAR
STARTCHAR 1EC5
ENCODING 7877
SWIDTH 443 0
DWIDTH 16 0
BBX 14 31 1 0
BITMAP
0E00
1F88
27F8
21F0
2060
0000
0000
03C0
07C0
0CE0
0830
1010
0000
0000
0180
0FF0
1078
3038
603C
603C
7FFC
E000
E000
E000
E000
7004
7804
7C08
3F38
1FF0
0FE0
ENDCHAR
ENDFONT
